M48
;DRILL file {KiCad 4.0.0-rc1-stable} date to  8. lokakuuta 2015 13.09.38
;FORMAT={-:-/ absolute / inch / decimal}
FMAT,2
INCH,TZ
T1C0.031
T2C0.039
T3C0.120
%
G90
G05
M72
T1
X3.7Y-4.2994
X3.7Y-4.4018
X3.7Y-4.5041
X3.7Y-5.0744
X3.7Y-5.1768
X3.7Y-5.2791
X3.775Y-4.2994
X3.775Y-4.4018
X3.775Y-4.5041
X3.775Y-5.0744
X3.775Y-5.1768
X3.775Y-5.2791
X3.85Y-4.2994
X3.85Y-4.4018
X3.85Y-4.5041
X3.85Y-4.6065
X3.85Y-5.0744
X3.85Y-5.1768
X3.85Y-5.2791
X3.85Y-5.3815
X3.925Y-4.2994
X3.925Y-4.4018
X3.925Y-4.5041
X3.925Y-4.6065
X3.925Y-5.0744
X3.925Y-5.1768
X3.925Y-5.2791
X3.925Y-5.3815
X4.475Y-4.2994
X4.475Y-4.4018
X4.475Y-4.5041
X4.475Y-4.6065
X4.475Y-5.0744
X4.475Y-5.1768
X4.475Y-5.2791
X4.475Y-5.3815
X4.55Y-4.2994
X4.55Y-4.4018
X4.55Y-4.5041
X4.55Y-4.6065
X4.55Y-5.0744
X4.55Y-5.1768
X4.55Y-5.2791
X4.55Y-5.3815
X4.625Y-4.2994
X4.625Y-4.4018
X4.625Y-4.5041
X4.625Y-5.0744
X4.625Y-5.1768
X4.625Y-5.2791
X4.7Y-4.2994
X4.7Y-4.4018
X4.7Y-4.5041
X4.7Y-5.0744
X4.7Y-5.1768
X4.7Y-5.2791
T2
X3.525Y-2.275
X3.525Y-2.375
X3.525Y-2.475
X3.525Y-2.575
X3.525Y-2.675
X3.525Y-2.775
X3.525Y-2.875
X3.525Y-2.975
X3.525Y-3.075
X3.525Y-3.175
X3.525Y-3.275
X3.525Y-3.375
X3.525Y-3.475
X3.525Y-3.575
X3.525Y-3.675
X3.525Y-3.775
X3.525Y-3.875
X3.525Y-3.975
X3.525Y-4.075
X3.55Y-4.175
X3.55Y-4.275
X3.55Y-4.375
X3.55Y-4.475
X3.55Y-4.575
X3.55Y-4.675
X3.55Y-4.775
X3.55Y-4.875
X3.55Y-4.975
X3.55Y-5.075
X3.55Y-5.175
X3.55Y-5.275
X3.55Y-5.375
X3.55Y-5.475
X3.625Y-2.275
X3.625Y-2.375
X3.625Y-2.475
X3.625Y-2.575
X3.625Y-2.675
X3.625Y-2.775
X3.625Y-2.875
X3.625Y-2.975
X3.625Y-3.075
X3.625Y-3.175
X3.625Y-3.275
X3.625Y-3.375
X3.625Y-3.475
X3.625Y-3.575
X3.625Y-3.675
X3.625Y-3.775
X3.625Y-3.875
X3.625Y-3.975
X3.625Y-4.075
X3.65Y-4.175
X3.65Y-4.675
X3.65Y-4.775
X3.65Y-4.875
X3.65Y-4.975
X3.65Y-5.375
X3.65Y-5.475
X3.75Y-4.175
X3.75Y-4.675
X3.75Y-4.775
X3.75Y-4.875
X3.75Y-4.975
X3.75Y-5.475
X3.85Y-4.775
X3.85Y-4.875
X3.85Y-4.975
X3.85Y-5.475
X3.95Y-2.275
X3.95Y-2.375
X3.95Y-2.475
X3.95Y-2.575
X3.95Y-2.675
X3.95Y-2.775
X3.95Y-2.875
X3.95Y-2.975
X3.95Y-3.075
X3.95Y-3.175
X3.95Y-3.275
X3.95Y-3.375
X3.95Y-3.475
X3.95Y-3.575
X3.95Y-3.675
X3.95Y-3.775
X3.95Y-3.875
X3.95Y-3.975
X3.95Y-4.075
X3.95Y-4.775
X3.95Y-4.875
X3.95Y-4.975
X3.95Y-5.475
X4.05Y-2.275
X4.05Y-2.375
X4.05Y-2.475
X4.05Y-2.575
X4.05Y-2.675
X4.05Y-2.775
X4.05Y-2.875
X4.05Y-2.975
X4.05Y-3.075
X4.05Y-3.175
X4.05Y-3.275
X4.05Y-3.375
X4.05Y-3.475
X4.05Y-3.575
X4.05Y-3.675
X4.05Y-3.775
X4.05Y-3.875
X4.05Y-3.975
X4.05Y-4.075
X4.05Y-4.775
X4.05Y-4.875
X4.05Y-4.975
X4.05Y-5.475
X4.15Y-4.775
X4.15Y-4.875
X4.15Y-4.975
X4.15Y-5.475
X4.25Y-4.175
X4.25Y-4.775
X4.25Y-4.875
X4.25Y-4.975
X4.25Y-5.475
X4.35Y-4.175
X4.35Y-4.775
X4.35Y-4.875
X4.35Y-4.975
X4.35Y-5.475
X4.375Y-2.275
X4.375Y-2.375
X4.375Y-2.475
X4.375Y-2.575
X4.375Y-2.675
X4.375Y-2.775
X4.375Y-2.875
X4.375Y-2.975
X4.375Y-3.075
X4.375Y-3.175
X4.375Y-3.275
X4.375Y-3.375
X4.375Y-3.475
X4.375Y-3.575
X4.375Y-3.675
X4.375Y-3.775
X4.375Y-3.875
X4.375Y-3.975
X4.375Y-4.075
X4.45Y-4.175
X4.45Y-4.775
X4.45Y-4.875
X4.45Y-4.975
X4.45Y-5.475
X4.475Y-2.275
X4.475Y-2.375
X4.475Y-2.475
X4.475Y-2.575
X4.475Y-2.675
X4.475Y-2.775
X4.475Y-2.875
X4.475Y-2.975
X4.475Y-3.075
X4.475Y-3.175
X4.475Y-3.275
X4.475Y-3.375
X4.475Y-3.475
X4.475Y-3.575
X4.475Y-3.675
X4.475Y-3.775
X4.475Y-3.875
X4.475Y-3.975
X4.475Y-4.075
X4.55Y-4.175
X4.55Y-4.775
X4.55Y-4.875
X4.55Y-4.975
X4.55Y-5.475
X4.65Y-4.175
X4.65Y-4.775
X4.65Y-4.875
X4.65Y-4.975
X4.65Y-5.475
X4.7Y-2.525
X4.7Y-2.625
X4.7Y-2.725
X4.7Y-2.825
X4.7Y-2.925
X4.7Y-3.025
X4.7Y-3.125
X4.7Y-3.225
X4.7Y-3.325
X4.7Y-3.425
X4.7Y-3.525
X4.7Y-3.625
X4.7Y-3.725
X4.7Y-3.825
X4.7Y-3.925
X4.7Y-4.025
X4.75Y-4.175
X4.75Y-4.775
X4.75Y-4.875
X4.75Y-4.975
X4.75Y-5.375
X4.75Y-5.475
X4.77Y-2.475
X4.77Y-2.575
X4.77Y-2.675
X4.77Y-2.775
X4.77Y-2.875
X4.77Y-2.975
X4.77Y-3.075
X4.77Y-3.175
X4.77Y-3.275
X4.77Y-3.375
X4.77Y-3.475
X4.77Y-3.575
X4.77Y-3.675
X4.77Y-3.775
X4.77Y-3.875
X4.77Y-3.975
X4.84Y-2.525
X4.84Y-2.625
X4.84Y-2.725
X4.84Y-2.825
X4.84Y-2.925
X4.84Y-3.025
X4.84Y-3.125
X4.84Y-3.225
X4.84Y-3.325
X4.84Y-3.425
X4.84Y-3.525
X4.84Y-3.625
X4.84Y-3.725
X4.84Y-3.825
X4.84Y-3.925
X4.84Y-4.025
X4.85Y-4.175
X4.85Y-4.275
X4.85Y-4.375
X4.85Y-4.475
X4.85Y-4.575
X4.85Y-4.675
X4.85Y-4.775
X4.85Y-4.875
X4.85Y-4.975
X4.85Y-5.075
X4.85Y-5.175
X4.85Y-5.275
X4.85Y-5.375
X4.85Y-5.475
X4.91Y-2.475
X4.91Y-2.575
X4.91Y-2.675
X4.91Y-2.775
X4.91Y-2.875
X4.91Y-2.975
X4.91Y-3.075
X4.91Y-3.175
X4.91Y-3.275
X4.91Y-3.375
X4.91Y-3.475
X4.91Y-3.575
X4.91Y-3.675
X4.91Y-3.775
X4.91Y-3.875
X4.91Y-3.975
X4.95Y-4.175
X4.95Y-4.275
X4.95Y-4.375
X4.95Y-4.475
X4.95Y-4.575
X4.95Y-4.675
X4.95Y-4.775
X4.95Y-4.875
X4.95Y-4.975
X4.95Y-5.075
X4.95Y-5.175
X4.95Y-5.275
X4.95Y-5.375
X4.95Y-5.475
X5.05Y-4.175
X5.05Y-4.275
X5.05Y-4.375
X5.05Y-4.475
X5.05Y-4.575
X5.05Y-4.675
X5.05Y-4.775
X5.05Y-4.875
X5.05Y-4.975
X5.05Y-5.075
X5.05Y-5.175
X5.05Y-5.275
X5.05Y-5.375
X5.05Y-5.475
X5.15Y-4.175
X5.15Y-4.275
X5.15Y-4.375
X5.15Y-4.475
X5.15Y-4.575
X5.15Y-4.675
X5.15Y-4.775
X5.15Y-4.875
X5.15Y-4.975
X5.15Y-5.075
X5.15Y-5.175
X5.15Y-5.275
X5.15Y-5.375
X5.15Y-5.475
X5.25Y-4.175
X5.25Y-4.275
X5.25Y-4.375
X5.25Y-4.475
X5.25Y-4.575
X5.25Y-4.675
X5.25Y-4.775
X5.25Y-4.875
X5.25Y-4.975
X5.25Y-5.075
X5.25Y-5.175
X5.25Y-5.275
X5.25Y-5.375
X5.25Y-5.475
X5.35Y-4.175
X5.35Y-4.275
X5.35Y-4.375
X5.35Y-4.475
X5.35Y-4.575
X5.35Y-4.675
X5.35Y-4.775
X5.35Y-4.875
X5.35Y-4.975
X5.35Y-5.075
X5.35Y-5.175
X5.35Y-5.275
X5.35Y-5.375
X5.35Y-5.475
X5.45Y-4.375
X5.45Y-4.475
X5.45Y-4.575
X5.45Y-4.675
X5.45Y-4.775
X5.45Y-4.875
X5.45Y-4.975
X5.45Y-5.075
X5.45Y-5.175
X5.45Y-5.275
X5.45Y-5.375
X5.45Y-5.475
X5.49Y-2.475
X5.49Y-2.575
X5.49Y-2.675
X5.49Y-2.775
X5.49Y-2.875
X5.49Y-2.975
X5.49Y-3.075
X5.49Y-3.175
X5.49Y-3.275
X5.49Y-3.375
X5.49Y-3.475
X5.49Y-3.575
X5.49Y-3.675
X5.49Y-3.775
X5.49Y-3.875
X5.49Y-3.975
X5.55Y-4.375
X5.55Y-4.475
X5.55Y-4.575
X5.55Y-4.675
X5.55Y-4.775
X5.55Y-4.875
X5.55Y-4.975
X5.55Y-5.075
X5.55Y-5.175
X5.55Y-5.275
X5.55Y-5.375
X5.55Y-5.475
X5.56Y-2.525
X5.56Y-2.625
X5.56Y-2.725
X5.56Y-2.825
X5.56Y-2.925
X5.56Y-3.025
X5.56Y-3.125
X5.56Y-3.225
X5.56Y-3.325
X5.56Y-3.425
X5.56Y-3.525
X5.56Y-3.625
X5.56Y-3.725
X5.56Y-3.825
X5.56Y-3.925
X5.56Y-4.025
X5.63Y-2.475
X5.63Y-2.575
X5.63Y-2.675
X5.63Y-2.775
X5.63Y-2.875
X5.63Y-2.975
X5.63Y-3.075
X5.63Y-3.175
X5.63Y-3.275
X5.63Y-3.375
X5.63Y-3.475
X5.63Y-3.575
X5.63Y-3.675
X5.63Y-3.775
X5.63Y-3.875
X5.63Y-3.975
X5.65Y-4.375
X5.65Y-4.475
X5.65Y-4.575
X5.65Y-4.675
X5.65Y-4.775
X5.65Y-4.875
X5.65Y-4.975
X5.65Y-5.075
X5.65Y-5.175
X5.65Y-5.275
X5.65Y-5.375
X5.65Y-5.475
X5.7Y-2.525
X5.7Y-2.625
X5.7Y-2.725
X5.7Y-2.825
X5.7Y-2.925
X5.7Y-3.025
X5.7Y-3.125
X5.7Y-3.225
X5.7Y-3.325
X5.7Y-3.425
X5.7Y-3.525
X5.7Y-3.625
X5.7Y-3.725
X5.7Y-3.825
X5.7Y-3.925
X5.7Y-4.025
X5.75Y-4.175
X5.75Y-4.275
X5.75Y-4.375
X5.75Y-4.475
X5.75Y-4.575
X5.75Y-4.675
X5.75Y-4.775
X5.75Y-4.875
X5.75Y-4.975
X5.75Y-5.075
X5.75Y-5.175
X5.75Y-5.275
X5.75Y-5.375
X5.75Y-5.475
X5.85Y-4.175
X5.85Y-4.275
X5.85Y-4.375
X5.85Y-4.475
X5.85Y-4.575
X5.85Y-4.675
X5.85Y-4.775
X5.85Y-4.875
X5.85Y-4.975
X5.85Y-5.075
X5.85Y-5.175
X5.85Y-5.275
X5.85Y-5.375
X5.85Y-5.475
X5.925Y-2.275
X5.925Y-2.375
X5.925Y-2.475
X5.925Y-2.575
X5.925Y-2.675
X5.925Y-2.775
X5.925Y-2.875
X5.925Y-2.975
X5.925Y-3.075
X5.925Y-3.175
X5.925Y-3.275
X5.925Y-3.375
X5.925Y-3.475
X5.925Y-3.575
X5.925Y-3.675
X5.925Y-3.775
X5.925Y-3.875
X5.925Y-3.975
X5.925Y-4.075
X5.95Y-4.175
X5.95Y-4.275
X5.95Y-4.375
X5.95Y-4.475
X5.95Y-4.575
X5.95Y-4.675
X5.95Y-4.775
X5.95Y-4.875
X5.95Y-4.975
X5.95Y-5.075
X5.95Y-5.175
X5.95Y-5.275
X5.95Y-5.375
X5.95Y-5.475
X6.025Y-2.275
X6.025Y-2.375
X6.025Y-2.475
X6.025Y-2.575
X6.025Y-2.675
X6.025Y-2.775
X6.025Y-2.875
X6.025Y-2.975
X6.025Y-3.075
X6.025Y-3.175
X6.025Y-3.275
X6.025Y-3.375
X6.025Y-3.475
X6.025Y-3.575
X6.025Y-3.675
X6.025Y-3.775
X6.025Y-3.875
X6.025Y-3.975
X6.025Y-4.075
X6.05Y-4.175
X6.05Y-4.275
X6.05Y-4.375
X6.05Y-4.475
X6.05Y-4.575
X6.05Y-4.675
X6.05Y-4.775
X6.05Y-4.875
X6.05Y-4.975
X6.05Y-5.075
X6.05Y-5.175
X6.05Y-5.275
X6.05Y-5.375
X6.05Y-5.475
X6.15Y-4.175
X6.15Y-4.275
X6.15Y-4.375
X6.15Y-4.475
X6.15Y-4.575
X6.15Y-4.675
X6.15Y-4.775
X6.15Y-4.875
X6.15Y-4.975
X6.15Y-5.075
X6.15Y-5.175
X6.15Y-5.275
X6.15Y-5.375
X6.15Y-5.475
X6.25Y-4.275
X6.25Y-4.375
X6.25Y-4.475
X6.25Y-4.575
X6.25Y-4.675
X6.25Y-4.775
X6.25Y-4.875
X6.25Y-4.975
X6.25Y-5.075
X6.25Y-5.175
X6.25Y-5.275
X6.25Y-5.375
X6.25Y-5.475
X6.35Y-2.275
X6.35Y-2.375
X6.35Y-2.475
X6.35Y-2.575
X6.35Y-2.675
X6.35Y-2.775
X6.35Y-2.875
X6.35Y-2.975
X6.35Y-3.075
X6.35Y-3.175
X6.35Y-3.275
X6.35Y-3.375
X6.35Y-3.475
X6.35Y-3.575
X6.35Y-3.675
X6.35Y-3.775
X6.35Y-3.875
X6.35Y-3.975
X6.35Y-4.075
X6.35Y-4.275
X6.35Y-4.375
X6.35Y-4.475
X6.35Y-4.575
X6.35Y-4.675
X6.35Y-4.775
X6.35Y-4.875
X6.35Y-4.975
X6.35Y-5.075
X6.35Y-5.175
X6.35Y-5.275
X6.35Y-5.375
X6.35Y-5.475
X6.45Y-2.275
X6.45Y-2.375
X6.45Y-2.475
X6.45Y-2.575
X6.45Y-2.675
X6.45Y-2.775
X6.45Y-2.875
X6.45Y-2.975
X6.45Y-3.075
X6.45Y-3.175
X6.45Y-3.275
X6.45Y-3.375
X6.45Y-3.475
X6.45Y-3.575
X6.45Y-3.675
X6.45Y-3.775
X6.45Y-3.875
X6.45Y-3.975
X6.45Y-4.075
X6.45Y-4.275
X6.45Y-4.375
X6.45Y-4.475
X6.45Y-4.575
X6.45Y-4.675
X6.45Y-4.775
X6.45Y-4.875
X6.45Y-4.975
X6.45Y-5.075
X6.45Y-5.175
X6.45Y-5.275
X6.45Y-5.375
X6.45Y-5.475
X6.55Y-4.275
X6.55Y-4.375
X6.55Y-4.475
X6.55Y-4.575
X6.55Y-4.675
X6.55Y-4.775
X6.55Y-4.875
X6.55Y-4.975
X6.55Y-5.075
X6.55Y-5.175
X6.55Y-5.275
X6.55Y-5.375
X6.55Y-5.475
X6.65Y-4.175
X6.65Y-4.275
X6.65Y-4.375
X6.65Y-4.475
X6.65Y-4.575
X6.65Y-4.675
X6.65Y-4.775
X6.65Y-4.875
X6.65Y-4.975
X6.65Y-5.075
X6.65Y-5.175
X6.65Y-5.275
X6.65Y-5.375
X6.65Y-5.475
X6.75Y-4.175
X6.75Y-4.275
X6.75Y-4.375
X6.75Y-4.475
X6.75Y-4.575
X6.75Y-4.675
X6.75Y-4.775
X6.75Y-4.875
X6.75Y-4.975
X6.75Y-5.075
X6.75Y-5.175
X6.75Y-5.275
X6.75Y-5.375
X6.75Y-5.475
X6.775Y-2.275
X6.775Y-2.375
X6.775Y-2.475
X6.775Y-2.575
X6.775Y-2.675
X6.775Y-2.775
X6.775Y-2.875
X6.775Y-2.975
X6.775Y-3.075
X6.775Y-3.175
X6.775Y-3.275
X6.775Y-3.375
X6.775Y-3.475
X6.775Y-3.575
X6.775Y-3.675
X6.775Y-3.775
X6.775Y-3.875
X6.775Y-3.975
X6.775Y-4.075
X6.85Y-4.175
X6.85Y-4.275
X6.85Y-4.375
X6.85Y-4.475
X6.85Y-4.575
X6.85Y-4.675
X6.85Y-4.775
X6.85Y-4.875
X6.85Y-4.975
X6.85Y-5.075
X6.85Y-5.175
X6.85Y-5.275
X6.85Y-5.375
X6.85Y-5.475
X6.875Y-2.275
X6.875Y-2.375
X6.875Y-2.475
X6.875Y-2.575
X6.875Y-2.675
X6.875Y-2.775
X6.875Y-2.875
X6.875Y-2.975
X6.875Y-3.075
X6.875Y-3.175
X6.875Y-3.275
X6.875Y-3.375
X6.875Y-3.475
X6.875Y-3.575
X6.875Y-3.675
X6.875Y-3.775
X6.875Y-3.875
X6.875Y-3.975
X6.875Y-4.075
T3
X4.25Y-2.125
X5.55Y-4.175
X6.15Y-2.175
T0
M30
