G04 #@! TF.FileFunction,Legend,Top*
%FSLAX46Y46*%
G04 Gerber Fmt 4.6, Leading zero omitted, Abs format (unit mm)*
G04 Created by KiCad (PCBNEW (after 2015-mar-04 BZR unknown)-product) date 16.6.2015 8:52:11*
%MOMM*%
G01*
G04 APERTURE LIST*
%ADD10C,0.150000*%
%ADD11C,0.203200*%
%ADD12C,0.381000*%
%ADD13R,4.000000X0.600000*%
%ADD14C,1.500000*%
%ADD15R,1.700000X1.700000*%
%ADD16C,1.700000*%
%ADD17C,4.064000*%
%ADD18R,1.500000X1.500000*%
%ADD19R,4.200000X0.550000*%
%ADD20R,1.400000X1.400000*%
%ADD21C,1.400000*%
G04 APERTURE END LIST*
D10*
D11*
X147410714Y-92526150D02*
X147456676Y-92572112D01*
X147502638Y-92709997D01*
X147502638Y-92801921D01*
X147456676Y-92939807D01*
X147364752Y-93031731D01*
X147272829Y-93077692D01*
X147088981Y-93123654D01*
X146951095Y-93123654D01*
X146767248Y-93077692D01*
X146675324Y-93031731D01*
X146583400Y-92939807D01*
X146537438Y-92801921D01*
X146537438Y-92709997D01*
X146583400Y-92572112D01*
X146629362Y-92526150D01*
X147410714Y-91560950D02*
X147456676Y-91606912D01*
X147502638Y-91744797D01*
X147502638Y-91836721D01*
X147456676Y-91974607D01*
X147364752Y-92066531D01*
X147272829Y-92112492D01*
X147088981Y-92158454D01*
X146951095Y-92158454D01*
X146767248Y-92112492D01*
X146675324Y-92066531D01*
X146583400Y-91974607D01*
X146537438Y-91836721D01*
X146537438Y-91744797D01*
X146583400Y-91606912D01*
X146629362Y-91560950D01*
X147134943Y-91147292D02*
X147134943Y-90411902D01*
X146997057Y-89630549D02*
X147043019Y-89492663D01*
X147088981Y-89446702D01*
X147180905Y-89400740D01*
X147318790Y-89400740D01*
X147410714Y-89446702D01*
X147456676Y-89492663D01*
X147502638Y-89584587D01*
X147502638Y-89952282D01*
X146537438Y-89952282D01*
X146537438Y-89630549D01*
X146583400Y-89538625D01*
X146629362Y-89492663D01*
X146721286Y-89446702D01*
X146813210Y-89446702D01*
X146905133Y-89492663D01*
X146951095Y-89538625D01*
X146997057Y-89630549D01*
X146997057Y-89952282D01*
X147043019Y-88803235D02*
X147502638Y-88803235D01*
X146537438Y-89124968D02*
X147043019Y-88803235D01*
X146537438Y-88481502D01*
X147502638Y-87010721D02*
X146997057Y-87010721D01*
X146905133Y-87056683D01*
X146859171Y-87148607D01*
X146859171Y-87332455D01*
X146905133Y-87424378D01*
X147456676Y-87010721D02*
X147502638Y-87102645D01*
X147502638Y-87332455D01*
X147456676Y-87424378D01*
X147364752Y-87470340D01*
X147272829Y-87470340D01*
X147180905Y-87424378D01*
X147134943Y-87332455D01*
X147134943Y-87102645D01*
X147088981Y-87010721D01*
X147502638Y-86413217D02*
X147456676Y-86505141D01*
X147410714Y-86551102D01*
X147318790Y-86597064D01*
X147043019Y-86597064D01*
X146951095Y-86551102D01*
X146905133Y-86505141D01*
X146859171Y-86413217D01*
X146859171Y-86275331D01*
X146905133Y-86183407D01*
X146951095Y-86137445D01*
X147043019Y-86091483D01*
X147318790Y-86091483D01*
X147410714Y-86137445D01*
X147456676Y-86183407D01*
X147502638Y-86275331D01*
X147502638Y-86413217D01*
X146859171Y-85677826D02*
X147502638Y-85677826D01*
X146951095Y-85677826D02*
X146905133Y-85631865D01*
X146859171Y-85539941D01*
X146859171Y-85402055D01*
X146905133Y-85310131D01*
X146997057Y-85264169D01*
X147502638Y-85264169D01*
X147043019Y-84207046D02*
X146997057Y-84253008D01*
X146951095Y-84344931D01*
X146951095Y-84436855D01*
X146997057Y-84528779D01*
X147043019Y-84574741D01*
X147134943Y-84620703D01*
X147226867Y-84620703D01*
X147318790Y-84574741D01*
X147364752Y-84528779D01*
X147410714Y-84436855D01*
X147410714Y-84344931D01*
X147364752Y-84253008D01*
X147318790Y-84207046D01*
X146951095Y-84207046D02*
X147318790Y-84207046D01*
X147364752Y-84161084D01*
X147364752Y-84115122D01*
X147318790Y-84023198D01*
X147226867Y-83977236D01*
X146997057Y-83977236D01*
X146859171Y-84069160D01*
X146767248Y-84207046D01*
X146721286Y-84390893D01*
X146767248Y-84574741D01*
X146859171Y-84712627D01*
X146997057Y-84804550D01*
X147180905Y-84850512D01*
X147364752Y-84804550D01*
X147502638Y-84712627D01*
X147594562Y-84574741D01*
X147640524Y-84390893D01*
X147594562Y-84207046D01*
X147502638Y-84069160D01*
X146859171Y-83149922D02*
X147502638Y-83149922D01*
X146859171Y-83563579D02*
X147364752Y-83563579D01*
X147456676Y-83517618D01*
X147502638Y-83425694D01*
X147502638Y-83287808D01*
X147456676Y-83195884D01*
X147410714Y-83149922D01*
X147502638Y-82690303D02*
X146859171Y-82690303D01*
X146951095Y-82690303D02*
X146905133Y-82644342D01*
X146859171Y-82552418D01*
X146859171Y-82414532D01*
X146905133Y-82322608D01*
X146997057Y-82276646D01*
X147502638Y-82276646D01*
X146997057Y-82276646D02*
X146905133Y-82230684D01*
X146859171Y-82138761D01*
X146859171Y-82000875D01*
X146905133Y-81908951D01*
X146997057Y-81862989D01*
X147502638Y-81862989D01*
X147456676Y-81035675D02*
X147502638Y-81127599D01*
X147502638Y-81311447D01*
X147456676Y-81403370D01*
X147364752Y-81449332D01*
X146997057Y-81449332D01*
X146905133Y-81403370D01*
X146859171Y-81311447D01*
X146859171Y-81127599D01*
X146905133Y-81035675D01*
X146997057Y-80989713D01*
X147088981Y-80989713D01*
X147180905Y-81449332D01*
X146859171Y-80713942D02*
X146859171Y-80346247D01*
X146537438Y-80576056D02*
X147364752Y-80576056D01*
X147456676Y-80530095D01*
X147502638Y-80438171D01*
X147502638Y-80346247D01*
X147502638Y-80024513D02*
X146859171Y-80024513D01*
X147043019Y-80024513D02*
X146951095Y-79978552D01*
X146905133Y-79932590D01*
X146859171Y-79840666D01*
X146859171Y-79748742D01*
X147502638Y-79289123D02*
X147456676Y-79381047D01*
X147410714Y-79427008D01*
X147318790Y-79472970D01*
X147043019Y-79472970D01*
X146951095Y-79427008D01*
X146905133Y-79381047D01*
X146859171Y-79289123D01*
X146859171Y-79151237D01*
X146905133Y-79059313D01*
X146951095Y-79013351D01*
X147043019Y-78967389D01*
X147318790Y-78967389D01*
X147410714Y-79013351D01*
X147456676Y-79059313D01*
X147502638Y-79151237D01*
X147502638Y-79289123D01*
X146859171Y-78553732D02*
X147502638Y-78553732D01*
X146951095Y-78553732D02*
X146905133Y-78507771D01*
X146859171Y-78415847D01*
X146859171Y-78277961D01*
X146905133Y-78186037D01*
X146997057Y-78140075D01*
X147502638Y-78140075D01*
X147502638Y-77680456D02*
X146859171Y-77680456D01*
X146537438Y-77680456D02*
X146583400Y-77726418D01*
X146629362Y-77680456D01*
X146583400Y-77634495D01*
X146537438Y-77680456D01*
X146629362Y-77680456D01*
X147456676Y-76807180D02*
X147502638Y-76899104D01*
X147502638Y-77082952D01*
X147456676Y-77174876D01*
X147410714Y-77220837D01*
X147318790Y-77266799D01*
X147043019Y-77266799D01*
X146951095Y-77220837D01*
X146905133Y-77174876D01*
X146859171Y-77082952D01*
X146859171Y-76899104D01*
X146905133Y-76807180D01*
X147456676Y-76439485D02*
X147502638Y-76347562D01*
X147502638Y-76163714D01*
X147456676Y-76071790D01*
X147364752Y-76025828D01*
X147318790Y-76025828D01*
X147226867Y-76071790D01*
X147180905Y-76163714D01*
X147180905Y-76301600D01*
X147134943Y-76393523D01*
X147043019Y-76439485D01*
X146997057Y-76439485D01*
X146905133Y-76393523D01*
X146859171Y-76301600D01*
X146859171Y-76163714D01*
X146905133Y-76071790D01*
X147410714Y-75612171D02*
X147456676Y-75566210D01*
X147502638Y-75612171D01*
X147456676Y-75658133D01*
X147410714Y-75612171D01*
X147502638Y-75612171D01*
X147456676Y-74738895D02*
X147502638Y-74830819D01*
X147502638Y-75014667D01*
X147456676Y-75106591D01*
X147410714Y-75152552D01*
X147318790Y-75198514D01*
X147043019Y-75198514D01*
X146951095Y-75152552D01*
X146905133Y-75106591D01*
X146859171Y-75014667D01*
X146859171Y-74830819D01*
X146905133Y-74738895D01*
X147502638Y-74187353D02*
X147456676Y-74279277D01*
X147410714Y-74325238D01*
X147318790Y-74371200D01*
X147043019Y-74371200D01*
X146951095Y-74325238D01*
X146905133Y-74279277D01*
X146859171Y-74187353D01*
X146859171Y-74049467D01*
X146905133Y-73957543D01*
X146951095Y-73911581D01*
X147043019Y-73865619D01*
X147318790Y-73865619D01*
X147410714Y-73911581D01*
X147456676Y-73957543D01*
X147502638Y-74049467D01*
X147502638Y-74187353D01*
X147502638Y-73451962D02*
X146859171Y-73451962D01*
X146951095Y-73451962D02*
X146905133Y-73406001D01*
X146859171Y-73314077D01*
X146859171Y-73176191D01*
X146905133Y-73084267D01*
X146997057Y-73038305D01*
X147502638Y-73038305D01*
X146997057Y-73038305D02*
X146905133Y-72992343D01*
X146859171Y-72900420D01*
X146859171Y-72762534D01*
X146905133Y-72670610D01*
X146997057Y-72624648D01*
X147502638Y-72624648D01*
X146629362Y-71475601D02*
X146583400Y-71429639D01*
X146537438Y-71337716D01*
X146537438Y-71107906D01*
X146583400Y-71015982D01*
X146629362Y-70970020D01*
X146721286Y-70924059D01*
X146813210Y-70924059D01*
X146951095Y-70970020D01*
X147502638Y-71521563D01*
X147502638Y-70924059D01*
X146537438Y-70326554D02*
X146537438Y-70234630D01*
X146583400Y-70142706D01*
X146629362Y-70096744D01*
X146721286Y-70050782D01*
X146905133Y-70004821D01*
X147134943Y-70004821D01*
X147318790Y-70050782D01*
X147410714Y-70096744D01*
X147456676Y-70142706D01*
X147502638Y-70234630D01*
X147502638Y-70326554D01*
X147456676Y-70418478D01*
X147410714Y-70464440D01*
X147318790Y-70510401D01*
X147134943Y-70556363D01*
X146905133Y-70556363D01*
X146721286Y-70510401D01*
X146629362Y-70464440D01*
X146583400Y-70418478D01*
X146537438Y-70326554D01*
X147502638Y-69085583D02*
X147502638Y-69637125D01*
X147502638Y-69361354D02*
X146537438Y-69361354D01*
X146675324Y-69453278D01*
X146767248Y-69545202D01*
X146813210Y-69637125D01*
X146537438Y-68212306D02*
X146537438Y-68671925D01*
X146997057Y-68717887D01*
X146951095Y-68671925D01*
X146905133Y-68580002D01*
X146905133Y-68350192D01*
X146951095Y-68258268D01*
X146997057Y-68212306D01*
X147088981Y-68166345D01*
X147318790Y-68166345D01*
X147410714Y-68212306D01*
X147456676Y-68258268D01*
X147502638Y-68350192D01*
X147502638Y-68580002D01*
X147456676Y-68671925D01*
X147410714Y-68717887D01*
X117302643Y-97109642D02*
X117357071Y-96946356D01*
X117357071Y-96674213D01*
X117302643Y-96565356D01*
X117248214Y-96510927D01*
X117139357Y-96456499D01*
X117030500Y-96456499D01*
X116921643Y-96510927D01*
X116867214Y-96565356D01*
X116812786Y-96674213D01*
X116758357Y-96891927D01*
X116703929Y-97000785D01*
X116649500Y-97055213D01*
X116540643Y-97109642D01*
X116431786Y-97109642D01*
X116322929Y-97055213D01*
X116268500Y-97000785D01*
X116214071Y-96891927D01*
X116214071Y-96619785D01*
X116268500Y-96456499D01*
X116214071Y-96129928D02*
X116214071Y-95476785D01*
X117357071Y-95803356D02*
X116214071Y-95803356D01*
X117357071Y-95095785D02*
X116214071Y-95095785D01*
X117030500Y-94714785D01*
X116214071Y-94333785D01*
X117357071Y-94333785D01*
X116214071Y-93898356D02*
X116214071Y-93190785D01*
X116649500Y-93571785D01*
X116649500Y-93408499D01*
X116703929Y-93299642D01*
X116758357Y-93245213D01*
X116867214Y-93190785D01*
X117139357Y-93190785D01*
X117248214Y-93245213D01*
X117302643Y-93299642D01*
X117357071Y-93408499D01*
X117357071Y-93735071D01*
X117302643Y-93843928D01*
X117248214Y-93898356D01*
X116322929Y-92755357D02*
X116268500Y-92700928D01*
X116214071Y-92592071D01*
X116214071Y-92319928D01*
X116268500Y-92211071D01*
X116322929Y-92156642D01*
X116431786Y-92102214D01*
X116540643Y-92102214D01*
X116703929Y-92156642D01*
X117357071Y-92809785D01*
X117357071Y-92102214D01*
X117357071Y-90741500D02*
X116214071Y-90741500D01*
X117357071Y-90088357D01*
X116214071Y-90088357D01*
X116595071Y-89054214D02*
X117357071Y-89054214D01*
X116595071Y-89544071D02*
X117193786Y-89544071D01*
X117302643Y-89489643D01*
X117357071Y-89380785D01*
X117357071Y-89217500D01*
X117302643Y-89108643D01*
X117248214Y-89054214D01*
X117302643Y-88020071D02*
X117357071Y-88128928D01*
X117357071Y-88346642D01*
X117302643Y-88455500D01*
X117248214Y-88509928D01*
X117139357Y-88564357D01*
X116812786Y-88564357D01*
X116703929Y-88509928D01*
X116649500Y-88455500D01*
X116595071Y-88346642D01*
X116595071Y-88128928D01*
X116649500Y-88020071D01*
X117357071Y-87366928D02*
X117302643Y-87475786D01*
X117193786Y-87530214D01*
X116214071Y-87530214D01*
X117302643Y-86496072D02*
X117357071Y-86604929D01*
X117357071Y-86822643D01*
X117302643Y-86931500D01*
X117193786Y-86985929D01*
X116758357Y-86985929D01*
X116649500Y-86931500D01*
X116595071Y-86822643D01*
X116595071Y-86604929D01*
X116649500Y-86496072D01*
X116758357Y-86441643D01*
X116867214Y-86441643D01*
X116976071Y-86985929D01*
X117357071Y-85788500D02*
X117302643Y-85897358D01*
X117248214Y-85951786D01*
X117139357Y-86006215D01*
X116812786Y-86006215D01*
X116703929Y-85951786D01*
X116649500Y-85897358D01*
X116595071Y-85788500D01*
X116595071Y-85625215D01*
X116649500Y-85516358D01*
X116703929Y-85461929D01*
X116812786Y-85407500D01*
X117139357Y-85407500D01*
X117248214Y-85461929D01*
X117302643Y-85516358D01*
X117357071Y-85625215D01*
X117357071Y-85788500D01*
X117357071Y-84046786D02*
X116214071Y-84046786D01*
X116214071Y-83611358D01*
X116268500Y-83502500D01*
X116322929Y-83448072D01*
X116431786Y-83393643D01*
X116595071Y-83393643D01*
X116703929Y-83448072D01*
X116758357Y-83502500D01*
X116812786Y-83611358D01*
X116812786Y-84046786D01*
X117357071Y-82903786D02*
X116595071Y-82903786D01*
X116812786Y-82903786D02*
X116703929Y-82849358D01*
X116649500Y-82794929D01*
X116595071Y-82686072D01*
X116595071Y-82577215D01*
X117357071Y-82032929D02*
X117302643Y-82141787D01*
X117248214Y-82196215D01*
X117139357Y-82250644D01*
X116812786Y-82250644D01*
X116703929Y-82196215D01*
X116649500Y-82141787D01*
X116595071Y-82032929D01*
X116595071Y-81869644D01*
X116649500Y-81760787D01*
X116703929Y-81706358D01*
X116812786Y-81651929D01*
X117139357Y-81651929D01*
X117248214Y-81706358D01*
X117302643Y-81760787D01*
X117357071Y-81869644D01*
X117357071Y-82032929D01*
X116595071Y-81325358D02*
X116595071Y-80889929D01*
X116214071Y-81162072D02*
X117193786Y-81162072D01*
X117302643Y-81107644D01*
X117357071Y-80998786D01*
X117357071Y-80889929D01*
X117357071Y-80345643D02*
X117302643Y-80454501D01*
X117248214Y-80508929D01*
X117139357Y-80563358D01*
X116812786Y-80563358D01*
X116703929Y-80508929D01*
X116649500Y-80454501D01*
X116595071Y-80345643D01*
X116595071Y-80182358D01*
X116649500Y-80073501D01*
X116703929Y-80019072D01*
X116812786Y-79964643D01*
X117139357Y-79964643D01*
X117248214Y-80019072D01*
X117302643Y-80073501D01*
X117357071Y-80182358D01*
X117357071Y-80345643D01*
X116595071Y-79638072D02*
X116595071Y-79202643D01*
X116214071Y-79474786D02*
X117193786Y-79474786D01*
X117302643Y-79420358D01*
X117357071Y-79311500D01*
X117357071Y-79202643D01*
X116595071Y-78930500D02*
X117357071Y-78658357D01*
X116595071Y-78386215D02*
X117357071Y-78658357D01*
X117629214Y-78767215D01*
X117683643Y-78821643D01*
X117738071Y-78930500D01*
X116595071Y-77950786D02*
X117738071Y-77950786D01*
X116649500Y-77950786D02*
X116595071Y-77841929D01*
X116595071Y-77624215D01*
X116649500Y-77515358D01*
X116703929Y-77460929D01*
X116812786Y-77406500D01*
X117139357Y-77406500D01*
X117248214Y-77460929D01*
X117302643Y-77515358D01*
X117357071Y-77624215D01*
X117357071Y-77841929D01*
X117302643Y-77950786D01*
X117357071Y-76916643D02*
X116595071Y-76916643D01*
X116214071Y-76916643D02*
X116268500Y-76971072D01*
X116322929Y-76916643D01*
X116268500Y-76862215D01*
X116214071Y-76916643D01*
X116322929Y-76916643D01*
X116595071Y-76372357D02*
X117357071Y-76372357D01*
X116703929Y-76372357D02*
X116649500Y-76317929D01*
X116595071Y-76209071D01*
X116595071Y-76045786D01*
X116649500Y-75936929D01*
X116758357Y-75882500D01*
X117357071Y-75882500D01*
X116595071Y-74848357D02*
X117520357Y-74848357D01*
X117629214Y-74902786D01*
X117683643Y-74957214D01*
X117738071Y-75066071D01*
X117738071Y-75229357D01*
X117683643Y-75338214D01*
X117302643Y-74848357D02*
X117357071Y-74957214D01*
X117357071Y-75174928D01*
X117302643Y-75283786D01*
X117248214Y-75338214D01*
X117139357Y-75392643D01*
X116812786Y-75392643D01*
X116703929Y-75338214D01*
X116649500Y-75283786D01*
X116595071Y-75174928D01*
X116595071Y-74957214D01*
X116649500Y-74848357D01*
X117302643Y-73487643D02*
X117357071Y-73324357D01*
X117357071Y-73052214D01*
X117302643Y-72943357D01*
X117248214Y-72888928D01*
X117139357Y-72834500D01*
X117030500Y-72834500D01*
X116921643Y-72888928D01*
X116867214Y-72943357D01*
X116812786Y-73052214D01*
X116758357Y-73269928D01*
X116703929Y-73378786D01*
X116649500Y-73433214D01*
X116540643Y-73487643D01*
X116431786Y-73487643D01*
X116322929Y-73433214D01*
X116268500Y-73378786D01*
X116214071Y-73269928D01*
X116214071Y-72997786D01*
X116268500Y-72834500D01*
X117357071Y-72344643D02*
X116214071Y-72344643D01*
X117357071Y-71854786D02*
X116758357Y-71854786D01*
X116649500Y-71909215D01*
X116595071Y-72018072D01*
X116595071Y-72181357D01*
X116649500Y-72290215D01*
X116703929Y-72344643D01*
X117357071Y-71310500D02*
X116595071Y-71310500D01*
X116214071Y-71310500D02*
X116268500Y-71364929D01*
X116322929Y-71310500D01*
X116268500Y-71256072D01*
X116214071Y-71310500D01*
X116322929Y-71310500D01*
X117302643Y-70330786D02*
X117357071Y-70439643D01*
X117357071Y-70657357D01*
X117302643Y-70766214D01*
X117193786Y-70820643D01*
X116758357Y-70820643D01*
X116649500Y-70766214D01*
X116595071Y-70657357D01*
X116595071Y-70439643D01*
X116649500Y-70330786D01*
X116758357Y-70276357D01*
X116867214Y-70276357D01*
X116976071Y-70820643D01*
X117357071Y-69623214D02*
X117302643Y-69732072D01*
X117193786Y-69786500D01*
X116214071Y-69786500D01*
X117357071Y-68697929D02*
X116214071Y-68697929D01*
X117302643Y-68697929D02*
X117357071Y-68806786D01*
X117357071Y-69024500D01*
X117302643Y-69133358D01*
X117248214Y-69187786D01*
X117139357Y-69242215D01*
X116812786Y-69242215D01*
X116703929Y-69187786D01*
X116649500Y-69133358D01*
X116595071Y-69024500D01*
X116595071Y-68806786D01*
X116649500Y-68697929D01*
X116595071Y-67391643D02*
X117357071Y-67119500D01*
X116595071Y-66847358D01*
X117357071Y-65813215D02*
X117357071Y-66466358D01*
X117357071Y-66139786D02*
X116214071Y-66139786D01*
X116377357Y-66248643D01*
X116486214Y-66357501D01*
X116540643Y-66466358D01*
X117248214Y-65323358D02*
X117302643Y-65268930D01*
X117357071Y-65323358D01*
X117302643Y-65377787D01*
X117248214Y-65323358D01*
X117357071Y-65323358D01*
X117357071Y-64180358D02*
X117357071Y-64833501D01*
X117357071Y-64506929D02*
X116214071Y-64506929D01*
X116377357Y-64615786D01*
X116486214Y-64724644D01*
X116540643Y-64833501D01*
X168206058Y-103941638D02*
X168206058Y-102976438D01*
X168573753Y-102976438D01*
X168665677Y-103022400D01*
X168711638Y-103068362D01*
X168757600Y-103160286D01*
X168757600Y-103298171D01*
X168711638Y-103390095D01*
X168665677Y-103436057D01*
X168573753Y-103482019D01*
X168206058Y-103482019D01*
X169492991Y-103436057D02*
X169171258Y-103436057D01*
X169171258Y-103941638D02*
X169171258Y-102976438D01*
X169630877Y-102976438D01*
X170412229Y-103298171D02*
X170412229Y-103941638D01*
X170182419Y-102930476D02*
X169952610Y-103619905D01*
X170550114Y-103619905D01*
X168206058Y-101401638D02*
X168206058Y-100436438D01*
X168573753Y-100436438D01*
X168665677Y-100482400D01*
X168711638Y-100528362D01*
X168757600Y-100620286D01*
X168757600Y-100758171D01*
X168711638Y-100850095D01*
X168665677Y-100896057D01*
X168573753Y-100942019D01*
X168206058Y-100942019D01*
X169492991Y-100896057D02*
X169171258Y-100896057D01*
X169171258Y-101401638D02*
X169171258Y-100436438D01*
X169630877Y-100436438D01*
X170458191Y-100436438D02*
X169998572Y-100436438D01*
X169952610Y-100896057D01*
X169998572Y-100850095D01*
X170090495Y-100804133D01*
X170320305Y-100804133D01*
X170412229Y-100850095D01*
X170458191Y-100896057D01*
X170504152Y-100987981D01*
X170504152Y-101217790D01*
X170458191Y-101309714D01*
X170412229Y-101355676D01*
X170320305Y-101401638D01*
X170090495Y-101401638D01*
X169998572Y-101355676D01*
X169952610Y-101309714D01*
X168068172Y-98861638D02*
X168068172Y-97896438D01*
X168435867Y-97896438D01*
X168527791Y-97942400D01*
X168573752Y-97988362D01*
X168619714Y-98080286D01*
X168619714Y-98218171D01*
X168573752Y-98310095D01*
X168527791Y-98356057D01*
X168435867Y-98402019D01*
X168068172Y-98402019D01*
X169584914Y-98769714D02*
X169538952Y-98815676D01*
X169401067Y-98861638D01*
X169309143Y-98861638D01*
X169171257Y-98815676D01*
X169079333Y-98723752D01*
X169033372Y-98631829D01*
X168987410Y-98447981D01*
X168987410Y-98310095D01*
X169033372Y-98126248D01*
X169079333Y-98034324D01*
X169171257Y-97942400D01*
X169309143Y-97896438D01*
X169401067Y-97896438D01*
X169538952Y-97942400D01*
X169584914Y-97988362D01*
X170412229Y-98218171D02*
X170412229Y-98861638D01*
X170182419Y-97850476D02*
X169952610Y-98539905D01*
X170550114Y-98539905D01*
X167102972Y-96045867D02*
X167562591Y-96045867D01*
X167011048Y-96321638D02*
X167332781Y-95356438D01*
X167654514Y-96321638D01*
X168481828Y-95402400D02*
X168389905Y-95356438D01*
X168252019Y-95356438D01*
X168114133Y-95402400D01*
X168022209Y-95494324D01*
X167976248Y-95586248D01*
X167930286Y-95770095D01*
X167930286Y-95907981D01*
X167976248Y-96091829D01*
X168022209Y-96183752D01*
X168114133Y-96275676D01*
X168252019Y-96321638D01*
X168343943Y-96321638D01*
X168481828Y-96275676D01*
X168527790Y-96229714D01*
X168527790Y-95907981D01*
X168343943Y-95907981D01*
X168941448Y-96321638D02*
X168941448Y-95356438D01*
X169492990Y-96321638D01*
X169492990Y-95356438D01*
X169952610Y-96321638D02*
X169952610Y-95356438D01*
X170182419Y-95356438D01*
X170320305Y-95402400D01*
X170412229Y-95494324D01*
X170458190Y-95586248D01*
X170504152Y-95770095D01*
X170504152Y-95907981D01*
X170458190Y-96091829D01*
X170412229Y-96183752D01*
X170320305Y-96275676D01*
X170182419Y-96321638D01*
X169952610Y-96321638D01*
X167148934Y-93781638D02*
X167148934Y-92816438D01*
X167516629Y-92816438D01*
X167608553Y-92862400D01*
X167654514Y-92908362D01*
X167700476Y-93000286D01*
X167700476Y-93138171D01*
X167654514Y-93230095D01*
X167608553Y-93276057D01*
X167516629Y-93322019D01*
X167148934Y-93322019D01*
X168435867Y-93276057D02*
X168573753Y-93322019D01*
X168619714Y-93367981D01*
X168665676Y-93459905D01*
X168665676Y-93597790D01*
X168619714Y-93689714D01*
X168573753Y-93735676D01*
X168481829Y-93781638D01*
X168114134Y-93781638D01*
X168114134Y-92816438D01*
X168435867Y-92816438D01*
X168527791Y-92862400D01*
X168573753Y-92908362D01*
X168619714Y-93000286D01*
X168619714Y-93092210D01*
X168573753Y-93184133D01*
X168527791Y-93230095D01*
X168435867Y-93276057D01*
X168114134Y-93276057D01*
X169584914Y-93781638D02*
X169033372Y-93781638D01*
X169309143Y-93781638D02*
X169309143Y-92816438D01*
X169217219Y-92954324D01*
X169125295Y-93046248D01*
X169033372Y-93092210D01*
X169906648Y-92816438D02*
X170504152Y-92816438D01*
X170182419Y-93184133D01*
X170320305Y-93184133D01*
X170412229Y-93230095D01*
X170458191Y-93276057D01*
X170504152Y-93367981D01*
X170504152Y-93597790D01*
X170458191Y-93689714D01*
X170412229Y-93735676D01*
X170320305Y-93781638D01*
X170044533Y-93781638D01*
X169952610Y-93735676D01*
X169906648Y-93689714D01*
X167148934Y-91241638D02*
X167148934Y-90276438D01*
X167516629Y-90276438D01*
X167608553Y-90322400D01*
X167654514Y-90368362D01*
X167700476Y-90460286D01*
X167700476Y-90598171D01*
X167654514Y-90690095D01*
X167608553Y-90736057D01*
X167516629Y-90782019D01*
X167148934Y-90782019D01*
X168435867Y-90736057D02*
X168573753Y-90782019D01*
X168619714Y-90827981D01*
X168665676Y-90919905D01*
X168665676Y-91057790D01*
X168619714Y-91149714D01*
X168573753Y-91195676D01*
X168481829Y-91241638D01*
X168114134Y-91241638D01*
X168114134Y-90276438D01*
X168435867Y-90276438D01*
X168527791Y-90322400D01*
X168573753Y-90368362D01*
X168619714Y-90460286D01*
X168619714Y-90552210D01*
X168573753Y-90644133D01*
X168527791Y-90690095D01*
X168435867Y-90736057D01*
X168114134Y-90736057D01*
X169584914Y-91241638D02*
X169033372Y-91241638D01*
X169309143Y-91241638D02*
X169309143Y-90276438D01*
X169217219Y-90414324D01*
X169125295Y-90506248D01*
X169033372Y-90552210D01*
X170412229Y-90598171D02*
X170412229Y-91241638D01*
X170182419Y-90230476D02*
X169952610Y-90919905D01*
X170550114Y-90919905D01*
X167148934Y-88701638D02*
X167148934Y-87736438D01*
X167516629Y-87736438D01*
X167608553Y-87782400D01*
X167654514Y-87828362D01*
X167700476Y-87920286D01*
X167700476Y-88058171D01*
X167654514Y-88150095D01*
X167608553Y-88196057D01*
X167516629Y-88242019D01*
X167148934Y-88242019D01*
X168435867Y-88196057D02*
X168573753Y-88242019D01*
X168619714Y-88287981D01*
X168665676Y-88379905D01*
X168665676Y-88517790D01*
X168619714Y-88609714D01*
X168573753Y-88655676D01*
X168481829Y-88701638D01*
X168114134Y-88701638D01*
X168114134Y-87736438D01*
X168435867Y-87736438D01*
X168527791Y-87782400D01*
X168573753Y-87828362D01*
X168619714Y-87920286D01*
X168619714Y-88012210D01*
X168573753Y-88104133D01*
X168527791Y-88150095D01*
X168435867Y-88196057D01*
X168114134Y-88196057D01*
X169584914Y-88701638D02*
X169033372Y-88701638D01*
X169309143Y-88701638D02*
X169309143Y-87736438D01*
X169217219Y-87874324D01*
X169125295Y-87966248D01*
X169033372Y-88012210D01*
X170458191Y-87736438D02*
X169998572Y-87736438D01*
X169952610Y-88196057D01*
X169998572Y-88150095D01*
X170090495Y-88104133D01*
X170320305Y-88104133D01*
X170412229Y-88150095D01*
X170458191Y-88196057D01*
X170504152Y-88287981D01*
X170504152Y-88517790D01*
X170458191Y-88609714D01*
X170412229Y-88655676D01*
X170320305Y-88701638D01*
X170090495Y-88701638D01*
X169998572Y-88655676D01*
X169952610Y-88609714D01*
X168068172Y-86161638D02*
X168068172Y-85196438D01*
X168435867Y-85196438D01*
X168527791Y-85242400D01*
X168573752Y-85288362D01*
X168619714Y-85380286D01*
X168619714Y-85518171D01*
X168573752Y-85610095D01*
X168527791Y-85656057D01*
X168435867Y-85702019D01*
X168068172Y-85702019D01*
X169355105Y-85656057D02*
X169492991Y-85702019D01*
X169538952Y-85747981D01*
X169584914Y-85839905D01*
X169584914Y-85977790D01*
X169538952Y-86069714D01*
X169492991Y-86115676D01*
X169401067Y-86161638D01*
X169033372Y-86161638D01*
X169033372Y-85196438D01*
X169355105Y-85196438D01*
X169447029Y-85242400D01*
X169492991Y-85288362D01*
X169538952Y-85380286D01*
X169538952Y-85472210D01*
X169492991Y-85564133D01*
X169447029Y-85610095D01*
X169355105Y-85656057D01*
X169033372Y-85656057D01*
X170504152Y-86161638D02*
X169952610Y-86161638D01*
X170228381Y-86161638D02*
X170228381Y-85196438D01*
X170136457Y-85334324D01*
X170044533Y-85426248D01*
X169952610Y-85472210D01*
X168068172Y-83621638D02*
X168068172Y-82656438D01*
X168435867Y-82656438D01*
X168527791Y-82702400D01*
X168573752Y-82748362D01*
X168619714Y-82840286D01*
X168619714Y-82978171D01*
X168573752Y-83070095D01*
X168527791Y-83116057D01*
X168435867Y-83162019D01*
X168068172Y-83162019D01*
X169355105Y-83116057D02*
X169492991Y-83162019D01*
X169538952Y-83207981D01*
X169584914Y-83299905D01*
X169584914Y-83437790D01*
X169538952Y-83529714D01*
X169492991Y-83575676D01*
X169401067Y-83621638D01*
X169033372Y-83621638D01*
X169033372Y-82656438D01*
X169355105Y-82656438D01*
X169447029Y-82702400D01*
X169492991Y-82748362D01*
X169538952Y-82840286D01*
X169538952Y-82932210D01*
X169492991Y-83024133D01*
X169447029Y-83070095D01*
X169355105Y-83116057D01*
X169033372Y-83116057D01*
X169952610Y-82748362D02*
X169998572Y-82702400D01*
X170090495Y-82656438D01*
X170320305Y-82656438D01*
X170412229Y-82702400D01*
X170458191Y-82748362D01*
X170504152Y-82840286D01*
X170504152Y-82932210D01*
X170458191Y-83070095D01*
X169906648Y-83621638D01*
X170504152Y-83621638D01*
X168481828Y-80162400D02*
X168389905Y-80116438D01*
X168252019Y-80116438D01*
X168114133Y-80162400D01*
X168022209Y-80254324D01*
X167976248Y-80346248D01*
X167930286Y-80530095D01*
X167930286Y-80667981D01*
X167976248Y-80851829D01*
X168022209Y-80943752D01*
X168114133Y-81035676D01*
X168252019Y-81081638D01*
X168343943Y-81081638D01*
X168481828Y-81035676D01*
X168527790Y-80989714D01*
X168527790Y-80667981D01*
X168343943Y-80667981D01*
X168941448Y-81081638D02*
X168941448Y-80116438D01*
X169492990Y-81081638D01*
X169492990Y-80116438D01*
X169952610Y-81081638D02*
X169952610Y-80116438D01*
X170182419Y-80116438D01*
X170320305Y-80162400D01*
X170412229Y-80254324D01*
X170458190Y-80346248D01*
X170504152Y-80530095D01*
X170504152Y-80667981D01*
X170458190Y-80851829D01*
X170412229Y-80943752D01*
X170320305Y-81035676D01*
X170182419Y-81081638D01*
X169952610Y-81081638D01*
X167148934Y-78541638D02*
X167148934Y-77576438D01*
X167516629Y-77576438D01*
X167608553Y-77622400D01*
X167654514Y-77668362D01*
X167700476Y-77760286D01*
X167700476Y-77898171D01*
X167654514Y-77990095D01*
X167608553Y-78036057D01*
X167516629Y-78082019D01*
X167148934Y-78082019D01*
X168435867Y-78036057D02*
X168573753Y-78082019D01*
X168619714Y-78127981D01*
X168665676Y-78219905D01*
X168665676Y-78357790D01*
X168619714Y-78449714D01*
X168573753Y-78495676D01*
X168481829Y-78541638D01*
X168114134Y-78541638D01*
X168114134Y-77576438D01*
X168435867Y-77576438D01*
X168527791Y-77622400D01*
X168573753Y-77668362D01*
X168619714Y-77760286D01*
X168619714Y-77852210D01*
X168573753Y-77944133D01*
X168527791Y-77990095D01*
X168435867Y-78036057D01*
X168114134Y-78036057D01*
X169584914Y-78541638D02*
X169033372Y-78541638D01*
X169309143Y-78541638D02*
X169309143Y-77576438D01*
X169217219Y-77714324D01*
X169125295Y-77806248D01*
X169033372Y-77852210D01*
X170504152Y-78541638D02*
X169952610Y-78541638D01*
X170228381Y-78541638D02*
X170228381Y-77576438D01*
X170136457Y-77714324D01*
X170044533Y-77806248D01*
X169952610Y-77852210D01*
X167148934Y-76001638D02*
X167148934Y-75036438D01*
X167516629Y-75036438D01*
X167608553Y-75082400D01*
X167654514Y-75128362D01*
X167700476Y-75220286D01*
X167700476Y-75358171D01*
X167654514Y-75450095D01*
X167608553Y-75496057D01*
X167516629Y-75542019D01*
X167148934Y-75542019D01*
X168435867Y-75496057D02*
X168573753Y-75542019D01*
X168619714Y-75587981D01*
X168665676Y-75679905D01*
X168665676Y-75817790D01*
X168619714Y-75909714D01*
X168573753Y-75955676D01*
X168481829Y-76001638D01*
X168114134Y-76001638D01*
X168114134Y-75036438D01*
X168435867Y-75036438D01*
X168527791Y-75082400D01*
X168573753Y-75128362D01*
X168619714Y-75220286D01*
X168619714Y-75312210D01*
X168573753Y-75404133D01*
X168527791Y-75450095D01*
X168435867Y-75496057D01*
X168114134Y-75496057D01*
X169584914Y-76001638D02*
X169033372Y-76001638D01*
X169309143Y-76001638D02*
X169309143Y-75036438D01*
X169217219Y-75174324D01*
X169125295Y-75266248D01*
X169033372Y-75312210D01*
X169952610Y-75128362D02*
X169998572Y-75082400D01*
X170090495Y-75036438D01*
X170320305Y-75036438D01*
X170412229Y-75082400D01*
X170458191Y-75128362D01*
X170504152Y-75220286D01*
X170504152Y-75312210D01*
X170458191Y-75450095D01*
X169906648Y-76001638D01*
X170504152Y-76001638D01*
X167286820Y-73461638D02*
X167286820Y-72496438D01*
X167654515Y-72496438D01*
X167746439Y-72542400D01*
X167792400Y-72588362D01*
X167838362Y-72680286D01*
X167838362Y-72818171D01*
X167792400Y-72910095D01*
X167746439Y-72956057D01*
X167654515Y-73002019D01*
X167286820Y-73002019D01*
X168206058Y-73185867D02*
X168665677Y-73185867D01*
X168114134Y-73461638D02*
X168435867Y-72496438D01*
X168757600Y-73461638D01*
X169584914Y-73461638D02*
X169033372Y-73461638D01*
X169309143Y-73461638D02*
X169309143Y-72496438D01*
X169217219Y-72634324D01*
X169125295Y-72726248D01*
X169033372Y-72772210D01*
X170504152Y-73461638D02*
X169952610Y-73461638D01*
X170228381Y-73461638D02*
X170228381Y-72496438D01*
X170136457Y-72634324D01*
X170044533Y-72726248D01*
X169952610Y-72772210D01*
X167286820Y-70921638D02*
X167286820Y-69956438D01*
X167654515Y-69956438D01*
X167746439Y-70002400D01*
X167792400Y-70048362D01*
X167838362Y-70140286D01*
X167838362Y-70278171D01*
X167792400Y-70370095D01*
X167746439Y-70416057D01*
X167654515Y-70462019D01*
X167286820Y-70462019D01*
X168206058Y-70645867D02*
X168665677Y-70645867D01*
X168114134Y-70921638D02*
X168435867Y-69956438D01*
X168757600Y-70921638D01*
X169584914Y-70921638D02*
X169033372Y-70921638D01*
X169309143Y-70921638D02*
X169309143Y-69956438D01*
X169217219Y-70094324D01*
X169125295Y-70186248D01*
X169033372Y-70232210D01*
X169952610Y-70048362D02*
X169998572Y-70002400D01*
X170090495Y-69956438D01*
X170320305Y-69956438D01*
X170412229Y-70002400D01*
X170458191Y-70048362D01*
X170504152Y-70140286D01*
X170504152Y-70232210D01*
X170458191Y-70370095D01*
X169906648Y-70921638D01*
X170504152Y-70921638D01*
X168160096Y-64876438D02*
X168160096Y-65657790D01*
X168206057Y-65749714D01*
X168252019Y-65795676D01*
X168343943Y-65841638D01*
X168527791Y-65841638D01*
X168619715Y-65795676D01*
X168665676Y-65749714D01*
X168711638Y-65657790D01*
X168711638Y-64876438D01*
X169630877Y-64876438D02*
X169171258Y-64876438D01*
X169125296Y-65336057D01*
X169171258Y-65290095D01*
X169263181Y-65244133D01*
X169492991Y-65244133D01*
X169584915Y-65290095D01*
X169630877Y-65336057D01*
X169676838Y-65427981D01*
X169676838Y-65657790D01*
X169630877Y-65749714D01*
X169584915Y-65795676D01*
X169492991Y-65841638D01*
X169263181Y-65841638D01*
X169171258Y-65795676D01*
X169125296Y-65749714D01*
X169952610Y-64876438D02*
X170274343Y-65841638D01*
X170596076Y-64876438D01*
X168068172Y-63301638D02*
X168068172Y-62336438D01*
X168435867Y-62336438D01*
X168527791Y-62382400D01*
X168573752Y-62428362D01*
X168619714Y-62520286D01*
X168619714Y-62658171D01*
X168573752Y-62750095D01*
X168527791Y-62796057D01*
X168435867Y-62842019D01*
X168068172Y-62842019D01*
X169584914Y-63209714D02*
X169538952Y-63255676D01*
X169401067Y-63301638D01*
X169309143Y-63301638D01*
X169171257Y-63255676D01*
X169079333Y-63163752D01*
X169033372Y-63071829D01*
X168987410Y-62887981D01*
X168987410Y-62750095D01*
X169033372Y-62566248D01*
X169079333Y-62474324D01*
X169171257Y-62382400D01*
X169309143Y-62336438D01*
X169401067Y-62336438D01*
X169538952Y-62382400D01*
X169584914Y-62428362D01*
X170458191Y-62336438D02*
X169998572Y-62336438D01*
X169952610Y-62796057D01*
X169998572Y-62750095D01*
X170090495Y-62704133D01*
X170320305Y-62704133D01*
X170412229Y-62750095D01*
X170458191Y-62796057D01*
X170504152Y-62887981D01*
X170504152Y-63117790D01*
X170458191Y-63209714D01*
X170412229Y-63255676D01*
X170320305Y-63301638D01*
X170090495Y-63301638D01*
X169998572Y-63255676D01*
X169952610Y-63209714D01*
X168068172Y-60761638D02*
X168068172Y-59796438D01*
X168435867Y-59796438D01*
X168527791Y-59842400D01*
X168573752Y-59888362D01*
X168619714Y-59980286D01*
X168619714Y-60118171D01*
X168573752Y-60210095D01*
X168527791Y-60256057D01*
X168435867Y-60302019D01*
X168068172Y-60302019D01*
X169584914Y-60669714D02*
X169538952Y-60715676D01*
X169401067Y-60761638D01*
X169309143Y-60761638D01*
X169171257Y-60715676D01*
X169079333Y-60623752D01*
X169033372Y-60531829D01*
X168987410Y-60347981D01*
X168987410Y-60210095D01*
X169033372Y-60026248D01*
X169079333Y-59934324D01*
X169171257Y-59842400D01*
X169309143Y-59796438D01*
X169401067Y-59796438D01*
X169538952Y-59842400D01*
X169584914Y-59888362D01*
X170412229Y-59796438D02*
X170228381Y-59796438D01*
X170136457Y-59842400D01*
X170090495Y-59888362D01*
X169998572Y-60026248D01*
X169952610Y-60210095D01*
X169952610Y-60577790D01*
X169998572Y-60669714D01*
X170044533Y-60715676D01*
X170136457Y-60761638D01*
X170320305Y-60761638D01*
X170412229Y-60715676D01*
X170458191Y-60669714D01*
X170504152Y-60577790D01*
X170504152Y-60347981D01*
X170458191Y-60256057D01*
X170412229Y-60210095D01*
X170320305Y-60164133D01*
X170136457Y-60164133D01*
X170044533Y-60210095D01*
X169998572Y-60256057D01*
X169952610Y-60347981D01*
X168068172Y-58221638D02*
X168068172Y-57256438D01*
X168435867Y-57256438D01*
X168527791Y-57302400D01*
X168573752Y-57348362D01*
X168619714Y-57440286D01*
X168619714Y-57578171D01*
X168573752Y-57670095D01*
X168527791Y-57716057D01*
X168435867Y-57762019D01*
X168068172Y-57762019D01*
X169584914Y-58129714D02*
X169538952Y-58175676D01*
X169401067Y-58221638D01*
X169309143Y-58221638D01*
X169171257Y-58175676D01*
X169079333Y-58083752D01*
X169033372Y-57991829D01*
X168987410Y-57807981D01*
X168987410Y-57670095D01*
X169033372Y-57486248D01*
X169079333Y-57394324D01*
X169171257Y-57302400D01*
X169309143Y-57256438D01*
X169401067Y-57256438D01*
X169538952Y-57302400D01*
X169584914Y-57348362D01*
X170136457Y-57670095D02*
X170044533Y-57624133D01*
X169998572Y-57578171D01*
X169952610Y-57486248D01*
X169952610Y-57440286D01*
X169998572Y-57348362D01*
X170044533Y-57302400D01*
X170136457Y-57256438D01*
X170320305Y-57256438D01*
X170412229Y-57302400D01*
X170458191Y-57348362D01*
X170504152Y-57440286D01*
X170504152Y-57486248D01*
X170458191Y-57578171D01*
X170412229Y-57624133D01*
X170320305Y-57670095D01*
X170136457Y-57670095D01*
X170044533Y-57716057D01*
X169998572Y-57762019D01*
X169952610Y-57853943D01*
X169952610Y-58037790D01*
X169998572Y-58129714D01*
X170044533Y-58175676D01*
X170136457Y-58221638D01*
X170320305Y-58221638D01*
X170412229Y-58175676D01*
X170458191Y-58129714D01*
X170504152Y-58037790D01*
X170504152Y-57853943D01*
X170458191Y-57762019D01*
X170412229Y-57716057D01*
X170320305Y-57670095D01*
X154661810Y-103941638D02*
X154661810Y-102976438D01*
X155029505Y-102976438D01*
X155121429Y-103022400D01*
X155167390Y-103068362D01*
X155213352Y-103160286D01*
X155213352Y-103298171D01*
X155167390Y-103390095D01*
X155121429Y-103436057D01*
X155029505Y-103482019D01*
X154661810Y-103482019D01*
X155581048Y-103665867D02*
X156040667Y-103665867D01*
X155489124Y-103941638D02*
X155810857Y-102976438D01*
X156132590Y-103941638D01*
X156362400Y-102976438D02*
X156959904Y-102976438D01*
X156638171Y-103344133D01*
X156776057Y-103344133D01*
X156867981Y-103390095D01*
X156913943Y-103436057D01*
X156959904Y-103527981D01*
X156959904Y-103757790D01*
X156913943Y-103849714D01*
X156867981Y-103895676D01*
X156776057Y-103941638D01*
X156500285Y-103941638D01*
X156408362Y-103895676D01*
X156362400Y-103849714D01*
X154661810Y-101401638D02*
X154661810Y-100436438D01*
X155029505Y-100436438D01*
X155121429Y-100482400D01*
X155167390Y-100528362D01*
X155213352Y-100620286D01*
X155213352Y-100758171D01*
X155167390Y-100850095D01*
X155121429Y-100896057D01*
X155029505Y-100942019D01*
X154661810Y-100942019D01*
X155581048Y-101125867D02*
X156040667Y-101125867D01*
X155489124Y-101401638D02*
X155810857Y-100436438D01*
X156132590Y-101401638D01*
X156408362Y-100528362D02*
X156454324Y-100482400D01*
X156546247Y-100436438D01*
X156776057Y-100436438D01*
X156867981Y-100482400D01*
X156913943Y-100528362D01*
X156959904Y-100620286D01*
X156959904Y-100712210D01*
X156913943Y-100850095D01*
X156362400Y-101401638D01*
X156959904Y-101401638D01*
X154661810Y-98861638D02*
X154661810Y-97896438D01*
X155029505Y-97896438D01*
X155121429Y-97942400D01*
X155167390Y-97988362D01*
X155213352Y-98080286D01*
X155213352Y-98218171D01*
X155167390Y-98310095D01*
X155121429Y-98356057D01*
X155029505Y-98402019D01*
X154661810Y-98402019D01*
X155581048Y-98585867D02*
X156040667Y-98585867D01*
X155489124Y-98861638D02*
X155810857Y-97896438D01*
X156132590Y-98861638D01*
X156959904Y-98861638D02*
X156408362Y-98861638D01*
X156684133Y-98861638D02*
X156684133Y-97896438D01*
X156592209Y-98034324D01*
X156500285Y-98126248D01*
X156408362Y-98172210D01*
X157557409Y-97896438D02*
X157649333Y-97896438D01*
X157741257Y-97942400D01*
X157787219Y-97988362D01*
X157833181Y-98080286D01*
X157879142Y-98264133D01*
X157879142Y-98493943D01*
X157833181Y-98677790D01*
X157787219Y-98769714D01*
X157741257Y-98815676D01*
X157649333Y-98861638D01*
X157557409Y-98861638D01*
X157465485Y-98815676D01*
X157419523Y-98769714D01*
X157373562Y-98677790D01*
X157327600Y-98493943D01*
X157327600Y-98264133D01*
X157373562Y-98080286D01*
X157419523Y-97988362D01*
X157465485Y-97942400D01*
X157557409Y-97896438D01*
X154661810Y-96321638D02*
X154661810Y-95356438D01*
X155029505Y-95356438D01*
X155121429Y-95402400D01*
X155167390Y-95448362D01*
X155213352Y-95540286D01*
X155213352Y-95678171D01*
X155167390Y-95770095D01*
X155121429Y-95816057D01*
X155029505Y-95862019D01*
X154661810Y-95862019D01*
X155948743Y-95816057D02*
X156086629Y-95862019D01*
X156132590Y-95907981D01*
X156178552Y-95999905D01*
X156178552Y-96137790D01*
X156132590Y-96229714D01*
X156086629Y-96275676D01*
X155994705Y-96321638D01*
X155627010Y-96321638D01*
X155627010Y-95356438D01*
X155948743Y-95356438D01*
X156040667Y-95402400D01*
X156086629Y-95448362D01*
X156132590Y-95540286D01*
X156132590Y-95632210D01*
X156086629Y-95724133D01*
X156040667Y-95770095D01*
X155948743Y-95816057D01*
X155627010Y-95816057D01*
X156500286Y-95356438D02*
X157097790Y-95356438D01*
X156776057Y-95724133D01*
X156913943Y-95724133D01*
X157005867Y-95770095D01*
X157051829Y-95816057D01*
X157097790Y-95907981D01*
X157097790Y-96137790D01*
X157051829Y-96229714D01*
X157005867Y-96275676D01*
X156913943Y-96321638D01*
X156638171Y-96321638D01*
X156546248Y-96275676D01*
X156500286Y-96229714D01*
X154661810Y-93781638D02*
X154661810Y-92816438D01*
X155029505Y-92816438D01*
X155121429Y-92862400D01*
X155167390Y-92908362D01*
X155213352Y-93000286D01*
X155213352Y-93138171D01*
X155167390Y-93230095D01*
X155121429Y-93276057D01*
X155029505Y-93322019D01*
X154661810Y-93322019D01*
X155948743Y-93276057D02*
X156086629Y-93322019D01*
X156132590Y-93367981D01*
X156178552Y-93459905D01*
X156178552Y-93597790D01*
X156132590Y-93689714D01*
X156086629Y-93735676D01*
X155994705Y-93781638D01*
X155627010Y-93781638D01*
X155627010Y-92816438D01*
X155948743Y-92816438D01*
X156040667Y-92862400D01*
X156086629Y-92908362D01*
X156132590Y-93000286D01*
X156132590Y-93092210D01*
X156086629Y-93184133D01*
X156040667Y-93230095D01*
X155948743Y-93276057D01*
X155627010Y-93276057D01*
X157051829Y-92816438D02*
X156592210Y-92816438D01*
X156546248Y-93276057D01*
X156592210Y-93230095D01*
X156684133Y-93184133D01*
X156913943Y-93184133D01*
X157005867Y-93230095D01*
X157051829Y-93276057D01*
X157097790Y-93367981D01*
X157097790Y-93597790D01*
X157051829Y-93689714D01*
X157005867Y-93735676D01*
X156913943Y-93781638D01*
X156684133Y-93781638D01*
X156592210Y-93735676D01*
X156546248Y-93689714D01*
X154661810Y-91241638D02*
X154661810Y-90276438D01*
X155029505Y-90276438D01*
X155121429Y-90322400D01*
X155167390Y-90368362D01*
X155213352Y-90460286D01*
X155213352Y-90598171D01*
X155167390Y-90690095D01*
X155121429Y-90736057D01*
X155029505Y-90782019D01*
X154661810Y-90782019D01*
X155948743Y-90736057D02*
X156086629Y-90782019D01*
X156132590Y-90827981D01*
X156178552Y-90919905D01*
X156178552Y-91057790D01*
X156132590Y-91149714D01*
X156086629Y-91195676D01*
X155994705Y-91241638D01*
X155627010Y-91241638D01*
X155627010Y-90276438D01*
X155948743Y-90276438D01*
X156040667Y-90322400D01*
X156086629Y-90368362D01*
X156132590Y-90460286D01*
X156132590Y-90552210D01*
X156086629Y-90644133D01*
X156040667Y-90690095D01*
X155948743Y-90736057D01*
X155627010Y-90736057D01*
X157005867Y-90598171D02*
X157005867Y-91241638D01*
X156776057Y-90230476D02*
X156546248Y-90919905D01*
X157143752Y-90919905D01*
X154661810Y-88701638D02*
X154661810Y-87736438D01*
X155029505Y-87736438D01*
X155121429Y-87782400D01*
X155167390Y-87828362D01*
X155213352Y-87920286D01*
X155213352Y-88058171D01*
X155167390Y-88150095D01*
X155121429Y-88196057D01*
X155029505Y-88242019D01*
X154661810Y-88242019D01*
X155948743Y-88196057D02*
X156086629Y-88242019D01*
X156132590Y-88287981D01*
X156178552Y-88379905D01*
X156178552Y-88517790D01*
X156132590Y-88609714D01*
X156086629Y-88655676D01*
X155994705Y-88701638D01*
X155627010Y-88701638D01*
X155627010Y-87736438D01*
X155948743Y-87736438D01*
X156040667Y-87782400D01*
X156086629Y-87828362D01*
X156132590Y-87920286D01*
X156132590Y-88012210D01*
X156086629Y-88104133D01*
X156040667Y-88150095D01*
X155948743Y-88196057D01*
X155627010Y-88196057D01*
X157097790Y-88701638D02*
X156546248Y-88701638D01*
X156822019Y-88701638D02*
X156822019Y-87736438D01*
X156730095Y-87874324D01*
X156638171Y-87966248D01*
X156546248Y-88012210D01*
X157695295Y-87736438D02*
X157787219Y-87736438D01*
X157879143Y-87782400D01*
X157925105Y-87828362D01*
X157971067Y-87920286D01*
X158017028Y-88104133D01*
X158017028Y-88333943D01*
X157971067Y-88517790D01*
X157925105Y-88609714D01*
X157879143Y-88655676D01*
X157787219Y-88701638D01*
X157695295Y-88701638D01*
X157603371Y-88655676D01*
X157557409Y-88609714D01*
X157511448Y-88517790D01*
X157465486Y-88333943D01*
X157465486Y-88104133D01*
X157511448Y-87920286D01*
X157557409Y-87828362D01*
X157603371Y-87782400D01*
X157695295Y-87736438D01*
X154661810Y-86161638D02*
X154661810Y-85196438D01*
X155029505Y-85196438D01*
X155121429Y-85242400D01*
X155167390Y-85288362D01*
X155213352Y-85380286D01*
X155213352Y-85518171D01*
X155167390Y-85610095D01*
X155121429Y-85656057D01*
X155029505Y-85702019D01*
X154661810Y-85702019D01*
X155581048Y-85885867D02*
X156040667Y-85885867D01*
X155489124Y-86161638D02*
X155810857Y-85196438D01*
X156132590Y-86161638D01*
X156592209Y-85610095D02*
X156500285Y-85564133D01*
X156454324Y-85518171D01*
X156408362Y-85426248D01*
X156408362Y-85380286D01*
X156454324Y-85288362D01*
X156500285Y-85242400D01*
X156592209Y-85196438D01*
X156776057Y-85196438D01*
X156867981Y-85242400D01*
X156913943Y-85288362D01*
X156959904Y-85380286D01*
X156959904Y-85426248D01*
X156913943Y-85518171D01*
X156867981Y-85564133D01*
X156776057Y-85610095D01*
X156592209Y-85610095D01*
X156500285Y-85656057D01*
X156454324Y-85702019D01*
X156408362Y-85793943D01*
X156408362Y-85977790D01*
X156454324Y-86069714D01*
X156500285Y-86115676D01*
X156592209Y-86161638D01*
X156776057Y-86161638D01*
X156867981Y-86115676D01*
X156913943Y-86069714D01*
X156959904Y-85977790D01*
X156959904Y-85793943D01*
X156913943Y-85702019D01*
X156867981Y-85656057D01*
X156776057Y-85610095D01*
X154661810Y-83621638D02*
X154661810Y-82656438D01*
X155029505Y-82656438D01*
X155121429Y-82702400D01*
X155167390Y-82748362D01*
X155213352Y-82840286D01*
X155213352Y-82978171D01*
X155167390Y-83070095D01*
X155121429Y-83116057D01*
X155029505Y-83162019D01*
X154661810Y-83162019D01*
X155581048Y-83345867D02*
X156040667Y-83345867D01*
X155489124Y-83621638D02*
X155810857Y-82656438D01*
X156132590Y-83621638D01*
X156500285Y-83621638D02*
X156684133Y-83621638D01*
X156776057Y-83575676D01*
X156822019Y-83529714D01*
X156913943Y-83391829D01*
X156959904Y-83207981D01*
X156959904Y-82840286D01*
X156913943Y-82748362D01*
X156867981Y-82702400D01*
X156776057Y-82656438D01*
X156592209Y-82656438D01*
X156500285Y-82702400D01*
X156454324Y-82748362D01*
X156408362Y-82840286D01*
X156408362Y-83070095D01*
X156454324Y-83162019D01*
X156500285Y-83207981D01*
X156592209Y-83253943D01*
X156776057Y-83253943D01*
X156867981Y-83207981D01*
X156913943Y-83162019D01*
X156959904Y-83070095D01*
X154661810Y-81081638D02*
X154661810Y-80116438D01*
X155029505Y-80116438D01*
X155121429Y-80162400D01*
X155167390Y-80208362D01*
X155213352Y-80300286D01*
X155213352Y-80438171D01*
X155167390Y-80530095D01*
X155121429Y-80576057D01*
X155029505Y-80622019D01*
X154661810Y-80622019D01*
X156178552Y-80989714D02*
X156132590Y-81035676D01*
X155994705Y-81081638D01*
X155902781Y-81081638D01*
X155764895Y-81035676D01*
X155672971Y-80943752D01*
X155627010Y-80851829D01*
X155581048Y-80667981D01*
X155581048Y-80530095D01*
X155627010Y-80346248D01*
X155672971Y-80254324D01*
X155764895Y-80162400D01*
X155902781Y-80116438D01*
X155994705Y-80116438D01*
X156132590Y-80162400D01*
X156178552Y-80208362D01*
X156500286Y-80116438D02*
X157143752Y-80116438D01*
X156730095Y-81081638D01*
X154661810Y-78541638D02*
X154661810Y-77576438D01*
X155029505Y-77576438D01*
X155121429Y-77622400D01*
X155167390Y-77668362D01*
X155213352Y-77760286D01*
X155213352Y-77898171D01*
X155167390Y-77990095D01*
X155121429Y-78036057D01*
X155029505Y-78082019D01*
X154661810Y-78082019D01*
X155948743Y-78036057D02*
X156086629Y-78082019D01*
X156132590Y-78127981D01*
X156178552Y-78219905D01*
X156178552Y-78357790D01*
X156132590Y-78449714D01*
X156086629Y-78495676D01*
X155994705Y-78541638D01*
X155627010Y-78541638D01*
X155627010Y-77576438D01*
X155948743Y-77576438D01*
X156040667Y-77622400D01*
X156086629Y-77668362D01*
X156132590Y-77760286D01*
X156132590Y-77852210D01*
X156086629Y-77944133D01*
X156040667Y-77990095D01*
X155948743Y-78036057D01*
X155627010Y-78036057D01*
X157005867Y-77576438D02*
X156822019Y-77576438D01*
X156730095Y-77622400D01*
X156684133Y-77668362D01*
X156592210Y-77806248D01*
X156546248Y-77990095D01*
X156546248Y-78357790D01*
X156592210Y-78449714D01*
X156638171Y-78495676D01*
X156730095Y-78541638D01*
X156913943Y-78541638D01*
X157005867Y-78495676D01*
X157051829Y-78449714D01*
X157097790Y-78357790D01*
X157097790Y-78127981D01*
X157051829Y-78036057D01*
X157005867Y-77990095D01*
X156913943Y-77944133D01*
X156730095Y-77944133D01*
X156638171Y-77990095D01*
X156592210Y-78036057D01*
X156546248Y-78127981D01*
X154661810Y-76001638D02*
X154661810Y-75036438D01*
X155029505Y-75036438D01*
X155121429Y-75082400D01*
X155167390Y-75128362D01*
X155213352Y-75220286D01*
X155213352Y-75358171D01*
X155167390Y-75450095D01*
X155121429Y-75496057D01*
X155029505Y-75542019D01*
X154661810Y-75542019D01*
X155581048Y-75725867D02*
X156040667Y-75725867D01*
X155489124Y-76001638D02*
X155810857Y-75036438D01*
X156132590Y-76001638D01*
X156362400Y-75036438D02*
X157005866Y-75036438D01*
X156592209Y-76001638D01*
X154661810Y-73461638D02*
X154661810Y-72496438D01*
X155029505Y-72496438D01*
X155121429Y-72542400D01*
X155167390Y-72588362D01*
X155213352Y-72680286D01*
X155213352Y-72818171D01*
X155167390Y-72910095D01*
X155121429Y-72956057D01*
X155029505Y-73002019D01*
X154661810Y-73002019D01*
X155581048Y-73185867D02*
X156040667Y-73185867D01*
X155489124Y-73461638D02*
X155810857Y-72496438D01*
X156132590Y-73461638D01*
X156867981Y-72496438D02*
X156684133Y-72496438D01*
X156592209Y-72542400D01*
X156546247Y-72588362D01*
X156454324Y-72726248D01*
X156408362Y-72910095D01*
X156408362Y-73277790D01*
X156454324Y-73369714D01*
X156500285Y-73415676D01*
X156592209Y-73461638D01*
X156776057Y-73461638D01*
X156867981Y-73415676D01*
X156913943Y-73369714D01*
X156959904Y-73277790D01*
X156959904Y-73047981D01*
X156913943Y-72956057D01*
X156867981Y-72910095D01*
X156776057Y-72864133D01*
X156592209Y-72864133D01*
X156500285Y-72910095D01*
X156454324Y-72956057D01*
X156408362Y-73047981D01*
X154661810Y-70921638D02*
X154661810Y-69956438D01*
X155029505Y-69956438D01*
X155121429Y-70002400D01*
X155167390Y-70048362D01*
X155213352Y-70140286D01*
X155213352Y-70278171D01*
X155167390Y-70370095D01*
X155121429Y-70416057D01*
X155029505Y-70462019D01*
X154661810Y-70462019D01*
X155581048Y-70645867D02*
X156040667Y-70645867D01*
X155489124Y-70921638D02*
X155810857Y-69956438D01*
X156132590Y-70921638D01*
X156913943Y-69956438D02*
X156454324Y-69956438D01*
X156408362Y-70416057D01*
X156454324Y-70370095D01*
X156546247Y-70324133D01*
X156776057Y-70324133D01*
X156867981Y-70370095D01*
X156913943Y-70416057D01*
X156959904Y-70507981D01*
X156959904Y-70737790D01*
X156913943Y-70829714D01*
X156867981Y-70875676D01*
X156776057Y-70921638D01*
X156546247Y-70921638D01*
X156454324Y-70875676D01*
X156408362Y-70829714D01*
X155167390Y-67462400D02*
X155075467Y-67416438D01*
X154937581Y-67416438D01*
X154799695Y-67462400D01*
X154707771Y-67554324D01*
X154661810Y-67646248D01*
X154615848Y-67830095D01*
X154615848Y-67967981D01*
X154661810Y-68151829D01*
X154707771Y-68243752D01*
X154799695Y-68335676D01*
X154937581Y-68381638D01*
X155029505Y-68381638D01*
X155167390Y-68335676D01*
X155213352Y-68289714D01*
X155213352Y-67967981D01*
X155029505Y-67967981D01*
X155627010Y-68381638D02*
X155627010Y-67416438D01*
X156178552Y-68381638D01*
X156178552Y-67416438D01*
X156638172Y-68381638D02*
X156638172Y-67416438D01*
X156867981Y-67416438D01*
X157005867Y-67462400D01*
X157097791Y-67554324D01*
X157143752Y-67646248D01*
X157189714Y-67830095D01*
X157189714Y-67967981D01*
X157143752Y-68151829D01*
X157097791Y-68243752D01*
X157005867Y-68335676D01*
X156867981Y-68381638D01*
X156638172Y-68381638D01*
X154615848Y-65565867D02*
X155075467Y-65565867D01*
X154523924Y-65841638D02*
X154845657Y-64876438D01*
X155167390Y-65841638D01*
X155351238Y-64876438D02*
X155672971Y-65841638D01*
X155994704Y-64876438D01*
X156316438Y-65841638D02*
X156316438Y-64876438D01*
X156546247Y-64876438D01*
X156684133Y-64922400D01*
X156776057Y-65014324D01*
X156822018Y-65106248D01*
X156867980Y-65290095D01*
X156867980Y-65427981D01*
X156822018Y-65611829D01*
X156776057Y-65703752D01*
X156684133Y-65795676D01*
X156546247Y-65841638D01*
X156316438Y-65841638D01*
X157281638Y-65841638D02*
X157281638Y-64876438D01*
X157511447Y-64876438D01*
X157649333Y-64922400D01*
X157741257Y-65014324D01*
X157787218Y-65106248D01*
X157833180Y-65290095D01*
X157833180Y-65427981D01*
X157787218Y-65611829D01*
X157741257Y-65703752D01*
X157649333Y-65795676D01*
X157511447Y-65841638D01*
X157281638Y-65841638D01*
X154661810Y-63301638D02*
X154661810Y-62336438D01*
X155029505Y-62336438D01*
X155121429Y-62382400D01*
X155167390Y-62428362D01*
X155213352Y-62520286D01*
X155213352Y-62658171D01*
X155167390Y-62750095D01*
X155121429Y-62796057D01*
X155029505Y-62842019D01*
X154661810Y-62842019D01*
X155948743Y-62796057D02*
X156086629Y-62842019D01*
X156132590Y-62887981D01*
X156178552Y-62979905D01*
X156178552Y-63117790D01*
X156132590Y-63209714D01*
X156086629Y-63255676D01*
X155994705Y-63301638D01*
X155627010Y-63301638D01*
X155627010Y-62336438D01*
X155948743Y-62336438D01*
X156040667Y-62382400D01*
X156086629Y-62428362D01*
X156132590Y-62520286D01*
X156132590Y-62612210D01*
X156086629Y-62704133D01*
X156040667Y-62750095D01*
X155948743Y-62796057D01*
X155627010Y-62796057D01*
X156638171Y-63301638D02*
X156822019Y-63301638D01*
X156913943Y-63255676D01*
X156959905Y-63209714D01*
X157051829Y-63071829D01*
X157097790Y-62887981D01*
X157097790Y-62520286D01*
X157051829Y-62428362D01*
X157005867Y-62382400D01*
X156913943Y-62336438D01*
X156730095Y-62336438D01*
X156638171Y-62382400D01*
X156592210Y-62428362D01*
X156546248Y-62520286D01*
X156546248Y-62750095D01*
X156592210Y-62842019D01*
X156638171Y-62887981D01*
X156730095Y-62933943D01*
X156913943Y-62933943D01*
X157005867Y-62887981D01*
X157051829Y-62842019D01*
X157097790Y-62750095D01*
X154661810Y-60761638D02*
X154661810Y-59796438D01*
X155029505Y-59796438D01*
X155121429Y-59842400D01*
X155167390Y-59888362D01*
X155213352Y-59980286D01*
X155213352Y-60118171D01*
X155167390Y-60210095D01*
X155121429Y-60256057D01*
X155029505Y-60302019D01*
X154661810Y-60302019D01*
X155948743Y-60256057D02*
X156086629Y-60302019D01*
X156132590Y-60347981D01*
X156178552Y-60439905D01*
X156178552Y-60577790D01*
X156132590Y-60669714D01*
X156086629Y-60715676D01*
X155994705Y-60761638D01*
X155627010Y-60761638D01*
X155627010Y-59796438D01*
X155948743Y-59796438D01*
X156040667Y-59842400D01*
X156086629Y-59888362D01*
X156132590Y-59980286D01*
X156132590Y-60072210D01*
X156086629Y-60164133D01*
X156040667Y-60210095D01*
X155948743Y-60256057D01*
X155627010Y-60256057D01*
X156730095Y-60210095D02*
X156638171Y-60164133D01*
X156592210Y-60118171D01*
X156546248Y-60026248D01*
X156546248Y-59980286D01*
X156592210Y-59888362D01*
X156638171Y-59842400D01*
X156730095Y-59796438D01*
X156913943Y-59796438D01*
X157005867Y-59842400D01*
X157051829Y-59888362D01*
X157097790Y-59980286D01*
X157097790Y-60026248D01*
X157051829Y-60118171D01*
X157005867Y-60164133D01*
X156913943Y-60210095D01*
X156730095Y-60210095D01*
X156638171Y-60256057D01*
X156592210Y-60302019D01*
X156546248Y-60393943D01*
X156546248Y-60577790D01*
X156592210Y-60669714D01*
X156638171Y-60715676D01*
X156730095Y-60761638D01*
X156913943Y-60761638D01*
X157005867Y-60715676D01*
X157051829Y-60669714D01*
X157097790Y-60577790D01*
X157097790Y-60393943D01*
X157051829Y-60302019D01*
X157005867Y-60256057D01*
X156913943Y-60210095D01*
X156693810Y-58729638D02*
X156693810Y-57764438D01*
X157061505Y-57764438D01*
X157153429Y-57810400D01*
X157199390Y-57856362D01*
X157245352Y-57948286D01*
X157245352Y-58086171D01*
X157199390Y-58178095D01*
X157153429Y-58224057D01*
X157061505Y-58270019D01*
X156693810Y-58270019D01*
X158210552Y-58637714D02*
X158164590Y-58683676D01*
X158026705Y-58729638D01*
X157934781Y-58729638D01*
X157796895Y-58683676D01*
X157704971Y-58591752D01*
X157659010Y-58499829D01*
X157613048Y-58315981D01*
X157613048Y-58178095D01*
X157659010Y-57994248D01*
X157704971Y-57902324D01*
X157796895Y-57810400D01*
X157934781Y-57764438D01*
X158026705Y-57764438D01*
X158164590Y-57810400D01*
X158210552Y-57856362D01*
X158670171Y-58729638D02*
X158854019Y-58729638D01*
X158945943Y-58683676D01*
X158991905Y-58637714D01*
X159083829Y-58499829D01*
X159129790Y-58315981D01*
X159129790Y-57948286D01*
X159083829Y-57856362D01*
X159037867Y-57810400D01*
X158945943Y-57764438D01*
X158762095Y-57764438D01*
X158670171Y-57810400D01*
X158624210Y-57856362D01*
X158578248Y-57948286D01*
X158578248Y-58178095D01*
X158624210Y-58270019D01*
X158670171Y-58315981D01*
X158762095Y-58361943D01*
X158945943Y-58361943D01*
X159037867Y-58315981D01*
X159083829Y-58270019D01*
X159129790Y-58178095D01*
X106188934Y-58221638D02*
X106188934Y-57256438D01*
X106556629Y-57256438D01*
X106648553Y-57302400D01*
X106694514Y-57348362D01*
X106740476Y-57440286D01*
X106740476Y-57578171D01*
X106694514Y-57670095D01*
X106648553Y-57716057D01*
X106556629Y-57762019D01*
X106188934Y-57762019D01*
X107705676Y-58129714D02*
X107659714Y-58175676D01*
X107521829Y-58221638D01*
X107429905Y-58221638D01*
X107292019Y-58175676D01*
X107200095Y-58083752D01*
X107154134Y-57991829D01*
X107108172Y-57807981D01*
X107108172Y-57670095D01*
X107154134Y-57486248D01*
X107200095Y-57394324D01*
X107292019Y-57302400D01*
X107429905Y-57256438D01*
X107521829Y-57256438D01*
X107659714Y-57302400D01*
X107705676Y-57348362D01*
X108624914Y-58221638D02*
X108073372Y-58221638D01*
X108349143Y-58221638D02*
X108349143Y-57256438D01*
X108257219Y-57394324D01*
X108165295Y-57486248D01*
X108073372Y-57532210D01*
X109544152Y-58221638D02*
X108992610Y-58221638D01*
X109268381Y-58221638D02*
X109268381Y-57256438D01*
X109176457Y-57394324D01*
X109084533Y-57486248D01*
X108992610Y-57532210D01*
X107108172Y-60761638D02*
X107108172Y-59796438D01*
X107475867Y-59796438D01*
X107567791Y-59842400D01*
X107613752Y-59888362D01*
X107659714Y-59980286D01*
X107659714Y-60118171D01*
X107613752Y-60210095D01*
X107567791Y-60256057D01*
X107475867Y-60302019D01*
X107108172Y-60302019D01*
X108073372Y-60761638D02*
X108073372Y-59796438D01*
X108303181Y-59796438D01*
X108441067Y-59842400D01*
X108532991Y-59934324D01*
X108578952Y-60026248D01*
X108624914Y-60210095D01*
X108624914Y-60347981D01*
X108578952Y-60531829D01*
X108532991Y-60623752D01*
X108441067Y-60715676D01*
X108303181Y-60761638D01*
X108073372Y-60761638D01*
X108992610Y-59888362D02*
X109038572Y-59842400D01*
X109130495Y-59796438D01*
X109360305Y-59796438D01*
X109452229Y-59842400D01*
X109498191Y-59888362D01*
X109544152Y-59980286D01*
X109544152Y-60072210D01*
X109498191Y-60210095D01*
X108946648Y-60761638D01*
X109544152Y-60761638D01*
X107337982Y-62796057D02*
X107659715Y-62796057D01*
X107797601Y-63301638D02*
X107337982Y-63301638D01*
X107337982Y-62336438D01*
X107797601Y-62336438D01*
X108670877Y-62336438D02*
X108211258Y-62336438D01*
X108165296Y-62796057D01*
X108211258Y-62750095D01*
X108303181Y-62704133D01*
X108532991Y-62704133D01*
X108624915Y-62750095D01*
X108670877Y-62796057D01*
X108716838Y-62887981D01*
X108716838Y-63117790D01*
X108670877Y-63209714D01*
X108624915Y-63255676D01*
X108532991Y-63301638D01*
X108303181Y-63301638D01*
X108211258Y-63255676D01*
X108165296Y-63209714D01*
X108992610Y-62336438D02*
X109314343Y-63301638D01*
X109636076Y-62336438D01*
X107521828Y-64922400D02*
X107429905Y-64876438D01*
X107292019Y-64876438D01*
X107154133Y-64922400D01*
X107062209Y-65014324D01*
X107016248Y-65106248D01*
X106970286Y-65290095D01*
X106970286Y-65427981D01*
X107016248Y-65611829D01*
X107062209Y-65703752D01*
X107154133Y-65795676D01*
X107292019Y-65841638D01*
X107383943Y-65841638D01*
X107521828Y-65795676D01*
X107567790Y-65749714D01*
X107567790Y-65427981D01*
X107383943Y-65427981D01*
X107981448Y-65841638D02*
X107981448Y-64876438D01*
X108532990Y-65841638D01*
X108532990Y-64876438D01*
X108992610Y-65841638D02*
X108992610Y-64876438D01*
X109222419Y-64876438D01*
X109360305Y-64922400D01*
X109452229Y-65014324D01*
X109498190Y-65106248D01*
X109544152Y-65290095D01*
X109544152Y-65427981D01*
X109498190Y-65611829D01*
X109452229Y-65703752D01*
X109360305Y-65795676D01*
X109222419Y-65841638D01*
X108992610Y-65841638D01*
X105821239Y-70921638D02*
X105821239Y-69956438D01*
X106464705Y-69956438D02*
X106648553Y-69956438D01*
X106740477Y-70002400D01*
X106832400Y-70094324D01*
X106878362Y-70278171D01*
X106878362Y-70599905D01*
X106832400Y-70783752D01*
X106740477Y-70875676D01*
X106648553Y-70921638D01*
X106464705Y-70921638D01*
X106372781Y-70875676D01*
X106280858Y-70783752D01*
X106234896Y-70599905D01*
X106234896Y-70278171D01*
X106280858Y-70094324D01*
X106372781Y-70002400D01*
X106464705Y-69956438D01*
X107843562Y-70921638D02*
X107521829Y-70462019D01*
X107292020Y-70921638D02*
X107292020Y-69956438D01*
X107659715Y-69956438D01*
X107751639Y-70002400D01*
X107797600Y-70048362D01*
X107843562Y-70140286D01*
X107843562Y-70278171D01*
X107797600Y-70370095D01*
X107751639Y-70416057D01*
X107659715Y-70462019D01*
X107292020Y-70462019D01*
X108257220Y-70416057D02*
X108578953Y-70416057D01*
X108716839Y-70921638D02*
X108257220Y-70921638D01*
X108257220Y-69956438D01*
X108716839Y-69956438D01*
X109452229Y-70416057D02*
X109130496Y-70416057D01*
X109130496Y-70921638D02*
X109130496Y-69956438D01*
X109590115Y-69956438D01*
X106142972Y-73461638D02*
X105821239Y-73002019D01*
X105591430Y-73461638D02*
X105591430Y-72496438D01*
X105959125Y-72496438D01*
X106051049Y-72542400D01*
X106097010Y-72588362D01*
X106142972Y-72680286D01*
X106142972Y-72818171D01*
X106097010Y-72910095D01*
X106051049Y-72956057D01*
X105959125Y-73002019D01*
X105591430Y-73002019D01*
X106556630Y-72956057D02*
X106878363Y-72956057D01*
X107016249Y-73461638D02*
X106556630Y-73461638D01*
X106556630Y-72496438D01*
X107016249Y-72496438D01*
X107383944Y-73415676D02*
X107521829Y-73461638D01*
X107751639Y-73461638D01*
X107843563Y-73415676D01*
X107889525Y-73369714D01*
X107935486Y-73277790D01*
X107935486Y-73185867D01*
X107889525Y-73093943D01*
X107843563Y-73047981D01*
X107751639Y-73002019D01*
X107567791Y-72956057D01*
X107475867Y-72910095D01*
X107429906Y-72864133D01*
X107383944Y-72772210D01*
X107383944Y-72680286D01*
X107429906Y-72588362D01*
X107475867Y-72542400D01*
X107567791Y-72496438D01*
X107797601Y-72496438D01*
X107935486Y-72542400D01*
X108349144Y-72956057D02*
X108670877Y-72956057D01*
X108808763Y-73461638D02*
X108349144Y-73461638D01*
X108349144Y-72496438D01*
X108808763Y-72496438D01*
X109084534Y-72496438D02*
X109636077Y-72496438D01*
X109360305Y-73461638D02*
X109360305Y-72496438D01*
X107200096Y-75036438D02*
X107797600Y-75036438D01*
X107475867Y-75404133D01*
X107613753Y-75404133D01*
X107705677Y-75450095D01*
X107751639Y-75496057D01*
X107797600Y-75587981D01*
X107797600Y-75817790D01*
X107751639Y-75909714D01*
X107705677Y-75955676D01*
X107613753Y-76001638D01*
X107337981Y-76001638D01*
X107246058Y-75955676D01*
X107200096Y-75909714D01*
X108073372Y-75036438D02*
X108395105Y-76001638D01*
X108716838Y-75036438D01*
X108946648Y-75036438D02*
X109544152Y-75036438D01*
X109222419Y-75404133D01*
X109360305Y-75404133D01*
X109452229Y-75450095D01*
X109498191Y-75496057D01*
X109544152Y-75587981D01*
X109544152Y-75817790D01*
X109498191Y-75909714D01*
X109452229Y-75955676D01*
X109360305Y-76001638D01*
X109084533Y-76001638D01*
X108992610Y-75955676D01*
X108946648Y-75909714D01*
X108670877Y-77576438D02*
X108211258Y-77576438D01*
X108165296Y-78036057D01*
X108211258Y-77990095D01*
X108303181Y-77944133D01*
X108532991Y-77944133D01*
X108624915Y-77990095D01*
X108670877Y-78036057D01*
X108716838Y-78127981D01*
X108716838Y-78357790D01*
X108670877Y-78449714D01*
X108624915Y-78495676D01*
X108532991Y-78541638D01*
X108303181Y-78541638D01*
X108211258Y-78495676D01*
X108165296Y-78449714D01*
X108992610Y-77576438D02*
X109314343Y-78541638D01*
X109636076Y-77576438D01*
X107521828Y-80162400D02*
X107429905Y-80116438D01*
X107292019Y-80116438D01*
X107154133Y-80162400D01*
X107062209Y-80254324D01*
X107016248Y-80346248D01*
X106970286Y-80530095D01*
X106970286Y-80667981D01*
X107016248Y-80851829D01*
X107062209Y-80943752D01*
X107154133Y-81035676D01*
X107292019Y-81081638D01*
X107383943Y-81081638D01*
X107521828Y-81035676D01*
X107567790Y-80989714D01*
X107567790Y-80667981D01*
X107383943Y-80667981D01*
X107981448Y-81081638D02*
X107981448Y-80116438D01*
X108532990Y-81081638D01*
X108532990Y-80116438D01*
X108992610Y-81081638D02*
X108992610Y-80116438D01*
X109222419Y-80116438D01*
X109360305Y-80162400D01*
X109452229Y-80254324D01*
X109498190Y-80346248D01*
X109544152Y-80530095D01*
X109544152Y-80667981D01*
X109498190Y-80851829D01*
X109452229Y-80943752D01*
X109360305Y-81035676D01*
X109222419Y-81081638D01*
X108992610Y-81081638D01*
X107521828Y-82702400D02*
X107429905Y-82656438D01*
X107292019Y-82656438D01*
X107154133Y-82702400D01*
X107062209Y-82794324D01*
X107016248Y-82886248D01*
X106970286Y-83070095D01*
X106970286Y-83207981D01*
X107016248Y-83391829D01*
X107062209Y-83483752D01*
X107154133Y-83575676D01*
X107292019Y-83621638D01*
X107383943Y-83621638D01*
X107521828Y-83575676D01*
X107567790Y-83529714D01*
X107567790Y-83207981D01*
X107383943Y-83207981D01*
X107981448Y-83621638D02*
X107981448Y-82656438D01*
X108532990Y-83621638D01*
X108532990Y-82656438D01*
X108992610Y-83621638D02*
X108992610Y-82656438D01*
X109222419Y-82656438D01*
X109360305Y-82702400D01*
X109452229Y-82794324D01*
X109498190Y-82886248D01*
X109544152Y-83070095D01*
X109544152Y-83207981D01*
X109498190Y-83391829D01*
X109452229Y-83483752D01*
X109360305Y-83575676D01*
X109222419Y-83621638D01*
X108992610Y-83621638D01*
X107521829Y-85196438D02*
X107843562Y-86161638D01*
X108165295Y-85196438D01*
X108487029Y-86161638D02*
X108487029Y-85196438D01*
X108946648Y-86161638D02*
X108946648Y-85196438D01*
X109498190Y-86161638D01*
X109498190Y-85196438D01*
X107246058Y-91241638D02*
X107246058Y-90276438D01*
X107613753Y-90276438D01*
X107705677Y-90322400D01*
X107751638Y-90368362D01*
X107797600Y-90460286D01*
X107797600Y-90598171D01*
X107751638Y-90690095D01*
X107705677Y-90736057D01*
X107613753Y-90782019D01*
X107246058Y-90782019D01*
X108165296Y-90965867D02*
X108624915Y-90965867D01*
X108073372Y-91241638D02*
X108395105Y-90276438D01*
X108716838Y-91241638D01*
X109222419Y-90276438D02*
X109314343Y-90276438D01*
X109406267Y-90322400D01*
X109452229Y-90368362D01*
X109498191Y-90460286D01*
X109544152Y-90644133D01*
X109544152Y-90873943D01*
X109498191Y-91057790D01*
X109452229Y-91149714D01*
X109406267Y-91195676D01*
X109314343Y-91241638D01*
X109222419Y-91241638D01*
X109130495Y-91195676D01*
X109084533Y-91149714D01*
X109038572Y-91057790D01*
X108992610Y-90873943D01*
X108992610Y-90644133D01*
X109038572Y-90460286D01*
X109084533Y-90368362D01*
X109130495Y-90322400D01*
X109222419Y-90276438D01*
X107246058Y-93781638D02*
X107246058Y-92816438D01*
X107613753Y-92816438D01*
X107705677Y-92862400D01*
X107751638Y-92908362D01*
X107797600Y-93000286D01*
X107797600Y-93138171D01*
X107751638Y-93230095D01*
X107705677Y-93276057D01*
X107613753Y-93322019D01*
X107246058Y-93322019D01*
X108165296Y-93505867D02*
X108624915Y-93505867D01*
X108073372Y-93781638D02*
X108395105Y-92816438D01*
X108716838Y-93781638D01*
X109544152Y-93781638D02*
X108992610Y-93781638D01*
X109268381Y-93781638D02*
X109268381Y-92816438D01*
X109176457Y-92954324D01*
X109084533Y-93046248D01*
X108992610Y-93092210D01*
X107246058Y-96321638D02*
X107246058Y-95356438D01*
X107613753Y-95356438D01*
X107705677Y-95402400D01*
X107751638Y-95448362D01*
X107797600Y-95540286D01*
X107797600Y-95678171D01*
X107751638Y-95770095D01*
X107705677Y-95816057D01*
X107613753Y-95862019D01*
X107246058Y-95862019D01*
X108165296Y-96045867D02*
X108624915Y-96045867D01*
X108073372Y-96321638D02*
X108395105Y-95356438D01*
X108716838Y-96321638D01*
X109452229Y-95678171D02*
X109452229Y-96321638D01*
X109222419Y-95310476D02*
X108992610Y-95999905D01*
X109590114Y-95999905D01*
X107108172Y-98861638D02*
X107108172Y-97896438D01*
X107475867Y-97896438D01*
X107567791Y-97942400D01*
X107613752Y-97988362D01*
X107659714Y-98080286D01*
X107659714Y-98218171D01*
X107613752Y-98310095D01*
X107567791Y-98356057D01*
X107475867Y-98402019D01*
X107108172Y-98402019D01*
X108395105Y-98356057D02*
X108532991Y-98402019D01*
X108578952Y-98447981D01*
X108624914Y-98539905D01*
X108624914Y-98677790D01*
X108578952Y-98769714D01*
X108532991Y-98815676D01*
X108441067Y-98861638D01*
X108073372Y-98861638D01*
X108073372Y-97896438D01*
X108395105Y-97896438D01*
X108487029Y-97942400D01*
X108532991Y-97988362D01*
X108578952Y-98080286D01*
X108578952Y-98172210D01*
X108532991Y-98264133D01*
X108487029Y-98310095D01*
X108395105Y-98356057D01*
X108073372Y-98356057D01*
X109222419Y-97896438D02*
X109314343Y-97896438D01*
X109406267Y-97942400D01*
X109452229Y-97988362D01*
X109498191Y-98080286D01*
X109544152Y-98264133D01*
X109544152Y-98493943D01*
X109498191Y-98677790D01*
X109452229Y-98769714D01*
X109406267Y-98815676D01*
X109314343Y-98861638D01*
X109222419Y-98861638D01*
X109130495Y-98815676D01*
X109084533Y-98769714D01*
X109038572Y-98677790D01*
X108992610Y-98493943D01*
X108992610Y-98264133D01*
X109038572Y-98080286D01*
X109084533Y-97988362D01*
X109130495Y-97942400D01*
X109222419Y-97896438D01*
X107108172Y-101401638D02*
X107108172Y-100436438D01*
X107475867Y-100436438D01*
X107567791Y-100482400D01*
X107613752Y-100528362D01*
X107659714Y-100620286D01*
X107659714Y-100758171D01*
X107613752Y-100850095D01*
X107567791Y-100896057D01*
X107475867Y-100942019D01*
X107108172Y-100942019D01*
X108624914Y-101309714D02*
X108578952Y-101355676D01*
X108441067Y-101401638D01*
X108349143Y-101401638D01*
X108211257Y-101355676D01*
X108119333Y-101263752D01*
X108073372Y-101171829D01*
X108027410Y-100987981D01*
X108027410Y-100850095D01*
X108073372Y-100666248D01*
X108119333Y-100574324D01*
X108211257Y-100482400D01*
X108349143Y-100436438D01*
X108441067Y-100436438D01*
X108578952Y-100482400D01*
X108624914Y-100528362D01*
X109544152Y-101401638D02*
X108992610Y-101401638D01*
X109268381Y-101401638D02*
X109268381Y-100436438D01*
X109176457Y-100574324D01*
X109084533Y-100666248D01*
X108992610Y-100712210D01*
X107108172Y-103941638D02*
X107108172Y-102976438D01*
X107475867Y-102976438D01*
X107567791Y-103022400D01*
X107613752Y-103068362D01*
X107659714Y-103160286D01*
X107659714Y-103298171D01*
X107613752Y-103390095D01*
X107567791Y-103436057D01*
X107475867Y-103482019D01*
X107108172Y-103482019D01*
X108624914Y-103849714D02*
X108578952Y-103895676D01*
X108441067Y-103941638D01*
X108349143Y-103941638D01*
X108211257Y-103895676D01*
X108119333Y-103803752D01*
X108073372Y-103711829D01*
X108027410Y-103527981D01*
X108027410Y-103390095D01*
X108073372Y-103206248D01*
X108119333Y-103114324D01*
X108211257Y-103022400D01*
X108349143Y-102976438D01*
X108441067Y-102976438D01*
X108578952Y-103022400D01*
X108624914Y-103068362D01*
X109222419Y-102976438D02*
X109314343Y-102976438D01*
X109406267Y-103022400D01*
X109452229Y-103068362D01*
X109498191Y-103160286D01*
X109544152Y-103344133D01*
X109544152Y-103573943D01*
X109498191Y-103757790D01*
X109452229Y-103849714D01*
X109406267Y-103895676D01*
X109314343Y-103941638D01*
X109222419Y-103941638D01*
X109130495Y-103895676D01*
X109084533Y-103849714D01*
X109038572Y-103757790D01*
X108992610Y-103573943D01*
X108992610Y-103344133D01*
X109038572Y-103160286D01*
X109084533Y-103068362D01*
X109130495Y-103022400D01*
X109222419Y-102976438D01*
X93701810Y-103941638D02*
X93701810Y-102976438D01*
X94069505Y-102976438D01*
X94161429Y-103022400D01*
X94207390Y-103068362D01*
X94253352Y-103160286D01*
X94253352Y-103298171D01*
X94207390Y-103390095D01*
X94161429Y-103436057D01*
X94069505Y-103482019D01*
X93701810Y-103482019D01*
X95218552Y-103849714D02*
X95172590Y-103895676D01*
X95034705Y-103941638D01*
X94942781Y-103941638D01*
X94804895Y-103895676D01*
X94712971Y-103803752D01*
X94667010Y-103711829D01*
X94621048Y-103527981D01*
X94621048Y-103390095D01*
X94667010Y-103206248D01*
X94712971Y-103114324D01*
X94804895Y-103022400D01*
X94942781Y-102976438D01*
X95034705Y-102976438D01*
X95172590Y-103022400D01*
X95218552Y-103068362D01*
X95540286Y-102976438D02*
X96137790Y-102976438D01*
X95816057Y-103344133D01*
X95953943Y-103344133D01*
X96045867Y-103390095D01*
X96091829Y-103436057D01*
X96137790Y-103527981D01*
X96137790Y-103757790D01*
X96091829Y-103849714D01*
X96045867Y-103895676D01*
X95953943Y-103941638D01*
X95678171Y-103941638D01*
X95586248Y-103895676D01*
X95540286Y-103849714D01*
X93701810Y-101401638D02*
X93701810Y-100436438D01*
X94069505Y-100436438D01*
X94161429Y-100482400D01*
X94207390Y-100528362D01*
X94253352Y-100620286D01*
X94253352Y-100758171D01*
X94207390Y-100850095D01*
X94161429Y-100896057D01*
X94069505Y-100942019D01*
X93701810Y-100942019D01*
X95218552Y-101309714D02*
X95172590Y-101355676D01*
X95034705Y-101401638D01*
X94942781Y-101401638D01*
X94804895Y-101355676D01*
X94712971Y-101263752D01*
X94667010Y-101171829D01*
X94621048Y-100987981D01*
X94621048Y-100850095D01*
X94667010Y-100666248D01*
X94712971Y-100574324D01*
X94804895Y-100482400D01*
X94942781Y-100436438D01*
X95034705Y-100436438D01*
X95172590Y-100482400D01*
X95218552Y-100528362D01*
X95586248Y-100528362D02*
X95632210Y-100482400D01*
X95724133Y-100436438D01*
X95953943Y-100436438D01*
X96045867Y-100482400D01*
X96091829Y-100528362D01*
X96137790Y-100620286D01*
X96137790Y-100712210D01*
X96091829Y-100850095D01*
X95540286Y-101401638D01*
X96137790Y-101401638D01*
X93563924Y-97896438D02*
X93885657Y-98861638D01*
X94207390Y-97896438D01*
X94850857Y-98356057D02*
X94988743Y-98402019D01*
X95034704Y-98447981D01*
X95080666Y-98539905D01*
X95080666Y-98677790D01*
X95034704Y-98769714D01*
X94988743Y-98815676D01*
X94896819Y-98861638D01*
X94529124Y-98861638D01*
X94529124Y-97896438D01*
X94850857Y-97896438D01*
X94942781Y-97942400D01*
X94988743Y-97988362D01*
X95034704Y-98080286D01*
X95034704Y-98172210D01*
X94988743Y-98264133D01*
X94942781Y-98310095D01*
X94850857Y-98356057D01*
X94529124Y-98356057D01*
X95448362Y-98585867D02*
X95907981Y-98585867D01*
X95356438Y-98861638D02*
X95678171Y-97896438D01*
X95999904Y-98861638D01*
X96183752Y-97896438D02*
X96735295Y-97896438D01*
X96459523Y-98861638D02*
X96459523Y-97896438D01*
X93701810Y-96321638D02*
X93701810Y-95356438D01*
X94069505Y-95356438D01*
X94161429Y-95402400D01*
X94207390Y-95448362D01*
X94253352Y-95540286D01*
X94253352Y-95678171D01*
X94207390Y-95770095D01*
X94161429Y-95816057D01*
X94069505Y-95862019D01*
X93701810Y-95862019D01*
X94988743Y-95816057D02*
X94667010Y-95816057D01*
X94667010Y-96321638D02*
X94667010Y-95356438D01*
X95126629Y-95356438D01*
X95999904Y-96321638D02*
X95448362Y-96321638D01*
X95724133Y-96321638D02*
X95724133Y-95356438D01*
X95632209Y-95494324D01*
X95540285Y-95586248D01*
X95448362Y-95632210D01*
X93701810Y-93781638D02*
X93701810Y-92816438D01*
X94069505Y-92816438D01*
X94161429Y-92862400D01*
X94207390Y-92908362D01*
X94253352Y-93000286D01*
X94253352Y-93138171D01*
X94207390Y-93230095D01*
X94161429Y-93276057D01*
X94069505Y-93322019D01*
X93701810Y-93322019D01*
X94988743Y-93276057D02*
X94667010Y-93276057D01*
X94667010Y-93781638D02*
X94667010Y-92816438D01*
X95126629Y-92816438D01*
X95678171Y-92816438D02*
X95770095Y-92816438D01*
X95862019Y-92862400D01*
X95907981Y-92908362D01*
X95953943Y-93000286D01*
X95999904Y-93184133D01*
X95999904Y-93413943D01*
X95953943Y-93597790D01*
X95907981Y-93689714D01*
X95862019Y-93735676D01*
X95770095Y-93781638D01*
X95678171Y-93781638D01*
X95586247Y-93735676D01*
X95540285Y-93689714D01*
X95494324Y-93597790D01*
X95448362Y-93413943D01*
X95448362Y-93184133D01*
X95494324Y-93000286D01*
X95540285Y-92908362D01*
X95586247Y-92862400D01*
X95678171Y-92816438D01*
X93701810Y-91241638D02*
X93701810Y-90276438D01*
X94069505Y-90276438D01*
X94161429Y-90322400D01*
X94207390Y-90368362D01*
X94253352Y-90460286D01*
X94253352Y-90598171D01*
X94207390Y-90690095D01*
X94161429Y-90736057D01*
X94069505Y-90782019D01*
X93701810Y-90782019D01*
X95218552Y-91149714D02*
X95172590Y-91195676D01*
X95034705Y-91241638D01*
X94942781Y-91241638D01*
X94804895Y-91195676D01*
X94712971Y-91103752D01*
X94667010Y-91011829D01*
X94621048Y-90827981D01*
X94621048Y-90690095D01*
X94667010Y-90506248D01*
X94712971Y-90414324D01*
X94804895Y-90322400D01*
X94942781Y-90276438D01*
X95034705Y-90276438D01*
X95172590Y-90322400D01*
X95218552Y-90368362D01*
X96137790Y-91241638D02*
X95586248Y-91241638D01*
X95862019Y-91241638D02*
X95862019Y-90276438D01*
X95770095Y-90414324D01*
X95678171Y-90506248D01*
X95586248Y-90552210D01*
X97011067Y-90276438D02*
X96551448Y-90276438D01*
X96505486Y-90736057D01*
X96551448Y-90690095D01*
X96643371Y-90644133D01*
X96873181Y-90644133D01*
X96965105Y-90690095D01*
X97011067Y-90736057D01*
X97057028Y-90827981D01*
X97057028Y-91057790D01*
X97011067Y-91149714D01*
X96965105Y-91195676D01*
X96873181Y-91241638D01*
X96643371Y-91241638D01*
X96551448Y-91195676D01*
X96505486Y-91149714D01*
X93701810Y-88701638D02*
X93701810Y-87736438D01*
X94069505Y-87736438D01*
X94161429Y-87782400D01*
X94207390Y-87828362D01*
X94253352Y-87920286D01*
X94253352Y-88058171D01*
X94207390Y-88150095D01*
X94161429Y-88196057D01*
X94069505Y-88242019D01*
X93701810Y-88242019D01*
X95218552Y-88609714D02*
X95172590Y-88655676D01*
X95034705Y-88701638D01*
X94942781Y-88701638D01*
X94804895Y-88655676D01*
X94712971Y-88563752D01*
X94667010Y-88471829D01*
X94621048Y-88287981D01*
X94621048Y-88150095D01*
X94667010Y-87966248D01*
X94712971Y-87874324D01*
X94804895Y-87782400D01*
X94942781Y-87736438D01*
X95034705Y-87736438D01*
X95172590Y-87782400D01*
X95218552Y-87828362D01*
X96137790Y-88701638D02*
X95586248Y-88701638D01*
X95862019Y-88701638D02*
X95862019Y-87736438D01*
X95770095Y-87874324D01*
X95678171Y-87966248D01*
X95586248Y-88012210D01*
X96965105Y-88058171D02*
X96965105Y-88701638D01*
X96735295Y-87690476D02*
X96505486Y-88379905D01*
X97102990Y-88379905D01*
X93701810Y-86161638D02*
X93701810Y-85196438D01*
X94069505Y-85196438D01*
X94161429Y-85242400D01*
X94207390Y-85288362D01*
X94253352Y-85380286D01*
X94253352Y-85518171D01*
X94207390Y-85610095D01*
X94161429Y-85656057D01*
X94069505Y-85702019D01*
X93701810Y-85702019D01*
X95218552Y-86069714D02*
X95172590Y-86115676D01*
X95034705Y-86161638D01*
X94942781Y-86161638D01*
X94804895Y-86115676D01*
X94712971Y-86023752D01*
X94667010Y-85931829D01*
X94621048Y-85747981D01*
X94621048Y-85610095D01*
X94667010Y-85426248D01*
X94712971Y-85334324D01*
X94804895Y-85242400D01*
X94942781Y-85196438D01*
X95034705Y-85196438D01*
X95172590Y-85242400D01*
X95218552Y-85288362D01*
X96137790Y-86161638D02*
X95586248Y-86161638D01*
X95862019Y-86161638D02*
X95862019Y-85196438D01*
X95770095Y-85334324D01*
X95678171Y-85426248D01*
X95586248Y-85472210D01*
X96459524Y-85196438D02*
X97057028Y-85196438D01*
X96735295Y-85564133D01*
X96873181Y-85564133D01*
X96965105Y-85610095D01*
X97011067Y-85656057D01*
X97057028Y-85747981D01*
X97057028Y-85977790D01*
X97011067Y-86069714D01*
X96965105Y-86115676D01*
X96873181Y-86161638D01*
X96597409Y-86161638D01*
X96505486Y-86115676D01*
X96459524Y-86069714D01*
X93701810Y-83621638D02*
X93701810Y-82656438D01*
X94069505Y-82656438D01*
X94161429Y-82702400D01*
X94207390Y-82748362D01*
X94253352Y-82840286D01*
X94253352Y-82978171D01*
X94207390Y-83070095D01*
X94161429Y-83116057D01*
X94069505Y-83162019D01*
X93701810Y-83162019D01*
X94988743Y-83116057D02*
X95126629Y-83162019D01*
X95172590Y-83207981D01*
X95218552Y-83299905D01*
X95218552Y-83437790D01*
X95172590Y-83529714D01*
X95126629Y-83575676D01*
X95034705Y-83621638D01*
X94667010Y-83621638D01*
X94667010Y-82656438D01*
X94988743Y-82656438D01*
X95080667Y-82702400D01*
X95126629Y-82748362D01*
X95172590Y-82840286D01*
X95172590Y-82932210D01*
X95126629Y-83024133D01*
X95080667Y-83070095D01*
X94988743Y-83116057D01*
X94667010Y-83116057D01*
X95540286Y-82656438D02*
X96183752Y-82656438D01*
X95770095Y-83621638D01*
X94207390Y-80162400D02*
X94115467Y-80116438D01*
X93977581Y-80116438D01*
X93839695Y-80162400D01*
X93747771Y-80254324D01*
X93701810Y-80346248D01*
X93655848Y-80530095D01*
X93655848Y-80667981D01*
X93701810Y-80851829D01*
X93747771Y-80943752D01*
X93839695Y-81035676D01*
X93977581Y-81081638D01*
X94069505Y-81081638D01*
X94207390Y-81035676D01*
X94253352Y-80989714D01*
X94253352Y-80667981D01*
X94069505Y-80667981D01*
X94667010Y-81081638D02*
X94667010Y-80116438D01*
X95218552Y-81081638D01*
X95218552Y-80116438D01*
X95678172Y-81081638D02*
X95678172Y-80116438D01*
X95907981Y-80116438D01*
X96045867Y-80162400D01*
X96137791Y-80254324D01*
X96183752Y-80346248D01*
X96229714Y-80530095D01*
X96229714Y-80667981D01*
X96183752Y-80851829D01*
X96137791Y-80943752D01*
X96045867Y-81035676D01*
X95907981Y-81081638D01*
X95678172Y-81081638D01*
X93701810Y-78541638D02*
X93701810Y-77576438D01*
X94069505Y-77576438D01*
X94161429Y-77622400D01*
X94207390Y-77668362D01*
X94253352Y-77760286D01*
X94253352Y-77898171D01*
X94207390Y-77990095D01*
X94161429Y-78036057D01*
X94069505Y-78082019D01*
X93701810Y-78082019D01*
X94621048Y-78265867D02*
X95080667Y-78265867D01*
X94529124Y-78541638D02*
X94850857Y-77576438D01*
X95172590Y-78541638D01*
X95999904Y-78541638D02*
X95448362Y-78541638D01*
X95724133Y-78541638D02*
X95724133Y-77576438D01*
X95632209Y-77714324D01*
X95540285Y-77806248D01*
X95448362Y-77852210D01*
X96873181Y-77576438D02*
X96413562Y-77576438D01*
X96367600Y-78036057D01*
X96413562Y-77990095D01*
X96505485Y-77944133D01*
X96735295Y-77944133D01*
X96827219Y-77990095D01*
X96873181Y-78036057D01*
X96919142Y-78127981D01*
X96919142Y-78357790D01*
X96873181Y-78449714D01*
X96827219Y-78495676D01*
X96735295Y-78541638D01*
X96505485Y-78541638D01*
X96413562Y-78495676D01*
X96367600Y-78449714D01*
X93701810Y-76001638D02*
X93701810Y-75036438D01*
X94069505Y-75036438D01*
X94161429Y-75082400D01*
X94207390Y-75128362D01*
X94253352Y-75220286D01*
X94253352Y-75358171D01*
X94207390Y-75450095D01*
X94161429Y-75496057D01*
X94069505Y-75542019D01*
X93701810Y-75542019D01*
X94621048Y-75725867D02*
X95080667Y-75725867D01*
X94529124Y-76001638D02*
X94850857Y-75036438D01*
X95172590Y-76001638D01*
X95999904Y-76001638D02*
X95448362Y-76001638D01*
X95724133Y-76001638D02*
X95724133Y-75036438D01*
X95632209Y-75174324D01*
X95540285Y-75266248D01*
X95448362Y-75312210D01*
X96827219Y-75358171D02*
X96827219Y-76001638D01*
X96597409Y-74990476D02*
X96367600Y-75679905D01*
X96965104Y-75679905D01*
X93701810Y-73461638D02*
X93701810Y-72496438D01*
X94069505Y-72496438D01*
X94161429Y-72542400D01*
X94207390Y-72588362D01*
X94253352Y-72680286D01*
X94253352Y-72818171D01*
X94207390Y-72910095D01*
X94161429Y-72956057D01*
X94069505Y-73002019D01*
X93701810Y-73002019D01*
X94621048Y-73185867D02*
X95080667Y-73185867D01*
X94529124Y-73461638D02*
X94850857Y-72496438D01*
X95172590Y-73461638D01*
X95999904Y-73461638D02*
X95448362Y-73461638D01*
X95724133Y-73461638D02*
X95724133Y-72496438D01*
X95632209Y-72634324D01*
X95540285Y-72726248D01*
X95448362Y-72772210D01*
X96321638Y-72496438D02*
X96919142Y-72496438D01*
X96597409Y-72864133D01*
X96735295Y-72864133D01*
X96827219Y-72910095D01*
X96873181Y-72956057D01*
X96919142Y-73047981D01*
X96919142Y-73277790D01*
X96873181Y-73369714D01*
X96827219Y-73415676D01*
X96735295Y-73461638D01*
X96459523Y-73461638D01*
X96367600Y-73415676D01*
X96321638Y-73369714D01*
X93701810Y-70921638D02*
X93701810Y-69956438D01*
X94069505Y-69956438D01*
X94161429Y-70002400D01*
X94207390Y-70048362D01*
X94253352Y-70140286D01*
X94253352Y-70278171D01*
X94207390Y-70370095D01*
X94161429Y-70416057D01*
X94069505Y-70462019D01*
X93701810Y-70462019D01*
X94988743Y-70416057D02*
X94667010Y-70416057D01*
X94667010Y-70921638D02*
X94667010Y-69956438D01*
X95126629Y-69956438D01*
X95402400Y-69956438D02*
X96045866Y-69956438D01*
X95632209Y-70921638D01*
X93701810Y-68381638D02*
X93701810Y-67416438D01*
X94069505Y-67416438D01*
X94161429Y-67462400D01*
X94207390Y-67508362D01*
X94253352Y-67600286D01*
X94253352Y-67738171D01*
X94207390Y-67830095D01*
X94161429Y-67876057D01*
X94069505Y-67922019D01*
X93701810Y-67922019D01*
X94988743Y-67876057D02*
X94667010Y-67876057D01*
X94667010Y-68381638D02*
X94667010Y-67416438D01*
X95126629Y-67416438D01*
X95907981Y-67416438D02*
X95724133Y-67416438D01*
X95632209Y-67462400D01*
X95586247Y-67508362D01*
X95494324Y-67646248D01*
X95448362Y-67830095D01*
X95448362Y-68197790D01*
X95494324Y-68289714D01*
X95540285Y-68335676D01*
X95632209Y-68381638D01*
X95816057Y-68381638D01*
X95907981Y-68335676D01*
X95953943Y-68289714D01*
X95999904Y-68197790D01*
X95999904Y-67967981D01*
X95953943Y-67876057D01*
X95907981Y-67830095D01*
X95816057Y-67784133D01*
X95632209Y-67784133D01*
X95540285Y-67830095D01*
X95494324Y-67876057D01*
X95448362Y-67967981D01*
X94023543Y-65336057D02*
X94161429Y-65382019D01*
X94207390Y-65427981D01*
X94253352Y-65519905D01*
X94253352Y-65657790D01*
X94207390Y-65749714D01*
X94161429Y-65795676D01*
X94069505Y-65841638D01*
X93701810Y-65841638D01*
X93701810Y-64876438D01*
X94023543Y-64876438D01*
X94115467Y-64922400D01*
X94161429Y-64968362D01*
X94207390Y-65060286D01*
X94207390Y-65152210D01*
X94161429Y-65244133D01*
X94115467Y-65290095D01*
X94023543Y-65336057D01*
X93701810Y-65336057D01*
X94850857Y-64876438D02*
X95034705Y-64876438D01*
X95126629Y-64922400D01*
X95218552Y-65014324D01*
X95264514Y-65198171D01*
X95264514Y-65519905D01*
X95218552Y-65703752D01*
X95126629Y-65795676D01*
X95034705Y-65841638D01*
X94850857Y-65841638D01*
X94758933Y-65795676D01*
X94667010Y-65703752D01*
X94621048Y-65519905D01*
X94621048Y-65198171D01*
X94667010Y-65014324D01*
X94758933Y-64922400D01*
X94850857Y-64876438D01*
X95862019Y-64876438D02*
X96045867Y-64876438D01*
X96137791Y-64922400D01*
X96229714Y-65014324D01*
X96275676Y-65198171D01*
X96275676Y-65519905D01*
X96229714Y-65703752D01*
X96137791Y-65795676D01*
X96045867Y-65841638D01*
X95862019Y-65841638D01*
X95770095Y-65795676D01*
X95678172Y-65703752D01*
X95632210Y-65519905D01*
X95632210Y-65198171D01*
X95678172Y-65014324D01*
X95770095Y-64922400D01*
X95862019Y-64876438D01*
X96551448Y-64876438D02*
X97102991Y-64876438D01*
X96827219Y-65841638D02*
X96827219Y-64876438D01*
X97608571Y-64876438D02*
X97700495Y-64876438D01*
X97792419Y-64922400D01*
X97838381Y-64968362D01*
X97884343Y-65060286D01*
X97930304Y-65244133D01*
X97930304Y-65473943D01*
X97884343Y-65657790D01*
X97838381Y-65749714D01*
X97792419Y-65795676D01*
X97700495Y-65841638D01*
X97608571Y-65841638D01*
X97516647Y-65795676D01*
X97470685Y-65749714D01*
X97424724Y-65657790D01*
X97378762Y-65473943D01*
X97378762Y-65244133D01*
X97424724Y-65060286D01*
X97470685Y-64968362D01*
X97516647Y-64922400D01*
X97608571Y-64876438D01*
X93563924Y-62336438D02*
X93885657Y-63301638D01*
X94207390Y-62336438D01*
X94529124Y-63301638D02*
X94529124Y-62336438D01*
X94758933Y-62336438D01*
X94896819Y-62382400D01*
X94988743Y-62474324D01*
X95034704Y-62566248D01*
X95080666Y-62750095D01*
X95080666Y-62887981D01*
X95034704Y-63071829D01*
X94988743Y-63163752D01*
X94896819Y-63255676D01*
X94758933Y-63301638D01*
X94529124Y-63301638D01*
X95494324Y-63301638D02*
X95494324Y-62336438D01*
X95724133Y-62336438D01*
X95862019Y-62382400D01*
X95953943Y-62474324D01*
X95999904Y-62566248D01*
X96045866Y-62750095D01*
X96045866Y-62887981D01*
X95999904Y-63071829D01*
X95953943Y-63163752D01*
X95862019Y-63255676D01*
X95724133Y-63301638D01*
X95494324Y-63301638D01*
X93701810Y-60761638D02*
X93701810Y-59796438D01*
X94069505Y-59796438D01*
X94161429Y-59842400D01*
X94207390Y-59888362D01*
X94253352Y-59980286D01*
X94253352Y-60118171D01*
X94207390Y-60210095D01*
X94161429Y-60256057D01*
X94069505Y-60302019D01*
X93701810Y-60302019D01*
X95218552Y-60669714D02*
X95172590Y-60715676D01*
X95034705Y-60761638D01*
X94942781Y-60761638D01*
X94804895Y-60715676D01*
X94712971Y-60623752D01*
X94667010Y-60531829D01*
X94621048Y-60347981D01*
X94621048Y-60210095D01*
X94667010Y-60026248D01*
X94712971Y-59934324D01*
X94804895Y-59842400D01*
X94942781Y-59796438D01*
X95034705Y-59796438D01*
X95172590Y-59842400D01*
X95218552Y-59888362D01*
X96137790Y-60761638D02*
X95586248Y-60761638D01*
X95862019Y-60761638D02*
X95862019Y-59796438D01*
X95770095Y-59934324D01*
X95678171Y-60026248D01*
X95586248Y-60072210D01*
X96505486Y-59888362D02*
X96551448Y-59842400D01*
X96643371Y-59796438D01*
X96873181Y-59796438D01*
X96965105Y-59842400D01*
X97011067Y-59888362D01*
X97057028Y-59980286D01*
X97057028Y-60072210D01*
X97011067Y-60210095D01*
X96459524Y-60761638D01*
X97057028Y-60761638D01*
X93701810Y-58221638D02*
X93701810Y-57256438D01*
X94069505Y-57256438D01*
X94161429Y-57302400D01*
X94207390Y-57348362D01*
X94253352Y-57440286D01*
X94253352Y-57578171D01*
X94207390Y-57670095D01*
X94161429Y-57716057D01*
X94069505Y-57762019D01*
X93701810Y-57762019D01*
X95218552Y-58129714D02*
X95172590Y-58175676D01*
X95034705Y-58221638D01*
X94942781Y-58221638D01*
X94804895Y-58175676D01*
X94712971Y-58083752D01*
X94667010Y-57991829D01*
X94621048Y-57807981D01*
X94621048Y-57670095D01*
X94667010Y-57486248D01*
X94712971Y-57394324D01*
X94804895Y-57302400D01*
X94942781Y-57256438D01*
X95034705Y-57256438D01*
X95172590Y-57302400D01*
X95218552Y-57348362D01*
X96137790Y-58221638D02*
X95586248Y-58221638D01*
X95862019Y-58221638D02*
X95862019Y-57256438D01*
X95770095Y-57394324D01*
X95678171Y-57486248D01*
X95586248Y-57532210D01*
X96735295Y-57256438D02*
X96827219Y-57256438D01*
X96919143Y-57302400D01*
X96965105Y-57348362D01*
X97011067Y-57440286D01*
X97057028Y-57624133D01*
X97057028Y-57853943D01*
X97011067Y-58037790D01*
X96965105Y-58129714D01*
X96919143Y-58175676D01*
X96827219Y-58221638D01*
X96735295Y-58221638D01*
X96643371Y-58175676D01*
X96597409Y-58129714D01*
X96551448Y-58037790D01*
X96505486Y-57853943D01*
X96505486Y-57624133D01*
X96551448Y-57440286D01*
X96597409Y-57348362D01*
X96643371Y-57302400D01*
X96735295Y-57256438D01*
D10*
X104775000Y-56515000D02*
X104775000Y-105410000D01*
X104775000Y-105410000D02*
X98425000Y-105410000D01*
X98425000Y-105410000D02*
X98425000Y-55880000D01*
X98425000Y-55880000D02*
X104775000Y-55880000D01*
X104775000Y-55880000D02*
X104775000Y-56515000D01*
X165735000Y-56515000D02*
X165735000Y-105410000D01*
X165735000Y-105410000D02*
X159385000Y-105410000D01*
X159385000Y-105410000D02*
X159385000Y-55880000D01*
X159385000Y-55880000D02*
X165735000Y-55880000D01*
X165735000Y-55880000D02*
X165735000Y-56515000D01*
X154305000Y-81915000D02*
X159385000Y-81915000D01*
X159385000Y-81915000D02*
X159385000Y-79375000D01*
X159385000Y-79375000D02*
X154305000Y-79375000D01*
X149225000Y-81915000D02*
X154305000Y-81915000D01*
X154305000Y-81915000D02*
X154305000Y-79375000D01*
X154305000Y-79375000D02*
X149225000Y-79375000D01*
X149225000Y-79375000D02*
X149225000Y-81915000D01*
X154305000Y-104775000D02*
X159385000Y-104775000D01*
X159385000Y-104775000D02*
X159385000Y-102235000D01*
X159385000Y-102235000D02*
X154305000Y-102235000D01*
X149225000Y-104775000D02*
X154305000Y-104775000D01*
X154305000Y-104775000D02*
X154305000Y-102235000D01*
X154305000Y-102235000D02*
X149225000Y-102235000D01*
X149225000Y-102235000D02*
X149225000Y-104775000D01*
X154305000Y-102235000D02*
X159385000Y-102235000D01*
X159385000Y-102235000D02*
X159385000Y-99695000D01*
X159385000Y-99695000D02*
X154305000Y-99695000D01*
X149225000Y-102235000D02*
X154305000Y-102235000D01*
X154305000Y-102235000D02*
X154305000Y-99695000D01*
X154305000Y-99695000D02*
X149225000Y-99695000D01*
X149225000Y-99695000D02*
X149225000Y-102235000D01*
X154305000Y-99695000D02*
X159385000Y-99695000D01*
X159385000Y-99695000D02*
X159385000Y-97155000D01*
X159385000Y-97155000D02*
X154305000Y-97155000D01*
X149225000Y-99695000D02*
X154305000Y-99695000D01*
X154305000Y-99695000D02*
X154305000Y-97155000D01*
X154305000Y-97155000D02*
X149225000Y-97155000D01*
X149225000Y-97155000D02*
X149225000Y-99695000D01*
X154305000Y-97155000D02*
X159385000Y-97155000D01*
X159385000Y-97155000D02*
X159385000Y-94615000D01*
X159385000Y-94615000D02*
X154305000Y-94615000D01*
X149225000Y-97155000D02*
X154305000Y-97155000D01*
X154305000Y-97155000D02*
X154305000Y-94615000D01*
X154305000Y-94615000D02*
X149225000Y-94615000D01*
X149225000Y-94615000D02*
X149225000Y-97155000D01*
X154305000Y-94615000D02*
X159385000Y-94615000D01*
X159385000Y-94615000D02*
X159385000Y-92075000D01*
X159385000Y-92075000D02*
X154305000Y-92075000D01*
X149225000Y-94615000D02*
X154305000Y-94615000D01*
X154305000Y-94615000D02*
X154305000Y-92075000D01*
X154305000Y-92075000D02*
X149225000Y-92075000D01*
X149225000Y-92075000D02*
X149225000Y-94615000D01*
X154305000Y-92075000D02*
X159385000Y-92075000D01*
X159385000Y-92075000D02*
X159385000Y-89535000D01*
X159385000Y-89535000D02*
X154305000Y-89535000D01*
X149225000Y-92075000D02*
X154305000Y-92075000D01*
X154305000Y-92075000D02*
X154305000Y-89535000D01*
X154305000Y-89535000D02*
X149225000Y-89535000D01*
X149225000Y-89535000D02*
X149225000Y-92075000D01*
X154305000Y-89535000D02*
X159385000Y-89535000D01*
X159385000Y-89535000D02*
X159385000Y-86995000D01*
X159385000Y-86995000D02*
X154305000Y-86995000D01*
X149225000Y-89535000D02*
X154305000Y-89535000D01*
X154305000Y-89535000D02*
X154305000Y-86995000D01*
X154305000Y-86995000D02*
X149225000Y-86995000D01*
X149225000Y-86995000D02*
X149225000Y-89535000D01*
X154305000Y-86995000D02*
X159385000Y-86995000D01*
X159385000Y-86995000D02*
X159385000Y-84455000D01*
X159385000Y-84455000D02*
X154305000Y-84455000D01*
X149225000Y-86995000D02*
X154305000Y-86995000D01*
X154305000Y-86995000D02*
X154305000Y-84455000D01*
X154305000Y-84455000D02*
X149225000Y-84455000D01*
X149225000Y-84455000D02*
X149225000Y-86995000D01*
X154305000Y-84455000D02*
X159385000Y-84455000D01*
X159385000Y-84455000D02*
X159385000Y-81915000D01*
X159385000Y-81915000D02*
X154305000Y-81915000D01*
X149225000Y-84455000D02*
X154305000Y-84455000D01*
X154305000Y-84455000D02*
X154305000Y-81915000D01*
X154305000Y-81915000D02*
X149225000Y-81915000D01*
X149225000Y-81915000D02*
X149225000Y-84455000D01*
X170815000Y-56515000D02*
X165735000Y-56515000D01*
X165735000Y-56515000D02*
X165735000Y-59055000D01*
X165735000Y-59055000D02*
X170815000Y-59055000D01*
X175895000Y-56515000D02*
X170815000Y-56515000D01*
X170815000Y-56515000D02*
X170815000Y-59055000D01*
X170815000Y-59055000D02*
X175895000Y-59055000D01*
X175895000Y-59055000D02*
X175895000Y-56515000D01*
X154305000Y-79375000D02*
X159385000Y-79375000D01*
X159385000Y-79375000D02*
X159385000Y-76835000D01*
X159385000Y-76835000D02*
X154305000Y-76835000D01*
X149225000Y-79375000D02*
X154305000Y-79375000D01*
X154305000Y-79375000D02*
X154305000Y-76835000D01*
X154305000Y-76835000D02*
X149225000Y-76835000D01*
X149225000Y-76835000D02*
X149225000Y-79375000D01*
X154305000Y-76835000D02*
X159385000Y-76835000D01*
X159385000Y-76835000D02*
X159385000Y-74295000D01*
X159385000Y-74295000D02*
X154305000Y-74295000D01*
X149225000Y-76835000D02*
X154305000Y-76835000D01*
X154305000Y-76835000D02*
X154305000Y-74295000D01*
X154305000Y-74295000D02*
X149225000Y-74295000D01*
X149225000Y-74295000D02*
X149225000Y-76835000D01*
X154305000Y-74295000D02*
X159385000Y-74295000D01*
X159385000Y-74295000D02*
X159385000Y-71755000D01*
X159385000Y-71755000D02*
X154305000Y-71755000D01*
X149225000Y-74295000D02*
X154305000Y-74295000D01*
X154305000Y-74295000D02*
X154305000Y-71755000D01*
X154305000Y-71755000D02*
X149225000Y-71755000D01*
X149225000Y-71755000D02*
X149225000Y-74295000D01*
X154305000Y-71755000D02*
X159385000Y-71755000D01*
X159385000Y-71755000D02*
X159385000Y-69215000D01*
X159385000Y-69215000D02*
X154305000Y-69215000D01*
X149225000Y-71755000D02*
X154305000Y-71755000D01*
X154305000Y-71755000D02*
X154305000Y-69215000D01*
X154305000Y-69215000D02*
X149225000Y-69215000D01*
X149225000Y-69215000D02*
X149225000Y-71755000D01*
X154305000Y-69215000D02*
X159385000Y-69215000D01*
X159385000Y-69215000D02*
X159385000Y-66675000D01*
X159385000Y-66675000D02*
X154305000Y-66675000D01*
X149225000Y-69215000D02*
X154305000Y-69215000D01*
X154305000Y-69215000D02*
X154305000Y-66675000D01*
X154305000Y-66675000D02*
X149225000Y-66675000D01*
X149225000Y-66675000D02*
X149225000Y-69215000D01*
X154305000Y-66675000D02*
X159385000Y-66675000D01*
X159385000Y-66675000D02*
X159385000Y-64135000D01*
X159385000Y-64135000D02*
X154305000Y-64135000D01*
X149225000Y-66675000D02*
X154305000Y-66675000D01*
X154305000Y-66675000D02*
X154305000Y-64135000D01*
X154305000Y-64135000D02*
X149225000Y-64135000D01*
X149225000Y-64135000D02*
X149225000Y-66675000D01*
X154305000Y-64135000D02*
X159385000Y-64135000D01*
X159385000Y-64135000D02*
X159385000Y-61595000D01*
X159385000Y-61595000D02*
X154305000Y-61595000D01*
X149225000Y-64135000D02*
X154305000Y-64135000D01*
X154305000Y-64135000D02*
X154305000Y-61595000D01*
X154305000Y-61595000D02*
X149225000Y-61595000D01*
X149225000Y-61595000D02*
X149225000Y-64135000D01*
X154305000Y-61595000D02*
X159385000Y-61595000D01*
X159385000Y-61595000D02*
X159385000Y-59055000D01*
X159385000Y-59055000D02*
X154305000Y-59055000D01*
X149225000Y-61595000D02*
X154305000Y-61595000D01*
X154305000Y-61595000D02*
X154305000Y-59055000D01*
X154305000Y-59055000D02*
X149225000Y-59055000D01*
X149225000Y-59055000D02*
X149225000Y-61595000D01*
X170815000Y-79375000D02*
X165735000Y-79375000D01*
X165735000Y-79375000D02*
X165735000Y-81915000D01*
X165735000Y-81915000D02*
X170815000Y-81915000D01*
X175895000Y-79375000D02*
X170815000Y-79375000D01*
X170815000Y-79375000D02*
X170815000Y-81915000D01*
X170815000Y-81915000D02*
X175895000Y-81915000D01*
X175895000Y-81915000D02*
X175895000Y-79375000D01*
X170815000Y-102235000D02*
X165735000Y-102235000D01*
X165735000Y-102235000D02*
X165735000Y-104775000D01*
X165735000Y-104775000D02*
X170815000Y-104775000D01*
X175895000Y-102235000D02*
X170815000Y-102235000D01*
X170815000Y-102235000D02*
X170815000Y-104775000D01*
X170815000Y-104775000D02*
X175895000Y-104775000D01*
X175895000Y-104775000D02*
X175895000Y-102235000D01*
X170815000Y-99695000D02*
X165735000Y-99695000D01*
X165735000Y-99695000D02*
X165735000Y-102235000D01*
X165735000Y-102235000D02*
X170815000Y-102235000D01*
X175895000Y-99695000D02*
X170815000Y-99695000D01*
X170815000Y-99695000D02*
X170815000Y-102235000D01*
X170815000Y-102235000D02*
X175895000Y-102235000D01*
X175895000Y-102235000D02*
X175895000Y-99695000D01*
X170815000Y-97155000D02*
X165735000Y-97155000D01*
X165735000Y-97155000D02*
X165735000Y-99695000D01*
X165735000Y-99695000D02*
X170815000Y-99695000D01*
X175895000Y-97155000D02*
X170815000Y-97155000D01*
X170815000Y-97155000D02*
X170815000Y-99695000D01*
X170815000Y-99695000D02*
X175895000Y-99695000D01*
X175895000Y-99695000D02*
X175895000Y-97155000D01*
X170815000Y-94615000D02*
X165735000Y-94615000D01*
X165735000Y-94615000D02*
X165735000Y-97155000D01*
X165735000Y-97155000D02*
X170815000Y-97155000D01*
X175895000Y-94615000D02*
X170815000Y-94615000D01*
X170815000Y-94615000D02*
X170815000Y-97155000D01*
X170815000Y-97155000D02*
X175895000Y-97155000D01*
X175895000Y-97155000D02*
X175895000Y-94615000D01*
X170815000Y-92075000D02*
X165735000Y-92075000D01*
X165735000Y-92075000D02*
X165735000Y-94615000D01*
X165735000Y-94615000D02*
X170815000Y-94615000D01*
X175895000Y-92075000D02*
X170815000Y-92075000D01*
X170815000Y-92075000D02*
X170815000Y-94615000D01*
X170815000Y-94615000D02*
X175895000Y-94615000D01*
X175895000Y-94615000D02*
X175895000Y-92075000D01*
X170815000Y-89535000D02*
X165735000Y-89535000D01*
X165735000Y-89535000D02*
X165735000Y-92075000D01*
X165735000Y-92075000D02*
X170815000Y-92075000D01*
X175895000Y-89535000D02*
X170815000Y-89535000D01*
X170815000Y-89535000D02*
X170815000Y-92075000D01*
X170815000Y-92075000D02*
X175895000Y-92075000D01*
X175895000Y-92075000D02*
X175895000Y-89535000D01*
X170815000Y-86995000D02*
X165735000Y-86995000D01*
X165735000Y-86995000D02*
X165735000Y-89535000D01*
X165735000Y-89535000D02*
X170815000Y-89535000D01*
X175895000Y-86995000D02*
X170815000Y-86995000D01*
X170815000Y-86995000D02*
X170815000Y-89535000D01*
X170815000Y-89535000D02*
X175895000Y-89535000D01*
X175895000Y-89535000D02*
X175895000Y-86995000D01*
X170815000Y-84455000D02*
X165735000Y-84455000D01*
X165735000Y-84455000D02*
X165735000Y-86995000D01*
X165735000Y-86995000D02*
X170815000Y-86995000D01*
X175895000Y-84455000D02*
X170815000Y-84455000D01*
X170815000Y-84455000D02*
X170815000Y-86995000D01*
X170815000Y-86995000D02*
X175895000Y-86995000D01*
X175895000Y-86995000D02*
X175895000Y-84455000D01*
X170815000Y-81915000D02*
X165735000Y-81915000D01*
X165735000Y-81915000D02*
X165735000Y-84455000D01*
X165735000Y-84455000D02*
X170815000Y-84455000D01*
X175895000Y-81915000D02*
X170815000Y-81915000D01*
X170815000Y-81915000D02*
X170815000Y-84455000D01*
X170815000Y-84455000D02*
X175895000Y-84455000D01*
X175895000Y-84455000D02*
X175895000Y-81915000D01*
X154305000Y-59055000D02*
X159385000Y-59055000D01*
X159385000Y-59055000D02*
X159385000Y-56515000D01*
X159385000Y-56515000D02*
X154305000Y-56515000D01*
X149225000Y-59055000D02*
X154305000Y-59055000D01*
X154305000Y-59055000D02*
X154305000Y-56515000D01*
X154305000Y-56515000D02*
X149225000Y-56515000D01*
X149225000Y-56515000D02*
X149225000Y-59055000D01*
X170815000Y-76835000D02*
X165735000Y-76835000D01*
X165735000Y-76835000D02*
X165735000Y-79375000D01*
X165735000Y-79375000D02*
X170815000Y-79375000D01*
X175895000Y-76835000D02*
X170815000Y-76835000D01*
X170815000Y-76835000D02*
X170815000Y-79375000D01*
X170815000Y-79375000D02*
X175895000Y-79375000D01*
X175895000Y-79375000D02*
X175895000Y-76835000D01*
X170815000Y-74295000D02*
X165735000Y-74295000D01*
X165735000Y-74295000D02*
X165735000Y-76835000D01*
X165735000Y-76835000D02*
X170815000Y-76835000D01*
X175895000Y-74295000D02*
X170815000Y-74295000D01*
X170815000Y-74295000D02*
X170815000Y-76835000D01*
X170815000Y-76835000D02*
X175895000Y-76835000D01*
X175895000Y-76835000D02*
X175895000Y-74295000D01*
X170815000Y-71755000D02*
X165735000Y-71755000D01*
X165735000Y-71755000D02*
X165735000Y-74295000D01*
X165735000Y-74295000D02*
X170815000Y-74295000D01*
X175895000Y-71755000D02*
X170815000Y-71755000D01*
X170815000Y-71755000D02*
X170815000Y-74295000D01*
X170815000Y-74295000D02*
X175895000Y-74295000D01*
X175895000Y-74295000D02*
X175895000Y-71755000D01*
X170815000Y-69215000D02*
X165735000Y-69215000D01*
X165735000Y-69215000D02*
X165735000Y-71755000D01*
X165735000Y-71755000D02*
X170815000Y-71755000D01*
X175895000Y-69215000D02*
X170815000Y-69215000D01*
X170815000Y-69215000D02*
X170815000Y-71755000D01*
X170815000Y-71755000D02*
X175895000Y-71755000D01*
X175895000Y-71755000D02*
X175895000Y-69215000D01*
X170815000Y-66675000D02*
X165735000Y-66675000D01*
X165735000Y-66675000D02*
X165735000Y-69215000D01*
X165735000Y-69215000D02*
X170815000Y-69215000D01*
X175895000Y-66675000D02*
X170815000Y-66675000D01*
X170815000Y-66675000D02*
X170815000Y-69215000D01*
X170815000Y-69215000D02*
X175895000Y-69215000D01*
X175895000Y-69215000D02*
X175895000Y-66675000D01*
X170815000Y-64135000D02*
X165735000Y-64135000D01*
X165735000Y-64135000D02*
X165735000Y-66675000D01*
X165735000Y-66675000D02*
X170815000Y-66675000D01*
X175895000Y-64135000D02*
X170815000Y-64135000D01*
X170815000Y-64135000D02*
X170815000Y-66675000D01*
X170815000Y-66675000D02*
X175895000Y-66675000D01*
X175895000Y-66675000D02*
X175895000Y-64135000D01*
X170815000Y-61595000D02*
X165735000Y-61595000D01*
X165735000Y-61595000D02*
X165735000Y-64135000D01*
X165735000Y-64135000D02*
X170815000Y-64135000D01*
X175895000Y-61595000D02*
X170815000Y-61595000D01*
X170815000Y-61595000D02*
X170815000Y-64135000D01*
X170815000Y-64135000D02*
X175895000Y-64135000D01*
X175895000Y-64135000D02*
X175895000Y-61595000D01*
X170815000Y-59055000D02*
X165735000Y-59055000D01*
X165735000Y-59055000D02*
X165735000Y-61595000D01*
X165735000Y-61595000D02*
X170815000Y-61595000D01*
X175895000Y-59055000D02*
X170815000Y-59055000D01*
X170815000Y-59055000D02*
X170815000Y-61595000D01*
X170815000Y-61595000D02*
X175895000Y-61595000D01*
X175895000Y-61595000D02*
X175895000Y-59055000D01*
X93345000Y-81915000D02*
X98425000Y-81915000D01*
X98425000Y-81915000D02*
X98425000Y-79375000D01*
X98425000Y-79375000D02*
X93345000Y-79375000D01*
X88265000Y-81915000D02*
X93345000Y-81915000D01*
X93345000Y-81915000D02*
X93345000Y-79375000D01*
X93345000Y-79375000D02*
X88265000Y-79375000D01*
X88265000Y-79375000D02*
X88265000Y-81915000D01*
X93345000Y-104775000D02*
X98425000Y-104775000D01*
X98425000Y-104775000D02*
X98425000Y-102235000D01*
X98425000Y-102235000D02*
X93345000Y-102235000D01*
X88265000Y-104775000D02*
X93345000Y-104775000D01*
X93345000Y-104775000D02*
X93345000Y-102235000D01*
X93345000Y-102235000D02*
X88265000Y-102235000D01*
X88265000Y-102235000D02*
X88265000Y-104775000D01*
X93345000Y-102235000D02*
X98425000Y-102235000D01*
X98425000Y-102235000D02*
X98425000Y-99695000D01*
X98425000Y-99695000D02*
X93345000Y-99695000D01*
X88265000Y-102235000D02*
X93345000Y-102235000D01*
X93345000Y-102235000D02*
X93345000Y-99695000D01*
X93345000Y-99695000D02*
X88265000Y-99695000D01*
X88265000Y-99695000D02*
X88265000Y-102235000D01*
X93345000Y-99695000D02*
X98425000Y-99695000D01*
X98425000Y-99695000D02*
X98425000Y-97155000D01*
X98425000Y-97155000D02*
X93345000Y-97155000D01*
X88265000Y-99695000D02*
X93345000Y-99695000D01*
X93345000Y-99695000D02*
X93345000Y-97155000D01*
X93345000Y-97155000D02*
X88265000Y-97155000D01*
X88265000Y-97155000D02*
X88265000Y-99695000D01*
X93345000Y-97155000D02*
X98425000Y-97155000D01*
X98425000Y-97155000D02*
X98425000Y-94615000D01*
X98425000Y-94615000D02*
X93345000Y-94615000D01*
X88265000Y-97155000D02*
X93345000Y-97155000D01*
X93345000Y-97155000D02*
X93345000Y-94615000D01*
X93345000Y-94615000D02*
X88265000Y-94615000D01*
X88265000Y-94615000D02*
X88265000Y-97155000D01*
X93345000Y-94615000D02*
X98425000Y-94615000D01*
X98425000Y-94615000D02*
X98425000Y-92075000D01*
X98425000Y-92075000D02*
X93345000Y-92075000D01*
X88265000Y-94615000D02*
X93345000Y-94615000D01*
X93345000Y-94615000D02*
X93345000Y-92075000D01*
X93345000Y-92075000D02*
X88265000Y-92075000D01*
X88265000Y-92075000D02*
X88265000Y-94615000D01*
X93345000Y-92075000D02*
X98425000Y-92075000D01*
X98425000Y-92075000D02*
X98425000Y-89535000D01*
X98425000Y-89535000D02*
X93345000Y-89535000D01*
X88265000Y-92075000D02*
X93345000Y-92075000D01*
X93345000Y-92075000D02*
X93345000Y-89535000D01*
X93345000Y-89535000D02*
X88265000Y-89535000D01*
X88265000Y-89535000D02*
X88265000Y-92075000D01*
X93345000Y-89535000D02*
X98425000Y-89535000D01*
X98425000Y-89535000D02*
X98425000Y-86995000D01*
X98425000Y-86995000D02*
X93345000Y-86995000D01*
X88265000Y-89535000D02*
X93345000Y-89535000D01*
X93345000Y-89535000D02*
X93345000Y-86995000D01*
X93345000Y-86995000D02*
X88265000Y-86995000D01*
X88265000Y-86995000D02*
X88265000Y-89535000D01*
X93345000Y-86995000D02*
X98425000Y-86995000D01*
X98425000Y-86995000D02*
X98425000Y-84455000D01*
X98425000Y-84455000D02*
X93345000Y-84455000D01*
X88265000Y-86995000D02*
X93345000Y-86995000D01*
X93345000Y-86995000D02*
X93345000Y-84455000D01*
X93345000Y-84455000D02*
X88265000Y-84455000D01*
X88265000Y-84455000D02*
X88265000Y-86995000D01*
X93345000Y-84455000D02*
X98425000Y-84455000D01*
X98425000Y-84455000D02*
X98425000Y-81915000D01*
X98425000Y-81915000D02*
X93345000Y-81915000D01*
X88265000Y-84455000D02*
X93345000Y-84455000D01*
X93345000Y-84455000D02*
X93345000Y-81915000D01*
X93345000Y-81915000D02*
X88265000Y-81915000D01*
X88265000Y-81915000D02*
X88265000Y-84455000D01*
X109855000Y-56515000D02*
X104775000Y-56515000D01*
X104775000Y-56515000D02*
X104775000Y-59055000D01*
X104775000Y-59055000D02*
X109855000Y-59055000D01*
X114935000Y-56515000D02*
X109855000Y-56515000D01*
X109855000Y-56515000D02*
X109855000Y-59055000D01*
X109855000Y-59055000D02*
X114935000Y-59055000D01*
X114935000Y-59055000D02*
X114935000Y-56515000D01*
X93345000Y-79375000D02*
X98425000Y-79375000D01*
X98425000Y-79375000D02*
X98425000Y-76835000D01*
X98425000Y-76835000D02*
X93345000Y-76835000D01*
X88265000Y-79375000D02*
X93345000Y-79375000D01*
X93345000Y-79375000D02*
X93345000Y-76835000D01*
X93345000Y-76835000D02*
X88265000Y-76835000D01*
X88265000Y-76835000D02*
X88265000Y-79375000D01*
X93345000Y-76835000D02*
X98425000Y-76835000D01*
X98425000Y-76835000D02*
X98425000Y-74295000D01*
X98425000Y-74295000D02*
X93345000Y-74295000D01*
X88265000Y-76835000D02*
X93345000Y-76835000D01*
X93345000Y-76835000D02*
X93345000Y-74295000D01*
X93345000Y-74295000D02*
X88265000Y-74295000D01*
X88265000Y-74295000D02*
X88265000Y-76835000D01*
X93345000Y-74295000D02*
X98425000Y-74295000D01*
X98425000Y-74295000D02*
X98425000Y-71755000D01*
X98425000Y-71755000D02*
X93345000Y-71755000D01*
X88265000Y-74295000D02*
X93345000Y-74295000D01*
X93345000Y-74295000D02*
X93345000Y-71755000D01*
X93345000Y-71755000D02*
X88265000Y-71755000D01*
X88265000Y-71755000D02*
X88265000Y-74295000D01*
X93345000Y-71755000D02*
X98425000Y-71755000D01*
X98425000Y-71755000D02*
X98425000Y-69215000D01*
X98425000Y-69215000D02*
X93345000Y-69215000D01*
X88265000Y-71755000D02*
X93345000Y-71755000D01*
X93345000Y-71755000D02*
X93345000Y-69215000D01*
X93345000Y-69215000D02*
X88265000Y-69215000D01*
X88265000Y-69215000D02*
X88265000Y-71755000D01*
X93345000Y-69215000D02*
X98425000Y-69215000D01*
X98425000Y-69215000D02*
X98425000Y-66675000D01*
X98425000Y-66675000D02*
X93345000Y-66675000D01*
X88265000Y-69215000D02*
X93345000Y-69215000D01*
X93345000Y-69215000D02*
X93345000Y-66675000D01*
X93345000Y-66675000D02*
X88265000Y-66675000D01*
X88265000Y-66675000D02*
X88265000Y-69215000D01*
X93345000Y-66675000D02*
X98425000Y-66675000D01*
X98425000Y-66675000D02*
X98425000Y-64135000D01*
X98425000Y-64135000D02*
X93345000Y-64135000D01*
X88265000Y-66675000D02*
X93345000Y-66675000D01*
X93345000Y-66675000D02*
X93345000Y-64135000D01*
X93345000Y-64135000D02*
X88265000Y-64135000D01*
X88265000Y-64135000D02*
X88265000Y-66675000D01*
X93345000Y-64135000D02*
X98425000Y-64135000D01*
X98425000Y-64135000D02*
X98425000Y-61595000D01*
X98425000Y-61595000D02*
X93345000Y-61595000D01*
X88265000Y-64135000D02*
X93345000Y-64135000D01*
X93345000Y-64135000D02*
X93345000Y-61595000D01*
X93345000Y-61595000D02*
X88265000Y-61595000D01*
X88265000Y-61595000D02*
X88265000Y-64135000D01*
X93345000Y-61595000D02*
X98425000Y-61595000D01*
X98425000Y-61595000D02*
X98425000Y-59055000D01*
X98425000Y-59055000D02*
X93345000Y-59055000D01*
X88265000Y-61595000D02*
X93345000Y-61595000D01*
X93345000Y-61595000D02*
X93345000Y-59055000D01*
X93345000Y-59055000D02*
X88265000Y-59055000D01*
X88265000Y-59055000D02*
X88265000Y-61595000D01*
X109855000Y-79375000D02*
X104775000Y-79375000D01*
X104775000Y-79375000D02*
X104775000Y-81915000D01*
X104775000Y-81915000D02*
X109855000Y-81915000D01*
X114935000Y-79375000D02*
X109855000Y-79375000D01*
X109855000Y-79375000D02*
X109855000Y-81915000D01*
X109855000Y-81915000D02*
X114935000Y-81915000D01*
X114935000Y-81915000D02*
X114935000Y-79375000D01*
X109855000Y-102235000D02*
X104775000Y-102235000D01*
X104775000Y-102235000D02*
X104775000Y-104775000D01*
X104775000Y-104775000D02*
X109855000Y-104775000D01*
X114935000Y-102235000D02*
X109855000Y-102235000D01*
X109855000Y-102235000D02*
X109855000Y-104775000D01*
X109855000Y-104775000D02*
X114935000Y-104775000D01*
X114935000Y-104775000D02*
X114935000Y-102235000D01*
X109855000Y-99695000D02*
X104775000Y-99695000D01*
X104775000Y-99695000D02*
X104775000Y-102235000D01*
X104775000Y-102235000D02*
X109855000Y-102235000D01*
X114935000Y-99695000D02*
X109855000Y-99695000D01*
X109855000Y-99695000D02*
X109855000Y-102235000D01*
X109855000Y-102235000D02*
X114935000Y-102235000D01*
X114935000Y-102235000D02*
X114935000Y-99695000D01*
X109855000Y-97155000D02*
X104775000Y-97155000D01*
X104775000Y-97155000D02*
X104775000Y-99695000D01*
X104775000Y-99695000D02*
X109855000Y-99695000D01*
X114935000Y-97155000D02*
X109855000Y-97155000D01*
X109855000Y-97155000D02*
X109855000Y-99695000D01*
X109855000Y-99695000D02*
X114935000Y-99695000D01*
X114935000Y-99695000D02*
X114935000Y-97155000D01*
X109855000Y-94615000D02*
X104775000Y-94615000D01*
X104775000Y-94615000D02*
X104775000Y-97155000D01*
X104775000Y-97155000D02*
X109855000Y-97155000D01*
X114935000Y-94615000D02*
X109855000Y-94615000D01*
X109855000Y-94615000D02*
X109855000Y-97155000D01*
X109855000Y-97155000D02*
X114935000Y-97155000D01*
X114935000Y-97155000D02*
X114935000Y-94615000D01*
X109855000Y-92075000D02*
X104775000Y-92075000D01*
X104775000Y-92075000D02*
X104775000Y-94615000D01*
X104775000Y-94615000D02*
X109855000Y-94615000D01*
X114935000Y-92075000D02*
X109855000Y-92075000D01*
X109855000Y-92075000D02*
X109855000Y-94615000D01*
X109855000Y-94615000D02*
X114935000Y-94615000D01*
X114935000Y-94615000D02*
X114935000Y-92075000D01*
X109855000Y-89535000D02*
X104775000Y-89535000D01*
X104775000Y-89535000D02*
X104775000Y-92075000D01*
X104775000Y-92075000D02*
X109855000Y-92075000D01*
X114935000Y-89535000D02*
X109855000Y-89535000D01*
X109855000Y-89535000D02*
X109855000Y-92075000D01*
X109855000Y-92075000D02*
X114935000Y-92075000D01*
X114935000Y-92075000D02*
X114935000Y-89535000D01*
X109855000Y-86995000D02*
X104775000Y-86995000D01*
X104775000Y-86995000D02*
X104775000Y-89535000D01*
X104775000Y-89535000D02*
X109855000Y-89535000D01*
X114935000Y-86995000D02*
X109855000Y-86995000D01*
X109855000Y-86995000D02*
X109855000Y-89535000D01*
X109855000Y-89535000D02*
X114935000Y-89535000D01*
X114935000Y-89535000D02*
X114935000Y-86995000D01*
X109855000Y-84455000D02*
X104775000Y-84455000D01*
X104775000Y-84455000D02*
X104775000Y-86995000D01*
X104775000Y-86995000D02*
X109855000Y-86995000D01*
X114935000Y-84455000D02*
X109855000Y-84455000D01*
X109855000Y-84455000D02*
X109855000Y-86995000D01*
X109855000Y-86995000D02*
X114935000Y-86995000D01*
X114935000Y-86995000D02*
X114935000Y-84455000D01*
X109855000Y-81915000D02*
X104775000Y-81915000D01*
X104775000Y-81915000D02*
X104775000Y-84455000D01*
X104775000Y-84455000D02*
X109855000Y-84455000D01*
X114935000Y-81915000D02*
X109855000Y-81915000D01*
X109855000Y-81915000D02*
X109855000Y-84455000D01*
X109855000Y-84455000D02*
X114935000Y-84455000D01*
X114935000Y-84455000D02*
X114935000Y-81915000D01*
X93345000Y-59055000D02*
X98425000Y-59055000D01*
X98425000Y-59055000D02*
X98425000Y-56515000D01*
X98425000Y-56515000D02*
X93345000Y-56515000D01*
X88265000Y-59055000D02*
X93345000Y-59055000D01*
X93345000Y-59055000D02*
X93345000Y-56515000D01*
X93345000Y-56515000D02*
X88265000Y-56515000D01*
X88265000Y-56515000D02*
X88265000Y-59055000D01*
X109855000Y-76835000D02*
X104775000Y-76835000D01*
X104775000Y-76835000D02*
X104775000Y-79375000D01*
X104775000Y-79375000D02*
X109855000Y-79375000D01*
X114935000Y-76835000D02*
X109855000Y-76835000D01*
X109855000Y-76835000D02*
X109855000Y-79375000D01*
X109855000Y-79375000D02*
X114935000Y-79375000D01*
X114935000Y-79375000D02*
X114935000Y-76835000D01*
X109855000Y-74295000D02*
X104775000Y-74295000D01*
X104775000Y-74295000D02*
X104775000Y-76835000D01*
X104775000Y-76835000D02*
X109855000Y-76835000D01*
X114935000Y-74295000D02*
X109855000Y-74295000D01*
X109855000Y-74295000D02*
X109855000Y-76835000D01*
X109855000Y-76835000D02*
X114935000Y-76835000D01*
X114935000Y-76835000D02*
X114935000Y-74295000D01*
X109855000Y-71755000D02*
X104775000Y-71755000D01*
X104775000Y-71755000D02*
X104775000Y-74295000D01*
X104775000Y-74295000D02*
X109855000Y-74295000D01*
X114935000Y-71755000D02*
X109855000Y-71755000D01*
X109855000Y-71755000D02*
X109855000Y-74295000D01*
X109855000Y-74295000D02*
X114935000Y-74295000D01*
X114935000Y-74295000D02*
X114935000Y-71755000D01*
X109855000Y-69215000D02*
X104775000Y-69215000D01*
X104775000Y-69215000D02*
X104775000Y-71755000D01*
X104775000Y-71755000D02*
X109855000Y-71755000D01*
X114935000Y-69215000D02*
X109855000Y-69215000D01*
X109855000Y-69215000D02*
X109855000Y-71755000D01*
X109855000Y-71755000D02*
X114935000Y-71755000D01*
X114935000Y-71755000D02*
X114935000Y-69215000D01*
X109855000Y-66675000D02*
X104775000Y-66675000D01*
X104775000Y-66675000D02*
X104775000Y-69215000D01*
X104775000Y-69215000D02*
X109855000Y-69215000D01*
X114935000Y-66675000D02*
X109855000Y-66675000D01*
X109855000Y-66675000D02*
X109855000Y-69215000D01*
X109855000Y-69215000D02*
X114935000Y-69215000D01*
X114935000Y-69215000D02*
X114935000Y-66675000D01*
X109855000Y-64135000D02*
X104775000Y-64135000D01*
X104775000Y-64135000D02*
X104775000Y-66675000D01*
X104775000Y-66675000D02*
X109855000Y-66675000D01*
X114935000Y-64135000D02*
X109855000Y-64135000D01*
X109855000Y-64135000D02*
X109855000Y-66675000D01*
X109855000Y-66675000D02*
X114935000Y-66675000D01*
X114935000Y-66675000D02*
X114935000Y-64135000D01*
X109855000Y-61595000D02*
X104775000Y-61595000D01*
X104775000Y-61595000D02*
X104775000Y-64135000D01*
X104775000Y-64135000D02*
X109855000Y-64135000D01*
X114935000Y-61595000D02*
X109855000Y-61595000D01*
X109855000Y-61595000D02*
X109855000Y-64135000D01*
X109855000Y-64135000D02*
X114935000Y-64135000D01*
X114935000Y-64135000D02*
X114935000Y-61595000D01*
X109855000Y-59055000D02*
X104775000Y-59055000D01*
X104775000Y-59055000D02*
X104775000Y-61595000D01*
X104775000Y-61595000D02*
X109855000Y-61595000D01*
X114935000Y-59055000D02*
X109855000Y-59055000D01*
X109855000Y-59055000D02*
X109855000Y-61595000D01*
X109855000Y-61595000D02*
X114935000Y-61595000D01*
X114935000Y-61595000D02*
X114935000Y-59055000D01*
D12*
X110236000Y-53975000D02*
G75*
G03X110236000Y-53975000I-2286000J0D01*
G01*
X158496000Y-55245000D02*
G75*
G03X158496000Y-55245000I-2286000J0D01*
G01*
X143256000Y-106045000D02*
G75*
G03X143256000Y-106045000I-2286000J0D01*
G01*
D10*
X100909524Y-54967143D02*
X100861905Y-55014762D01*
X100719048Y-55062381D01*
X100623810Y-55062381D01*
X100480952Y-55014762D01*
X100385714Y-54919524D01*
X100338095Y-54824286D01*
X100290476Y-54633810D01*
X100290476Y-54490952D01*
X100338095Y-54300476D01*
X100385714Y-54205238D01*
X100480952Y-54110000D01*
X100623810Y-54062381D01*
X100719048Y-54062381D01*
X100861905Y-54110000D01*
X100909524Y-54157619D01*
X101338095Y-55062381D02*
X101338095Y-54062381D01*
X101909524Y-55062381D01*
X101909524Y-54062381D01*
X102290476Y-54062381D02*
X102957143Y-54062381D01*
X102528571Y-55062381D01*
X161393334Y-54967143D02*
X161345715Y-55014762D01*
X161202858Y-55062381D01*
X161107620Y-55062381D01*
X160964762Y-55014762D01*
X160869524Y-54919524D01*
X160821905Y-54824286D01*
X160774286Y-54633810D01*
X160774286Y-54490952D01*
X160821905Y-54300476D01*
X160869524Y-54205238D01*
X160964762Y-54110000D01*
X161107620Y-54062381D01*
X161202858Y-54062381D01*
X161345715Y-54110000D01*
X161393334Y-54157619D01*
X161821905Y-55062381D02*
X161821905Y-54062381D01*
X162393334Y-55062381D01*
X162393334Y-54062381D01*
X163393334Y-55062381D02*
X162821905Y-55062381D01*
X163107619Y-55062381D02*
X163107619Y-54062381D01*
X163012381Y-54205238D01*
X162917143Y-54300476D01*
X162821905Y-54348095D01*
X164012381Y-54062381D02*
X164107620Y-54062381D01*
X164202858Y-54110000D01*
X164250477Y-54157619D01*
X164298096Y-54252857D01*
X164345715Y-54443333D01*
X164345715Y-54681429D01*
X164298096Y-54871905D01*
X164250477Y-54967143D01*
X164202858Y-55014762D01*
X164107620Y-55062381D01*
X164012381Y-55062381D01*
X163917143Y-55014762D01*
X163869524Y-54967143D01*
X163821905Y-54871905D01*
X163774286Y-54681429D01*
X163774286Y-54443333D01*
X163821905Y-54252857D01*
X163869524Y-54157619D01*
X163917143Y-54110000D01*
X164012381Y-54062381D01*
%LPC*%
D13*
X128270000Y-100965000D03*
X135890000Y-100965000D03*
X128270000Y-102235000D03*
X135890000Y-102235000D03*
D14*
X124714000Y-100965000D03*
X121158000Y-100965000D03*
X122936000Y-102235000D03*
X119380000Y-102235000D03*
X141224000Y-102235000D03*
X144780000Y-102235000D03*
X139446000Y-100965000D03*
X143002000Y-100965000D03*
D13*
X128270000Y-98425000D03*
X135890000Y-98425000D03*
X128270000Y-99695000D03*
X135890000Y-99695000D03*
D14*
X124714000Y-98425000D03*
X121158000Y-98425000D03*
X122936000Y-99695000D03*
X119380000Y-99695000D03*
X141224000Y-99695000D03*
X144780000Y-99695000D03*
X139446000Y-98425000D03*
X143002000Y-98425000D03*
D13*
X128270000Y-78105000D03*
X135890000Y-78105000D03*
X128270000Y-79375000D03*
X135890000Y-79375000D03*
D14*
X124714000Y-78105000D03*
X121158000Y-78105000D03*
X122936000Y-79375000D03*
X119380000Y-79375000D03*
X141224000Y-79375000D03*
X144780000Y-79375000D03*
X139446000Y-78105000D03*
X143002000Y-78105000D03*
D13*
X128270000Y-80645000D03*
X135890000Y-80645000D03*
X128270000Y-81915000D03*
X135890000Y-81915000D03*
D14*
X124714000Y-80645000D03*
X121158000Y-80645000D03*
X122936000Y-81915000D03*
X119380000Y-81915000D03*
X141224000Y-81915000D03*
X144780000Y-81915000D03*
X139446000Y-80645000D03*
X143002000Y-80645000D03*
D13*
X128270000Y-85725000D03*
X135890000Y-85725000D03*
X128270000Y-86995000D03*
X135890000Y-86995000D03*
D14*
X124714000Y-85725000D03*
X121158000Y-85725000D03*
X122936000Y-86995000D03*
X119380000Y-86995000D03*
X141224000Y-86995000D03*
X144780000Y-86995000D03*
X139446000Y-85725000D03*
X143002000Y-85725000D03*
D13*
X128270000Y-83185000D03*
X135890000Y-83185000D03*
X128270000Y-84455000D03*
X135890000Y-84455000D03*
D14*
X124714000Y-83185000D03*
X121158000Y-83185000D03*
X122936000Y-84455000D03*
X119380000Y-84455000D03*
X141224000Y-84455000D03*
X144780000Y-84455000D03*
X139446000Y-83185000D03*
X143002000Y-83185000D03*
D13*
X128270000Y-93345000D03*
X135890000Y-93345000D03*
X128270000Y-94615000D03*
X135890000Y-94615000D03*
D14*
X124714000Y-93345000D03*
X121158000Y-93345000D03*
X122936000Y-94615000D03*
X119380000Y-94615000D03*
X141224000Y-94615000D03*
X144780000Y-94615000D03*
X139446000Y-93345000D03*
X143002000Y-93345000D03*
D13*
X128270000Y-95885000D03*
X135890000Y-95885000D03*
X128270000Y-97155000D03*
X135890000Y-97155000D03*
D14*
X124714000Y-95885000D03*
X121158000Y-95885000D03*
X122936000Y-97155000D03*
X119380000Y-97155000D03*
X141224000Y-97155000D03*
X144780000Y-97155000D03*
X139446000Y-95885000D03*
X143002000Y-95885000D03*
D13*
X128270000Y-90805000D03*
X135890000Y-90805000D03*
X128270000Y-92075000D03*
X135890000Y-92075000D03*
D14*
X124714000Y-90805000D03*
X121158000Y-90805000D03*
X122936000Y-92075000D03*
X119380000Y-92075000D03*
X141224000Y-92075000D03*
X144780000Y-92075000D03*
X139446000Y-90805000D03*
X143002000Y-90805000D03*
D13*
X128270000Y-88265000D03*
X135890000Y-88265000D03*
X128270000Y-89535000D03*
X135890000Y-89535000D03*
D14*
X124714000Y-88265000D03*
X121158000Y-88265000D03*
X122936000Y-89535000D03*
X119380000Y-89535000D03*
X141224000Y-89535000D03*
X144780000Y-89535000D03*
X139446000Y-88265000D03*
X143002000Y-88265000D03*
D13*
X128270000Y-67945000D03*
X135890000Y-67945000D03*
X128270000Y-69215000D03*
X135890000Y-69215000D03*
D14*
X124714000Y-67945000D03*
X121158000Y-67945000D03*
X122936000Y-69215000D03*
X119380000Y-69215000D03*
X141224000Y-69215000D03*
X144780000Y-69215000D03*
X139446000Y-67945000D03*
X143002000Y-67945000D03*
D13*
X128270000Y-70485000D03*
X135890000Y-70485000D03*
X128270000Y-71755000D03*
X135890000Y-71755000D03*
D14*
X124714000Y-70485000D03*
X121158000Y-70485000D03*
X122936000Y-71755000D03*
X119380000Y-71755000D03*
X141224000Y-71755000D03*
X144780000Y-71755000D03*
X139446000Y-70485000D03*
X143002000Y-70485000D03*
D13*
X128270000Y-75565000D03*
X135890000Y-75565000D03*
X128270000Y-76835000D03*
X135890000Y-76835000D03*
D14*
X124714000Y-75565000D03*
X121158000Y-75565000D03*
X122936000Y-76835000D03*
X119380000Y-76835000D03*
X141224000Y-76835000D03*
X144780000Y-76835000D03*
X139446000Y-75565000D03*
X143002000Y-75565000D03*
D13*
X128270000Y-73025000D03*
X135890000Y-73025000D03*
X128270000Y-74295000D03*
X135890000Y-74295000D03*
D14*
X124714000Y-73025000D03*
X121158000Y-73025000D03*
X122936000Y-74295000D03*
X119380000Y-74295000D03*
X141224000Y-74295000D03*
X144780000Y-74295000D03*
X139446000Y-73025000D03*
X143002000Y-73025000D03*
D13*
X128270000Y-62865000D03*
X135890000Y-62865000D03*
X128270000Y-64135000D03*
X135890000Y-64135000D03*
D14*
X124714000Y-62865000D03*
X121158000Y-62865000D03*
X122936000Y-64135000D03*
X119380000Y-64135000D03*
X141224000Y-64135000D03*
X144780000Y-64135000D03*
X139446000Y-62865000D03*
X143002000Y-62865000D03*
D13*
X128270000Y-65405000D03*
X135890000Y-65405000D03*
X128270000Y-66675000D03*
X135890000Y-66675000D03*
D14*
X124714000Y-65405000D03*
X121158000Y-65405000D03*
X122936000Y-66675000D03*
X119380000Y-66675000D03*
X141224000Y-66675000D03*
X144780000Y-66675000D03*
X139446000Y-65405000D03*
X143002000Y-65405000D03*
D15*
X100330000Y-57785000D03*
D16*
X102870000Y-57785000D03*
X100330000Y-60325000D03*
X102870000Y-60325000D03*
X100330000Y-62865000D03*
X102870000Y-62865000D03*
X100330000Y-65405000D03*
X102870000Y-65405000D03*
X100330000Y-67945000D03*
X102870000Y-67945000D03*
X100330000Y-70485000D03*
X102870000Y-70485000D03*
X100330000Y-73025000D03*
X102870000Y-73025000D03*
X100330000Y-75565000D03*
X102870000Y-75565000D03*
X100330000Y-78105000D03*
X102870000Y-78105000D03*
X100330000Y-80645000D03*
X102870000Y-80645000D03*
X100330000Y-83185000D03*
X102870000Y-83185000D03*
X100330000Y-85725000D03*
X102870000Y-85725000D03*
X100330000Y-88265000D03*
X102870000Y-88265000D03*
X100330000Y-90805000D03*
X102870000Y-90805000D03*
X100330000Y-93345000D03*
X102870000Y-93345000D03*
X100330000Y-95885000D03*
X102870000Y-95885000D03*
X100330000Y-98425000D03*
X102870000Y-98425000D03*
X100330000Y-100965000D03*
X102870000Y-100965000D03*
X100330000Y-103505000D03*
X102870000Y-103505000D03*
D15*
X161290000Y-57785000D03*
D16*
X163830000Y-57785000D03*
X161290000Y-60325000D03*
X163830000Y-60325000D03*
X161290000Y-62865000D03*
X163830000Y-62865000D03*
X161290000Y-65405000D03*
X163830000Y-65405000D03*
X161290000Y-67945000D03*
X163830000Y-67945000D03*
X161290000Y-70485000D03*
X163830000Y-70485000D03*
X161290000Y-73025000D03*
X163830000Y-73025000D03*
X161290000Y-75565000D03*
X163830000Y-75565000D03*
X161290000Y-78105000D03*
X163830000Y-78105000D03*
X161290000Y-80645000D03*
X163830000Y-80645000D03*
X161290000Y-83185000D03*
X163830000Y-83185000D03*
X161290000Y-85725000D03*
X163830000Y-85725000D03*
X161290000Y-88265000D03*
X163830000Y-88265000D03*
X161290000Y-90805000D03*
X163830000Y-90805000D03*
X161290000Y-93345000D03*
X163830000Y-93345000D03*
X161290000Y-95885000D03*
X163830000Y-95885000D03*
X161290000Y-98425000D03*
X163830000Y-98425000D03*
X161290000Y-100965000D03*
X163830000Y-100965000D03*
X161290000Y-103505000D03*
X163830000Y-103505000D03*
X150495000Y-80645000D03*
X153035000Y-80645000D03*
X150495000Y-103505000D03*
X153035000Y-103505000D03*
X150495000Y-100965000D03*
X153035000Y-100965000D03*
X150495000Y-98425000D03*
X153035000Y-98425000D03*
X150495000Y-95885000D03*
X153035000Y-95885000D03*
X150495000Y-93345000D03*
X153035000Y-93345000D03*
X150495000Y-90805000D03*
X153035000Y-90805000D03*
X150495000Y-88265000D03*
X153035000Y-88265000D03*
X150495000Y-85725000D03*
X153035000Y-85725000D03*
X150495000Y-83185000D03*
X153035000Y-83185000D03*
X174625000Y-57785000D03*
X172085000Y-57785000D03*
X150495000Y-78105000D03*
X153035000Y-78105000D03*
X150495000Y-75565000D03*
X153035000Y-75565000D03*
X150495000Y-73025000D03*
X153035000Y-73025000D03*
X150495000Y-70485000D03*
X153035000Y-70485000D03*
X150495000Y-67945000D03*
X153035000Y-67945000D03*
X150495000Y-65405000D03*
X153035000Y-65405000D03*
X150495000Y-62865000D03*
X153035000Y-62865000D03*
X150495000Y-60325000D03*
X153035000Y-60325000D03*
X174625000Y-80645000D03*
X172085000Y-80645000D03*
X174625000Y-103505000D03*
X172085000Y-103505000D03*
X174625000Y-100965000D03*
X172085000Y-100965000D03*
X174625000Y-98425000D03*
X172085000Y-98425000D03*
X174625000Y-95885000D03*
X172085000Y-95885000D03*
X174625000Y-93345000D03*
X172085000Y-93345000D03*
X174625000Y-90805000D03*
X172085000Y-90805000D03*
X174625000Y-88265000D03*
X172085000Y-88265000D03*
X174625000Y-85725000D03*
X172085000Y-85725000D03*
X174625000Y-83185000D03*
X172085000Y-83185000D03*
X150495000Y-57785000D03*
X153035000Y-57785000D03*
X174625000Y-78105000D03*
X172085000Y-78105000D03*
X174625000Y-75565000D03*
X172085000Y-75565000D03*
X174625000Y-73025000D03*
X172085000Y-73025000D03*
X174625000Y-70485000D03*
X172085000Y-70485000D03*
X174625000Y-67945000D03*
X172085000Y-67945000D03*
X174625000Y-65405000D03*
X172085000Y-65405000D03*
X174625000Y-62865000D03*
X172085000Y-62865000D03*
X174625000Y-60325000D03*
X172085000Y-60325000D03*
X89535000Y-80645000D03*
X92075000Y-80645000D03*
X89535000Y-103505000D03*
X92075000Y-103505000D03*
X89535000Y-100965000D03*
X92075000Y-100965000D03*
X89535000Y-98425000D03*
X92075000Y-98425000D03*
X89535000Y-95885000D03*
X92075000Y-95885000D03*
X89535000Y-93345000D03*
X92075000Y-93345000D03*
X89535000Y-90805000D03*
X92075000Y-90805000D03*
X89535000Y-88265000D03*
X92075000Y-88265000D03*
X89535000Y-85725000D03*
X92075000Y-85725000D03*
X89535000Y-83185000D03*
X92075000Y-83185000D03*
X113665000Y-57785000D03*
X111125000Y-57785000D03*
X89535000Y-78105000D03*
X92075000Y-78105000D03*
X89535000Y-75565000D03*
X92075000Y-75565000D03*
X89535000Y-73025000D03*
X92075000Y-73025000D03*
X89535000Y-70485000D03*
X92075000Y-70485000D03*
X89535000Y-67945000D03*
X92075000Y-67945000D03*
X89535000Y-65405000D03*
X92075000Y-65405000D03*
X89535000Y-62865000D03*
X92075000Y-62865000D03*
X89535000Y-60325000D03*
X92075000Y-60325000D03*
X113665000Y-80645000D03*
X111125000Y-80645000D03*
X113665000Y-103505000D03*
X111125000Y-103505000D03*
X113665000Y-100965000D03*
X111125000Y-100965000D03*
X113665000Y-98425000D03*
X111125000Y-98425000D03*
X113665000Y-95885000D03*
X111125000Y-95885000D03*
X113665000Y-93345000D03*
X111125000Y-93345000D03*
X113665000Y-90805000D03*
X111125000Y-90805000D03*
X113665000Y-88265000D03*
X111125000Y-88265000D03*
X113665000Y-85725000D03*
X111125000Y-85725000D03*
X113665000Y-83185000D03*
X111125000Y-83185000D03*
X89535000Y-57785000D03*
X92075000Y-57785000D03*
X113665000Y-78105000D03*
X111125000Y-78105000D03*
X113665000Y-75565000D03*
X111125000Y-75565000D03*
X113665000Y-73025000D03*
X111125000Y-73025000D03*
X113665000Y-70485000D03*
X111125000Y-70485000D03*
X113665000Y-67945000D03*
X111125000Y-67945000D03*
X113665000Y-65405000D03*
X111125000Y-65405000D03*
X113665000Y-62865000D03*
X111125000Y-62865000D03*
X113665000Y-60325000D03*
X111125000Y-60325000D03*
D17*
X107950000Y-53975000D03*
X156210000Y-55245000D03*
X140970000Y-106045000D03*
D18*
X128270000Y-108585000D03*
X130810000Y-108585000D03*
X133350000Y-108585000D03*
X133350000Y-111125000D03*
X133350000Y-113665000D03*
X130810000Y-113665000D03*
X128270000Y-113665000D03*
X128270000Y-111125000D03*
X130810000Y-111125000D03*
X125730000Y-116205000D03*
X128270000Y-116205000D03*
X130810000Y-116205000D03*
X130810000Y-118745000D03*
X130810000Y-121285000D03*
X128270000Y-121285000D03*
X125730000Y-121285000D03*
X125730000Y-118745000D03*
X128270000Y-118745000D03*
X125730000Y-123825000D03*
X128270000Y-123825000D03*
X130810000Y-123825000D03*
X130810000Y-126365000D03*
X130810000Y-128905000D03*
X128270000Y-128905000D03*
X125730000Y-128905000D03*
X125730000Y-126365000D03*
X128270000Y-126365000D03*
X128270000Y-131445000D03*
X130810000Y-131445000D03*
X133350000Y-131445000D03*
X133350000Y-133985000D03*
X133350000Y-136525000D03*
X130810000Y-136525000D03*
X128270000Y-136525000D03*
X128270000Y-133985000D03*
X130810000Y-133985000D03*
X135890000Y-131445000D03*
X138430000Y-131445000D03*
X140970000Y-131445000D03*
X140970000Y-133985000D03*
X140970000Y-136525000D03*
X138430000Y-136525000D03*
X135890000Y-136525000D03*
X135890000Y-133985000D03*
X138430000Y-133985000D03*
X143510000Y-131445000D03*
X146050000Y-131445000D03*
X148590000Y-131445000D03*
X148590000Y-133985000D03*
X148590000Y-136525000D03*
X146050000Y-136525000D03*
X143510000Y-136525000D03*
X143510000Y-133985000D03*
X146050000Y-133985000D03*
X151130000Y-131445000D03*
X153670000Y-131445000D03*
X156210000Y-131445000D03*
X156210000Y-133985000D03*
X156210000Y-136525000D03*
X153670000Y-136525000D03*
X151130000Y-136525000D03*
X151130000Y-133985000D03*
X153670000Y-133985000D03*
X158750000Y-131445000D03*
X161290000Y-131445000D03*
X163830000Y-131445000D03*
X163830000Y-133985000D03*
X163830000Y-136525000D03*
X161290000Y-136525000D03*
X158750000Y-136525000D03*
X158750000Y-133985000D03*
X161290000Y-133985000D03*
X166370000Y-131445000D03*
X168910000Y-131445000D03*
X171450000Y-131445000D03*
X171450000Y-133985000D03*
X171450000Y-136525000D03*
X168910000Y-136525000D03*
X166370000Y-136525000D03*
X166370000Y-133985000D03*
X168910000Y-133985000D03*
X135890000Y-111125000D03*
X138430000Y-111125000D03*
X140970000Y-111125000D03*
X140970000Y-113665000D03*
X140970000Y-116205000D03*
X138430000Y-116205000D03*
X135890000Y-116205000D03*
X135890000Y-113665000D03*
X138430000Y-113665000D03*
X143510000Y-111125000D03*
X146050000Y-111125000D03*
X148590000Y-111125000D03*
X148590000Y-113665000D03*
X148590000Y-116205000D03*
X146050000Y-116205000D03*
X143510000Y-116205000D03*
X143510000Y-113665000D03*
X146050000Y-113665000D03*
X151130000Y-108585000D03*
X153670000Y-108585000D03*
X156210000Y-108585000D03*
X156210000Y-111125000D03*
X156210000Y-113665000D03*
X153670000Y-113665000D03*
X151130000Y-113665000D03*
X151130000Y-111125000D03*
X153670000Y-111125000D03*
X158750000Y-108585000D03*
X161290000Y-108585000D03*
X163830000Y-108585000D03*
X163830000Y-111125000D03*
X163830000Y-113665000D03*
X161290000Y-113665000D03*
X158750000Y-113665000D03*
X158750000Y-111125000D03*
X161290000Y-111125000D03*
X166370000Y-108585000D03*
X168910000Y-108585000D03*
X171450000Y-108585000D03*
X171450000Y-111125000D03*
X171450000Y-113665000D03*
X168910000Y-113665000D03*
X166370000Y-113665000D03*
X166370000Y-111125000D03*
X168910000Y-111125000D03*
X133350000Y-118745000D03*
X135890000Y-118745000D03*
X138430000Y-118745000D03*
X138430000Y-121285000D03*
X138430000Y-123825000D03*
X135890000Y-123825000D03*
X133350000Y-123825000D03*
X133350000Y-121285000D03*
X135890000Y-121285000D03*
X133350000Y-116205000D03*
X135890000Y-108585000D03*
X146050000Y-108585000D03*
X148590000Y-108585000D03*
X151130000Y-116205000D03*
X153670000Y-116205000D03*
X156210000Y-116205000D03*
X158750000Y-116205000D03*
X161290000Y-116205000D03*
X163830000Y-116205000D03*
X166370000Y-116205000D03*
X168910000Y-116205000D03*
X171450000Y-116205000D03*
X171450000Y-118745000D03*
X171450000Y-121285000D03*
X173990000Y-108585000D03*
X173990000Y-111125000D03*
X173990000Y-113665000D03*
X173990000Y-116205000D03*
X173990000Y-118745000D03*
X173990000Y-121285000D03*
X171450000Y-123825000D03*
X173990000Y-123825000D03*
X173990000Y-126365000D03*
X171450000Y-126365000D03*
X171450000Y-128905000D03*
X173990000Y-128905000D03*
X173990000Y-131445000D03*
X118110000Y-121285000D03*
X120650000Y-121285000D03*
X123190000Y-121285000D03*
X123190000Y-123825000D03*
X123190000Y-126365000D03*
X120650000Y-126365000D03*
X118110000Y-126365000D03*
X118110000Y-123825000D03*
X120650000Y-123825000D03*
X110490000Y-121285000D03*
X113030000Y-121285000D03*
X115570000Y-121285000D03*
X115570000Y-123825000D03*
X115570000Y-126365000D03*
X113030000Y-126365000D03*
X110490000Y-126365000D03*
X110490000Y-123825000D03*
X113030000Y-123825000D03*
X102870000Y-121285000D03*
X105410000Y-121285000D03*
X107950000Y-121285000D03*
X107950000Y-123825000D03*
X107950000Y-126365000D03*
X105410000Y-126365000D03*
X102870000Y-126365000D03*
X102870000Y-123825000D03*
X105410000Y-123825000D03*
X95250000Y-121285000D03*
X97790000Y-121285000D03*
X100330000Y-121285000D03*
X100330000Y-123825000D03*
X100330000Y-126365000D03*
X97790000Y-126365000D03*
X95250000Y-126365000D03*
X95250000Y-123825000D03*
X97790000Y-123825000D03*
X140970000Y-118745000D03*
X143510000Y-118745000D03*
X146050000Y-118745000D03*
X146050000Y-121285000D03*
X146050000Y-123825000D03*
X143510000Y-123825000D03*
X140970000Y-123825000D03*
X140970000Y-121285000D03*
X143510000Y-121285000D03*
X148590000Y-118745000D03*
X151130000Y-118745000D03*
X153670000Y-118745000D03*
X153670000Y-121285000D03*
X153670000Y-123825000D03*
X151130000Y-123825000D03*
X148590000Y-123825000D03*
X148590000Y-121285000D03*
X151130000Y-121285000D03*
X156210000Y-118745000D03*
X158750000Y-118745000D03*
X161290000Y-118745000D03*
X161290000Y-121285000D03*
X161290000Y-123825000D03*
X158750000Y-123825000D03*
X156210000Y-123825000D03*
X156210000Y-121285000D03*
X158750000Y-121285000D03*
X163830000Y-118745000D03*
X166370000Y-118745000D03*
X168910000Y-118745000D03*
X168910000Y-121285000D03*
X168910000Y-123825000D03*
X166370000Y-123825000D03*
X163830000Y-123825000D03*
X163830000Y-121285000D03*
X166370000Y-121285000D03*
X90170000Y-108585000D03*
X90170000Y-111125000D03*
X90170000Y-113665000D03*
X90170000Y-116205000D03*
X90170000Y-118745000D03*
X92710000Y-118745000D03*
X95250000Y-118745000D03*
X90170000Y-121285000D03*
X92710000Y-121285000D03*
X90170000Y-123825000D03*
X92710000Y-123825000D03*
X90170000Y-126365000D03*
X92710000Y-126365000D03*
X90170000Y-128905000D03*
X90170000Y-131445000D03*
X90170000Y-133985000D03*
X90170000Y-136525000D03*
X90170000Y-139065000D03*
X92710000Y-139065000D03*
X92710000Y-136525000D03*
X95250000Y-139065000D03*
X97790000Y-139065000D03*
X100330000Y-139065000D03*
X102870000Y-139065000D03*
X105410000Y-139065000D03*
X107950000Y-139065000D03*
X110490000Y-139065000D03*
X113030000Y-139065000D03*
X115570000Y-139065000D03*
X118110000Y-139065000D03*
X120650000Y-139065000D03*
X120650000Y-136525000D03*
X123190000Y-136525000D03*
X123190000Y-133985000D03*
X123190000Y-131445000D03*
X123190000Y-128905000D03*
X125730000Y-133985000D03*
X125730000Y-131445000D03*
X125730000Y-136525000D03*
X123190000Y-139065000D03*
X125730000Y-139065000D03*
X125730000Y-113665000D03*
X125730000Y-111125000D03*
X125730000Y-108585000D03*
X123190000Y-108585000D03*
X123190000Y-111125000D03*
X123190000Y-113665000D03*
X123190000Y-116205000D03*
X123190000Y-118745000D03*
X90170000Y-106045000D03*
X92710000Y-106045000D03*
X95250000Y-106045000D03*
X107950000Y-106045000D03*
X110490000Y-106045000D03*
X113030000Y-106045000D03*
X115570000Y-106045000D03*
X118110000Y-106045000D03*
X120650000Y-106045000D03*
X123190000Y-106045000D03*
X125730000Y-106045000D03*
X128270000Y-106045000D03*
X130810000Y-106045000D03*
X133350000Y-106045000D03*
X135890000Y-106045000D03*
X133350000Y-126365000D03*
X133350000Y-128905000D03*
X135890000Y-126365000D03*
X135890000Y-128905000D03*
X138430000Y-128905000D03*
X138430000Y-126365000D03*
X140970000Y-126365000D03*
X140970000Y-128905000D03*
X143510000Y-128905000D03*
X143510000Y-126365000D03*
X146050000Y-128905000D03*
X146050000Y-126365000D03*
X148590000Y-126365000D03*
X148590000Y-128905000D03*
X151130000Y-126365000D03*
X151130000Y-128905000D03*
X153670000Y-128905000D03*
X153670000Y-126365000D03*
X156210000Y-126365000D03*
X156210000Y-128905000D03*
X158750000Y-128905000D03*
X158750000Y-126365000D03*
X161290000Y-126365000D03*
X161290000Y-128905000D03*
X163830000Y-128905000D03*
X163830000Y-126365000D03*
X166370000Y-126365000D03*
X168910000Y-126365000D03*
X168910000Y-128905000D03*
X166370000Y-128905000D03*
X173990000Y-133985000D03*
X173990000Y-136525000D03*
X173990000Y-139065000D03*
X171450000Y-139065000D03*
X128270000Y-139065000D03*
X130810000Y-139065000D03*
X133350000Y-139065000D03*
X135890000Y-139065000D03*
X138430000Y-139065000D03*
X140970000Y-139065000D03*
X143510000Y-139065000D03*
X146050000Y-139065000D03*
X151130000Y-139065000D03*
X148590000Y-139065000D03*
X153670000Y-139065000D03*
X156210000Y-139065000D03*
X158750000Y-139065000D03*
X161290000Y-139065000D03*
X163830000Y-139065000D03*
X166370000Y-139065000D03*
X168910000Y-139065000D03*
X146050000Y-106045000D03*
X148590000Y-106045000D03*
X151130000Y-106045000D03*
X153670000Y-106045000D03*
X156210000Y-106045000D03*
X173990000Y-106045000D03*
X171450000Y-106045000D03*
X168910000Y-106045000D03*
D19*
X102930000Y-109205000D03*
X102930000Y-109855000D03*
X102930000Y-110505000D03*
X102930000Y-111155000D03*
X102930000Y-111805000D03*
X102930000Y-112455000D03*
X102930000Y-113105000D03*
X102930000Y-113755000D03*
X102930000Y-114405000D03*
X102930000Y-115055000D03*
X102930000Y-115705000D03*
X102930000Y-116355000D03*
X102930000Y-117005000D03*
X102930000Y-117655000D03*
X110430000Y-109205000D03*
X110430000Y-109855000D03*
X110430000Y-110505000D03*
X110430000Y-111155000D03*
X110430000Y-111805000D03*
X110430000Y-112455000D03*
X110430000Y-113105000D03*
X110430000Y-113755000D03*
X110430000Y-114405000D03*
X110430000Y-115055000D03*
X110430000Y-115705000D03*
X110430000Y-116355000D03*
X110430000Y-117005000D03*
X110430000Y-117655000D03*
D20*
X99695000Y-109205000D03*
D21*
X97790000Y-109205000D03*
X95885000Y-109205000D03*
X93980000Y-109205000D03*
X99695000Y-111805000D03*
X97790000Y-111805000D03*
X95885000Y-111805000D03*
X93980000Y-111805000D03*
X99695000Y-114405000D03*
X97790000Y-114405000D03*
X95885000Y-114405000D03*
X93980000Y-114405000D03*
X99695000Y-117005000D03*
X97790000Y-117005000D03*
X113665000Y-109205000D03*
X115570000Y-109205000D03*
X117475000Y-109205000D03*
X119380000Y-109205000D03*
X113665000Y-111805000D03*
X115570000Y-111805000D03*
X117475000Y-111805000D03*
X119380000Y-111805000D03*
X113665000Y-114405000D03*
X115570000Y-114405000D03*
X117475000Y-114405000D03*
X119380000Y-114405000D03*
X113665000Y-117005000D03*
X115570000Y-117005000D03*
D19*
X102930000Y-128890000D03*
X102930000Y-129540000D03*
X102930000Y-130190000D03*
X102930000Y-130840000D03*
X102930000Y-131490000D03*
X102930000Y-132140000D03*
X102930000Y-132790000D03*
X102930000Y-133440000D03*
X102930000Y-134090000D03*
X102930000Y-134740000D03*
X102930000Y-135390000D03*
X102930000Y-136040000D03*
X102930000Y-136690000D03*
X102930000Y-137340000D03*
X110430000Y-128890000D03*
X110430000Y-129540000D03*
X110430000Y-130190000D03*
X110430000Y-130840000D03*
X110430000Y-131490000D03*
X110430000Y-132140000D03*
X110430000Y-132790000D03*
X110430000Y-133440000D03*
X110430000Y-134090000D03*
X110430000Y-134740000D03*
X110430000Y-135390000D03*
X110430000Y-136040000D03*
X110430000Y-136690000D03*
X110430000Y-137340000D03*
D20*
X99695000Y-128890000D03*
D21*
X97790000Y-128890000D03*
X95885000Y-128890000D03*
X93980000Y-128890000D03*
X99695000Y-131490000D03*
X97790000Y-131490000D03*
X95885000Y-131490000D03*
X93980000Y-131490000D03*
X99695000Y-134090000D03*
X97790000Y-134090000D03*
X95885000Y-134090000D03*
X93980000Y-134090000D03*
X99695000Y-136690000D03*
X97790000Y-136690000D03*
X113665000Y-128890000D03*
X115570000Y-128890000D03*
X117475000Y-128890000D03*
X119380000Y-128890000D03*
X113665000Y-131490000D03*
X115570000Y-131490000D03*
X117475000Y-131490000D03*
X119380000Y-131490000D03*
X113665000Y-134090000D03*
X115570000Y-134090000D03*
X117475000Y-134090000D03*
X119380000Y-134090000D03*
X113665000Y-136690000D03*
X115570000Y-136690000D03*
M02*
