G04 #@! TF.FileFunction,Profile,NP*
%FSLAX46Y46*%
G04 Gerber Fmt 4.6, Leading zero omitted, Abs format (unit mm)*
G04 Created by KiCad (PCBNEW (after 2015-mar-04 BZR unknown)-product) date 16.6.2015 8:52:11*
%MOMM*%
G01*
G04 APERTURE LIST*
%ADD10C,0.150000*%
%ADD11C,0.100000*%
G04 APERTURE END LIST*
D10*
D11*
X143510000Y-58102500D02*
X143510000Y-52705000D01*
X120650000Y-52705000D02*
X120650000Y-58102500D01*
X177800000Y-52705000D02*
X177800000Y-140335000D01*
X175895000Y-142240000D02*
G75*
G03X177800000Y-140335000I0J1905000D01*
G01*
X88265000Y-142240000D02*
X175895000Y-142240000D01*
X86360000Y-140335000D02*
G75*
G03X88265000Y-142240000I1905000J0D01*
G01*
X86360000Y-57785000D02*
X86360000Y-140335000D01*
X174625000Y-50800000D02*
X175895000Y-50800000D01*
X177800000Y-52705000D02*
G75*
G03X175895000Y-50800000I-1905000J0D01*
G01*
X174625000Y-50800000D02*
X151765000Y-50800000D01*
X86360000Y-52705000D02*
X86360000Y-53975000D01*
X88265000Y-50800000D02*
G75*
G03X86360000Y-52705000I0J-1905000D01*
G01*
X102870000Y-50800000D02*
X88265000Y-50800000D01*
X86360000Y-57785000D02*
X86360000Y-53975000D01*
X122555000Y-61214000D02*
X142240000Y-61214000D01*
X143510000Y-58039000D02*
X143510000Y-59944000D01*
X142240000Y-61214000D02*
G75*
G03X143510000Y-59944000I0J1270000D01*
G01*
X120650000Y-58039000D02*
X120650000Y-59309000D01*
X120650000Y-59309000D02*
G75*
G03X122555000Y-61214000I1905000J0D01*
G01*
X145415000Y-50800000D02*
G75*
G03X143510000Y-52705000I0J-1905000D01*
G01*
X151765000Y-50800000D02*
X145415000Y-50800000D01*
X114935000Y-50800000D02*
X118745000Y-50800000D01*
X120650000Y-52705000D02*
G75*
G03X118745000Y-50800000I-1905000J0D01*
G01*
X102870000Y-50800000D02*
X114935000Y-50800000D01*
M02*
