G04 #@! TF.FileFunction,Soldermask,Bot*
%FSLAX46Y46*%
G04 Gerber Fmt 4.6, Leading zero omitted, Abs format (unit mm)*
G04 Created by KiCad (PCBNEW 4.0.0-rc1-stable) date to  8. lokakuuta 2015 13.09.15*
%MOMM*%
G01*
G04 APERTURE LIST*
%ADD10C,0.150000*%
%ADD11C,1.500000*%
%ADD12R,1.700000X1.700000*%
%ADD13C,1.700000*%
%ADD14C,4.064000*%
%ADD15R,1.500000X1.500000*%
%ADD16R,1.400000X1.400000*%
%ADD17C,1.400000*%
G04 APERTURE END LIST*
D10*
D11*
X124714000Y-100965000D03*
X121158000Y-100965000D03*
X122936000Y-102235000D03*
X119380000Y-102235000D03*
X141224000Y-102235000D03*
X144780000Y-102235000D03*
X139446000Y-100965000D03*
X143002000Y-100965000D03*
X124714000Y-98425000D03*
X121158000Y-98425000D03*
X122936000Y-99695000D03*
X119380000Y-99695000D03*
X141224000Y-99695000D03*
X144780000Y-99695000D03*
X139446000Y-98425000D03*
X143002000Y-98425000D03*
X124714000Y-78105000D03*
X121158000Y-78105000D03*
X122936000Y-79375000D03*
X119380000Y-79375000D03*
X141224000Y-79375000D03*
X144780000Y-79375000D03*
X139446000Y-78105000D03*
X143002000Y-78105000D03*
X124714000Y-80645000D03*
X121158000Y-80645000D03*
X122936000Y-81915000D03*
X119380000Y-81915000D03*
X141224000Y-81915000D03*
X144780000Y-81915000D03*
X139446000Y-80645000D03*
X143002000Y-80645000D03*
X124714000Y-85725000D03*
X121158000Y-85725000D03*
X122936000Y-86995000D03*
X119380000Y-86995000D03*
X141224000Y-86995000D03*
X144780000Y-86995000D03*
X139446000Y-85725000D03*
X143002000Y-85725000D03*
X124714000Y-83185000D03*
X121158000Y-83185000D03*
X122936000Y-84455000D03*
X119380000Y-84455000D03*
X141224000Y-84455000D03*
X144780000Y-84455000D03*
X139446000Y-83185000D03*
X143002000Y-83185000D03*
X124714000Y-93345000D03*
X121158000Y-93345000D03*
X122936000Y-94615000D03*
X119380000Y-94615000D03*
X141224000Y-94615000D03*
X144780000Y-94615000D03*
X139446000Y-93345000D03*
X143002000Y-93345000D03*
X124714000Y-95885000D03*
X121158000Y-95885000D03*
X122936000Y-97155000D03*
X119380000Y-97155000D03*
X141224000Y-97155000D03*
X144780000Y-97155000D03*
X139446000Y-95885000D03*
X143002000Y-95885000D03*
X124714000Y-90805000D03*
X121158000Y-90805000D03*
X122936000Y-92075000D03*
X119380000Y-92075000D03*
X141224000Y-92075000D03*
X144780000Y-92075000D03*
X139446000Y-90805000D03*
X143002000Y-90805000D03*
X124714000Y-88265000D03*
X121158000Y-88265000D03*
X122936000Y-89535000D03*
X119380000Y-89535000D03*
X141224000Y-89535000D03*
X144780000Y-89535000D03*
X139446000Y-88265000D03*
X143002000Y-88265000D03*
X124714000Y-67945000D03*
X121158000Y-67945000D03*
X122936000Y-69215000D03*
X119380000Y-69215000D03*
X141224000Y-69215000D03*
X144780000Y-69215000D03*
X139446000Y-67945000D03*
X143002000Y-67945000D03*
X124714000Y-70485000D03*
X121158000Y-70485000D03*
X122936000Y-71755000D03*
X119380000Y-71755000D03*
X141224000Y-71755000D03*
X144780000Y-71755000D03*
X139446000Y-70485000D03*
X143002000Y-70485000D03*
X124714000Y-75565000D03*
X121158000Y-75565000D03*
X122936000Y-76835000D03*
X119380000Y-76835000D03*
X141224000Y-76835000D03*
X144780000Y-76835000D03*
X139446000Y-75565000D03*
X143002000Y-75565000D03*
X124714000Y-73025000D03*
X121158000Y-73025000D03*
X122936000Y-74295000D03*
X119380000Y-74295000D03*
X141224000Y-74295000D03*
X144780000Y-74295000D03*
X139446000Y-73025000D03*
X143002000Y-73025000D03*
X124714000Y-62865000D03*
X121158000Y-62865000D03*
X122936000Y-64135000D03*
X119380000Y-64135000D03*
X141224000Y-64135000D03*
X144780000Y-64135000D03*
X139446000Y-62865000D03*
X143002000Y-62865000D03*
X124714000Y-65405000D03*
X121158000Y-65405000D03*
X122936000Y-66675000D03*
X119380000Y-66675000D03*
X141224000Y-66675000D03*
X144780000Y-66675000D03*
X139446000Y-65405000D03*
X143002000Y-65405000D03*
D12*
X100330000Y-57785000D03*
D13*
X102870000Y-57785000D03*
X100330000Y-60325000D03*
X102870000Y-60325000D03*
X100330000Y-62865000D03*
X102870000Y-62865000D03*
X100330000Y-65405000D03*
X102870000Y-65405000D03*
X100330000Y-67945000D03*
X102870000Y-67945000D03*
X100330000Y-70485000D03*
X102870000Y-70485000D03*
X100330000Y-73025000D03*
X102870000Y-73025000D03*
X100330000Y-75565000D03*
X102870000Y-75565000D03*
X100330000Y-78105000D03*
X102870000Y-78105000D03*
X100330000Y-80645000D03*
X102870000Y-80645000D03*
X100330000Y-83185000D03*
X102870000Y-83185000D03*
X100330000Y-85725000D03*
X102870000Y-85725000D03*
X100330000Y-88265000D03*
X102870000Y-88265000D03*
X100330000Y-90805000D03*
X102870000Y-90805000D03*
X100330000Y-93345000D03*
X102870000Y-93345000D03*
X100330000Y-95885000D03*
X102870000Y-95885000D03*
X100330000Y-98425000D03*
X102870000Y-98425000D03*
X100330000Y-100965000D03*
X102870000Y-100965000D03*
X100330000Y-103505000D03*
X102870000Y-103505000D03*
D12*
X161290000Y-57785000D03*
D13*
X163830000Y-57785000D03*
X161290000Y-60325000D03*
X163830000Y-60325000D03*
X161290000Y-62865000D03*
X163830000Y-62865000D03*
X161290000Y-65405000D03*
X163830000Y-65405000D03*
X161290000Y-67945000D03*
X163830000Y-67945000D03*
X161290000Y-70485000D03*
X163830000Y-70485000D03*
X161290000Y-73025000D03*
X163830000Y-73025000D03*
X161290000Y-75565000D03*
X163830000Y-75565000D03*
X161290000Y-78105000D03*
X163830000Y-78105000D03*
X161290000Y-80645000D03*
X163830000Y-80645000D03*
X161290000Y-83185000D03*
X163830000Y-83185000D03*
X161290000Y-85725000D03*
X163830000Y-85725000D03*
X161290000Y-88265000D03*
X163830000Y-88265000D03*
X161290000Y-90805000D03*
X163830000Y-90805000D03*
X161290000Y-93345000D03*
X163830000Y-93345000D03*
X161290000Y-95885000D03*
X163830000Y-95885000D03*
X161290000Y-98425000D03*
X163830000Y-98425000D03*
X161290000Y-100965000D03*
X163830000Y-100965000D03*
X161290000Y-103505000D03*
X163830000Y-103505000D03*
X150495000Y-80645000D03*
X153035000Y-80645000D03*
X150495000Y-103505000D03*
X153035000Y-103505000D03*
X150495000Y-100965000D03*
X153035000Y-100965000D03*
X150495000Y-98425000D03*
X153035000Y-98425000D03*
X150495000Y-95885000D03*
X153035000Y-95885000D03*
X150495000Y-93345000D03*
X153035000Y-93345000D03*
X150495000Y-90805000D03*
X153035000Y-90805000D03*
X150495000Y-88265000D03*
X153035000Y-88265000D03*
X150495000Y-85725000D03*
X153035000Y-85725000D03*
X150495000Y-83185000D03*
X153035000Y-83185000D03*
X174625000Y-57785000D03*
X172085000Y-57785000D03*
X150495000Y-78105000D03*
X153035000Y-78105000D03*
X150495000Y-75565000D03*
X153035000Y-75565000D03*
X150495000Y-73025000D03*
X153035000Y-73025000D03*
X150495000Y-70485000D03*
X153035000Y-70485000D03*
X150495000Y-67945000D03*
X153035000Y-67945000D03*
X150495000Y-65405000D03*
X153035000Y-65405000D03*
X150495000Y-62865000D03*
X153035000Y-62865000D03*
X150495000Y-60325000D03*
X153035000Y-60325000D03*
X174625000Y-80645000D03*
X172085000Y-80645000D03*
X174625000Y-103505000D03*
X172085000Y-103505000D03*
X174625000Y-100965000D03*
X172085000Y-100965000D03*
X174625000Y-98425000D03*
X172085000Y-98425000D03*
X174625000Y-95885000D03*
X172085000Y-95885000D03*
X174625000Y-93345000D03*
X172085000Y-93345000D03*
X174625000Y-90805000D03*
X172085000Y-90805000D03*
X174625000Y-88265000D03*
X172085000Y-88265000D03*
X174625000Y-85725000D03*
X172085000Y-85725000D03*
X174625000Y-83185000D03*
X172085000Y-83185000D03*
X150495000Y-57785000D03*
X153035000Y-57785000D03*
X174625000Y-78105000D03*
X172085000Y-78105000D03*
X174625000Y-75565000D03*
X172085000Y-75565000D03*
X174625000Y-73025000D03*
X172085000Y-73025000D03*
X174625000Y-70485000D03*
X172085000Y-70485000D03*
X174625000Y-67945000D03*
X172085000Y-67945000D03*
X174625000Y-65405000D03*
X172085000Y-65405000D03*
X174625000Y-62865000D03*
X172085000Y-62865000D03*
X174625000Y-60325000D03*
X172085000Y-60325000D03*
X89535000Y-80645000D03*
X92075000Y-80645000D03*
X89535000Y-103505000D03*
X92075000Y-103505000D03*
X89535000Y-100965000D03*
X92075000Y-100965000D03*
X89535000Y-98425000D03*
X92075000Y-98425000D03*
X89535000Y-95885000D03*
X92075000Y-95885000D03*
X89535000Y-93345000D03*
X92075000Y-93345000D03*
X89535000Y-90805000D03*
X92075000Y-90805000D03*
X89535000Y-88265000D03*
X92075000Y-88265000D03*
X89535000Y-85725000D03*
X92075000Y-85725000D03*
X89535000Y-83185000D03*
X92075000Y-83185000D03*
X113665000Y-57785000D03*
X111125000Y-57785000D03*
X89535000Y-78105000D03*
X92075000Y-78105000D03*
X89535000Y-75565000D03*
X92075000Y-75565000D03*
X89535000Y-73025000D03*
X92075000Y-73025000D03*
X89535000Y-70485000D03*
X92075000Y-70485000D03*
X89535000Y-67945000D03*
X92075000Y-67945000D03*
X89535000Y-65405000D03*
X92075000Y-65405000D03*
X89535000Y-62865000D03*
X92075000Y-62865000D03*
X89535000Y-60325000D03*
X92075000Y-60325000D03*
X113665000Y-80645000D03*
X111125000Y-80645000D03*
X113665000Y-103505000D03*
X111125000Y-103505000D03*
X113665000Y-100965000D03*
X111125000Y-100965000D03*
X113665000Y-98425000D03*
X111125000Y-98425000D03*
X113665000Y-95885000D03*
X111125000Y-95885000D03*
X113665000Y-93345000D03*
X111125000Y-93345000D03*
X113665000Y-90805000D03*
X111125000Y-90805000D03*
X113665000Y-88265000D03*
X111125000Y-88265000D03*
X113665000Y-85725000D03*
X111125000Y-85725000D03*
X113665000Y-83185000D03*
X111125000Y-83185000D03*
X89535000Y-57785000D03*
X92075000Y-57785000D03*
X113665000Y-78105000D03*
X111125000Y-78105000D03*
X113665000Y-75565000D03*
X111125000Y-75565000D03*
X113665000Y-73025000D03*
X111125000Y-73025000D03*
X113665000Y-70485000D03*
X111125000Y-70485000D03*
X113665000Y-67945000D03*
X111125000Y-67945000D03*
X113665000Y-65405000D03*
X111125000Y-65405000D03*
X113665000Y-62865000D03*
X111125000Y-62865000D03*
X113665000Y-60325000D03*
X111125000Y-60325000D03*
D14*
X107950000Y-53975000D03*
X156210000Y-55245000D03*
X140970000Y-106045000D03*
D15*
X128270000Y-108585000D03*
X130810000Y-108585000D03*
X133350000Y-108585000D03*
X133350000Y-111125000D03*
X133350000Y-113665000D03*
X130810000Y-113665000D03*
X128270000Y-113665000D03*
X128270000Y-111125000D03*
X130810000Y-111125000D03*
X125730000Y-116205000D03*
X128270000Y-116205000D03*
X130810000Y-116205000D03*
X130810000Y-118745000D03*
X130810000Y-121285000D03*
X128270000Y-121285000D03*
X125730000Y-121285000D03*
X125730000Y-118745000D03*
X128270000Y-118745000D03*
X125730000Y-123825000D03*
X128270000Y-123825000D03*
X130810000Y-123825000D03*
X130810000Y-126365000D03*
X130810000Y-128905000D03*
X128270000Y-128905000D03*
X125730000Y-128905000D03*
X125730000Y-126365000D03*
X128270000Y-126365000D03*
X128270000Y-131445000D03*
X130810000Y-131445000D03*
X133350000Y-131445000D03*
X133350000Y-133985000D03*
X133350000Y-136525000D03*
X130810000Y-136525000D03*
X128270000Y-136525000D03*
X128270000Y-133985000D03*
X130810000Y-133985000D03*
X135890000Y-131445000D03*
X138430000Y-131445000D03*
X140970000Y-131445000D03*
X140970000Y-133985000D03*
X140970000Y-136525000D03*
X138430000Y-136525000D03*
X135890000Y-136525000D03*
X135890000Y-133985000D03*
X138430000Y-133985000D03*
X143510000Y-131445000D03*
X146050000Y-131445000D03*
X148590000Y-131445000D03*
X148590000Y-133985000D03*
X148590000Y-136525000D03*
X146050000Y-136525000D03*
X143510000Y-136525000D03*
X143510000Y-133985000D03*
X146050000Y-133985000D03*
X151130000Y-131445000D03*
X153670000Y-131445000D03*
X156210000Y-131445000D03*
X156210000Y-133985000D03*
X156210000Y-136525000D03*
X153670000Y-136525000D03*
X151130000Y-136525000D03*
X151130000Y-133985000D03*
X153670000Y-133985000D03*
X158750000Y-131445000D03*
X161290000Y-131445000D03*
X163830000Y-131445000D03*
X163830000Y-133985000D03*
X163830000Y-136525000D03*
X161290000Y-136525000D03*
X158750000Y-136525000D03*
X158750000Y-133985000D03*
X161290000Y-133985000D03*
X166370000Y-131445000D03*
X168910000Y-131445000D03*
X171450000Y-131445000D03*
X171450000Y-133985000D03*
X171450000Y-136525000D03*
X168910000Y-136525000D03*
X166370000Y-136525000D03*
X166370000Y-133985000D03*
X168910000Y-133985000D03*
X135890000Y-111125000D03*
X138430000Y-111125000D03*
X140970000Y-111125000D03*
X140970000Y-113665000D03*
X140970000Y-116205000D03*
X138430000Y-116205000D03*
X135890000Y-116205000D03*
X135890000Y-113665000D03*
X138430000Y-113665000D03*
X143510000Y-111125000D03*
X146050000Y-111125000D03*
X148590000Y-111125000D03*
X148590000Y-113665000D03*
X148590000Y-116205000D03*
X146050000Y-116205000D03*
X143510000Y-116205000D03*
X143510000Y-113665000D03*
X146050000Y-113665000D03*
X151130000Y-108585000D03*
X153670000Y-108585000D03*
X156210000Y-108585000D03*
X156210000Y-111125000D03*
X156210000Y-113665000D03*
X153670000Y-113665000D03*
X151130000Y-113665000D03*
X151130000Y-111125000D03*
X153670000Y-111125000D03*
X158750000Y-108585000D03*
X161290000Y-108585000D03*
X163830000Y-108585000D03*
X163830000Y-111125000D03*
X163830000Y-113665000D03*
X161290000Y-113665000D03*
X158750000Y-113665000D03*
X158750000Y-111125000D03*
X161290000Y-111125000D03*
X166370000Y-108585000D03*
X168910000Y-108585000D03*
X171450000Y-108585000D03*
X171450000Y-111125000D03*
X171450000Y-113665000D03*
X168910000Y-113665000D03*
X166370000Y-113665000D03*
X166370000Y-111125000D03*
X168910000Y-111125000D03*
X133350000Y-118745000D03*
X135890000Y-118745000D03*
X138430000Y-118745000D03*
X138430000Y-121285000D03*
X138430000Y-123825000D03*
X135890000Y-123825000D03*
X133350000Y-123825000D03*
X133350000Y-121285000D03*
X135890000Y-121285000D03*
X133350000Y-116205000D03*
X135890000Y-108585000D03*
X146050000Y-108585000D03*
X148590000Y-108585000D03*
X151130000Y-116205000D03*
X153670000Y-116205000D03*
X156210000Y-116205000D03*
X158750000Y-116205000D03*
X161290000Y-116205000D03*
X163830000Y-116205000D03*
X166370000Y-116205000D03*
X168910000Y-116205000D03*
X171450000Y-116205000D03*
X171450000Y-118745000D03*
X171450000Y-121285000D03*
X173990000Y-108585000D03*
X173990000Y-111125000D03*
X173990000Y-113665000D03*
X173990000Y-116205000D03*
X173990000Y-118745000D03*
X173990000Y-121285000D03*
X171450000Y-123825000D03*
X173990000Y-123825000D03*
X173990000Y-126365000D03*
X171450000Y-126365000D03*
X171450000Y-128905000D03*
X173990000Y-128905000D03*
X173990000Y-131445000D03*
X118110000Y-121285000D03*
X120650000Y-121285000D03*
X123190000Y-121285000D03*
X123190000Y-123825000D03*
X123190000Y-126365000D03*
X120650000Y-126365000D03*
X118110000Y-126365000D03*
X118110000Y-123825000D03*
X120650000Y-123825000D03*
X110490000Y-121285000D03*
X113030000Y-121285000D03*
X115570000Y-121285000D03*
X115570000Y-123825000D03*
X115570000Y-126365000D03*
X113030000Y-126365000D03*
X110490000Y-126365000D03*
X110490000Y-123825000D03*
X113030000Y-123825000D03*
X102870000Y-121285000D03*
X105410000Y-121285000D03*
X107950000Y-121285000D03*
X107950000Y-123825000D03*
X107950000Y-126365000D03*
X105410000Y-126365000D03*
X102870000Y-126365000D03*
X102870000Y-123825000D03*
X105410000Y-123825000D03*
X95250000Y-121285000D03*
X97790000Y-121285000D03*
X100330000Y-121285000D03*
X100330000Y-123825000D03*
X100330000Y-126365000D03*
X97790000Y-126365000D03*
X95250000Y-126365000D03*
X95250000Y-123825000D03*
X97790000Y-123825000D03*
X140970000Y-118745000D03*
X143510000Y-118745000D03*
X146050000Y-118745000D03*
X146050000Y-121285000D03*
X146050000Y-123825000D03*
X143510000Y-123825000D03*
X140970000Y-123825000D03*
X140970000Y-121285000D03*
X143510000Y-121285000D03*
X148590000Y-118745000D03*
X151130000Y-118745000D03*
X153670000Y-118745000D03*
X153670000Y-121285000D03*
X153670000Y-123825000D03*
X151130000Y-123825000D03*
X148590000Y-123825000D03*
X148590000Y-121285000D03*
X151130000Y-121285000D03*
X156210000Y-118745000D03*
X158750000Y-118745000D03*
X161290000Y-118745000D03*
X161290000Y-121285000D03*
X161290000Y-123825000D03*
X158750000Y-123825000D03*
X156210000Y-123825000D03*
X156210000Y-121285000D03*
X158750000Y-121285000D03*
X163830000Y-118745000D03*
X166370000Y-118745000D03*
X168910000Y-118745000D03*
X168910000Y-121285000D03*
X168910000Y-123825000D03*
X166370000Y-123825000D03*
X163830000Y-123825000D03*
X163830000Y-121285000D03*
X166370000Y-121285000D03*
X90170000Y-108585000D03*
X90170000Y-111125000D03*
X90170000Y-113665000D03*
X90170000Y-116205000D03*
X90170000Y-118745000D03*
X92710000Y-118745000D03*
X95250000Y-118745000D03*
X90170000Y-121285000D03*
X92710000Y-121285000D03*
X90170000Y-123825000D03*
X92710000Y-123825000D03*
X90170000Y-126365000D03*
X92710000Y-126365000D03*
X90170000Y-128905000D03*
X90170000Y-131445000D03*
X90170000Y-133985000D03*
X90170000Y-136525000D03*
X90170000Y-139065000D03*
X92710000Y-139065000D03*
X92710000Y-136525000D03*
X95250000Y-139065000D03*
X97790000Y-139065000D03*
X100330000Y-139065000D03*
X102870000Y-139065000D03*
X105410000Y-139065000D03*
X107950000Y-139065000D03*
X110490000Y-139065000D03*
X113030000Y-139065000D03*
X115570000Y-139065000D03*
X118110000Y-139065000D03*
X120650000Y-139065000D03*
X120650000Y-136525000D03*
X123190000Y-136525000D03*
X123190000Y-133985000D03*
X123190000Y-131445000D03*
X123190000Y-128905000D03*
X125730000Y-133985000D03*
X125730000Y-131445000D03*
X125730000Y-136525000D03*
X123190000Y-139065000D03*
X125730000Y-139065000D03*
X125730000Y-113665000D03*
X125730000Y-111125000D03*
X125730000Y-108585000D03*
X123190000Y-108585000D03*
X123190000Y-111125000D03*
X123190000Y-113665000D03*
X123190000Y-116205000D03*
X123190000Y-118745000D03*
X90170000Y-106045000D03*
X92710000Y-106045000D03*
X95250000Y-106045000D03*
X107950000Y-106045000D03*
X110490000Y-106045000D03*
X113030000Y-106045000D03*
X115570000Y-106045000D03*
X118110000Y-106045000D03*
X120650000Y-106045000D03*
X123190000Y-106045000D03*
X125730000Y-106045000D03*
X128270000Y-106045000D03*
X130810000Y-106045000D03*
X133350000Y-106045000D03*
X135890000Y-106045000D03*
X133350000Y-126365000D03*
X133350000Y-128905000D03*
X135890000Y-126365000D03*
X135890000Y-128905000D03*
X138430000Y-128905000D03*
X138430000Y-126365000D03*
X140970000Y-126365000D03*
X140970000Y-128905000D03*
X143510000Y-128905000D03*
X143510000Y-126365000D03*
X146050000Y-128905000D03*
X146050000Y-126365000D03*
X148590000Y-126365000D03*
X148590000Y-128905000D03*
X151130000Y-126365000D03*
X151130000Y-128905000D03*
X153670000Y-128905000D03*
X153670000Y-126365000D03*
X156210000Y-126365000D03*
X156210000Y-128905000D03*
X158750000Y-128905000D03*
X158750000Y-126365000D03*
X161290000Y-126365000D03*
X161290000Y-128905000D03*
X163830000Y-128905000D03*
X163830000Y-126365000D03*
X166370000Y-126365000D03*
X168910000Y-126365000D03*
X168910000Y-128905000D03*
X166370000Y-128905000D03*
X173990000Y-133985000D03*
X173990000Y-136525000D03*
X173990000Y-139065000D03*
X171450000Y-139065000D03*
X128270000Y-139065000D03*
X130810000Y-139065000D03*
X133350000Y-139065000D03*
X135890000Y-139065000D03*
X138430000Y-139065000D03*
X140970000Y-139065000D03*
X143510000Y-139065000D03*
X146050000Y-139065000D03*
X151130000Y-139065000D03*
X148590000Y-139065000D03*
X153670000Y-139065000D03*
X156210000Y-139065000D03*
X158750000Y-139065000D03*
X161290000Y-139065000D03*
X163830000Y-139065000D03*
X166370000Y-139065000D03*
X168910000Y-139065000D03*
X146050000Y-106045000D03*
X148590000Y-106045000D03*
X151130000Y-106045000D03*
X153670000Y-106045000D03*
X156210000Y-106045000D03*
X173990000Y-106045000D03*
X171450000Y-106045000D03*
X168910000Y-106045000D03*
D16*
X99695000Y-109205000D03*
D17*
X97790000Y-109205000D03*
X95885000Y-109205000D03*
X93980000Y-109205000D03*
X99695000Y-111805000D03*
X97790000Y-111805000D03*
X95885000Y-111805000D03*
X93980000Y-111805000D03*
X99695000Y-114405000D03*
X97790000Y-114405000D03*
X95885000Y-114405000D03*
X93980000Y-114405000D03*
X99695000Y-117005000D03*
X97790000Y-117005000D03*
X113665000Y-109205000D03*
X115570000Y-109205000D03*
X117475000Y-109205000D03*
X119380000Y-109205000D03*
X113665000Y-111805000D03*
X115570000Y-111805000D03*
X117475000Y-111805000D03*
X119380000Y-111805000D03*
X113665000Y-114405000D03*
X115570000Y-114405000D03*
X117475000Y-114405000D03*
X119380000Y-114405000D03*
X113665000Y-117005000D03*
X115570000Y-117005000D03*
D16*
X99695000Y-128890000D03*
D17*
X97790000Y-128890000D03*
X95885000Y-128890000D03*
X93980000Y-128890000D03*
X99695000Y-131490000D03*
X97790000Y-131490000D03*
X95885000Y-131490000D03*
X93980000Y-131490000D03*
X99695000Y-134090000D03*
X97790000Y-134090000D03*
X95885000Y-134090000D03*
X93980000Y-134090000D03*
X99695000Y-136690000D03*
X97790000Y-136690000D03*
X113665000Y-128890000D03*
X115570000Y-128890000D03*
X117475000Y-128890000D03*
X119380000Y-128890000D03*
X113665000Y-131490000D03*
X115570000Y-131490000D03*
X117475000Y-131490000D03*
X119380000Y-131490000D03*
X113665000Y-134090000D03*
X115570000Y-134090000D03*
X117475000Y-134090000D03*
X119380000Y-134090000D03*
X113665000Y-136690000D03*
X115570000Y-136690000D03*
M02*
